<?xml version="1.0" encoding="utf-8"?>
<!-- Generator: Adobe Illustrator 17.0.0, SVG Export Plug-In . SVG Version: 6.00 Build 0)  -->
<!DOCTYPE svg PUBLIC "-//W3C//DTD SVG 1.1//EN" "http://www.w3.org/Graphics/SVG/1.1/DTD/svg11.dtd">
<svg version="1.1" xmlns="http://www.w3.org/2000/svg" xmlns:xlink="http://www.w3.org/1999/xlink" x="0px" y="0px" width="552px"
	 height="122.994px" viewBox="-21.2 279.979 552 122.994" enable-background="new -21.2 279.979 552 122.994" xml:space="preserve">
<g id="Calque_1">
</g>
<g id="Calque_1_-_copie">
</g>
<g id="Calque_1_-_copie_2">
	
		<line fill="none" stroke="#000000" stroke-linecap="round" stroke-linejoin="round" stroke-miterlimit="10" x1="111.9" y1="385.618" x2="111.9" y2="294.618"/>
	<g enable-background="new    ">
		<path fill="#231F20" d="M154.791,366.125l-5.815,7.981c-0.114,0.228-0.342,0.228-0.57,0.228l0,0c-0.228,0-0.456-0.114-0.57-0.228
			l-5.815-7.981v14.822c0,0.342-0.228,0.57-0.57,0.57s-0.684-0.228-0.684-0.57V364.3c0-0.228,0.114-0.342,0.228-0.456l0,0
			c0.228-0.228,0.684-0.114,0.912,0.114l6.385,8.893l6.385-8.893c0.228-0.228,0.57-0.342,0.912-0.114
			c0.114,0.114,0.114,0.114,0.228,0.228c0,0.114,0.114,0.228,0.114,0.342v16.646c0,0.342-0.228,0.57-0.57,0.57
			s-0.57-0.228-0.57-0.57V366.125z"/>
		<path fill="#231F20" d="M167.675,368.975c3.306,0,5.929,2.85,5.929,6.271s-2.622,6.271-5.929,6.271s-5.929-2.85-5.929-6.271
			C161.746,371.825,164.368,368.975,167.675,368.975z M167.675,380.376c2.622,0,4.789-2.28,4.789-5.131s-2.166-5.131-4.789-5.131
			c-2.622,0-4.789,2.28-4.789,5.131C163,378.096,165.166,380.376,167.675,380.376z"/>
		<path fill="#231F20" d="M178.392,375.588v-0.228v-0.342v-10.831c0-0.342,0.228-0.57,0.57-0.57s0.684,0.228,0.684,0.57v7.297
			c1.14-1.482,2.85-2.508,4.903-2.508c3.42,0,6.157,2.85,6.157,6.385c0,3.42-2.736,6.271-6.157,6.271
			c-1.938,0-3.762-0.912-4.903-2.394v1.824c0,0.342-0.228,0.57-0.684,0.57c-0.342,0-0.57-0.228-0.57-0.57V375.588z M179.646,375.246
			c0,2.736,2.166,5.017,4.903,5.017c2.736,0,4.903-2.28,4.903-5.017c0-2.85-2.166-5.131-4.903-5.131
			c-2.622,0-4.789,2.166-4.903,4.903V375.246z"/>
		<path fill="#231F20" d="M195.494,365.441c0-0.342,0.228-0.57,0.57-0.57s0.684,0.228,0.684,0.57v0.57
			c0,0.342-0.228,0.684-0.684,0.684c-0.342,0-0.57-0.342-0.57-0.684V365.441z M195.494,369.545c0-0.342,0.228-0.57,0.57-0.57
			s0.684,0.228,0.684,0.57v11.401c0,0.342-0.228,0.57-0.684,0.57c-0.342,0-0.57-0.228-0.57-0.57V369.545z"/>
		<path fill="#231F20" d="M202.335,364.186c0-0.342,0.228-0.57,0.57-0.57s0.684,0.228,0.684,0.57v16.76
			c0,0.342-0.228,0.57-0.684,0.57c-0.342,0-0.57-0.228-0.57-0.57V364.186z"/>
		<path fill="#231F20" d="M208.605,365.441c0-0.342,0.228-0.57,0.57-0.57s0.684,0.228,0.684,0.57v0.57
			c0,0.342-0.228,0.684-0.684,0.684c-0.342,0-0.57-0.342-0.57-0.684V365.441z M208.605,369.545c0-0.342,0.228-0.57,0.57-0.57
			s0.684,0.228,0.684,0.57v11.401c0,0.342-0.228,0.57-0.684,0.57c-0.342,0-0.57-0.228-0.57-0.57V369.545z"/>
		<path fill="#231F20" d="M214.876,375.246c0-3.534,2.736-6.385,6.157-6.385c3.192,0,5.815,2.622,6.043,5.929l0,0v0.114
			c0,0.342-0.228,0.57-0.57,0.57H216.13c0.114,2.736,2.28,4.903,4.903,4.903c1.71,0,3.192-0.912,4.104-2.28
			c0.228-0.342,0.57-0.342,0.798-0.228c0.228,0.228,0.342,0.57,0.228,0.912c-1.026,1.71-2.964,2.85-5.131,2.85
			C217.612,381.63,214.876,378.78,214.876,375.246z M216.244,374.334h9.577c-0.456-2.394-2.394-4.104-4.789-4.104
			C218.638,370.229,216.7,371.939,216.244,374.334z"/>
		<path fill="#231F20" d="M230.952,369.659c0-0.342,0.228-0.57,0.684-0.57c0.342,0,0.57,0.228,0.57,0.57v2.736
			c0-0.114,0.114-0.228,0.228-0.342c0.912-1.482,2.622-3.078,5.017-3.078c0.342,0,0.57,0.228,0.57,0.57s-0.228,0.57-0.57,0.57
			c-1.596,0-2.736,0.912-3.648,2.052c-0.798,1.14-1.368,2.394-1.482,2.964c0,0.114,0,0.114,0,0.228v5.587
			c0,0.342-0.228,0.57-0.57,0.57s-0.684-0.228-0.684-0.57v-11.287H230.952z"/>
		<path fill="#231F20" d="M260.139,379.122c-1.14,1.482-2.85,2.394-4.903,2.394c-3.42,0-6.157-2.85-6.157-6.271
			c0-3.534,2.736-6.385,6.157-6.385c1.938,0,3.762,1.026,4.903,2.508v-7.297c0-0.342,0.228-0.57,0.684-0.57
			c0.342,0,0.57,0.228,0.57,0.57v10.945v0.228v5.701c0,0.342-0.228,0.57-0.57,0.57s-0.684-0.228-0.684-0.57V379.122z
			 M260.139,375.474v-0.456c-0.114-2.736-2.28-4.903-4.903-4.903s-4.903,2.28-4.903,5.131c0,2.736,2.166,5.017,4.903,5.017
			C257.859,380.376,260.025,378.21,260.139,375.474z"/>
		<path fill="#231F20" d="M265.725,375.246c0-3.534,2.736-6.385,6.157-6.385c3.192,0,5.815,2.622,6.043,5.929l0,0v0.114
			c0,0.342-0.228,0.57-0.57,0.57H266.98c0.114,2.736,2.28,4.903,4.903,4.903c1.71,0,3.192-0.912,4.104-2.28
			c0.228-0.342,0.57-0.342,0.798-0.228c0.228,0.228,0.342,0.57,0.228,0.912c-1.026,1.71-2.964,2.85-5.131,2.85
			C268.462,381.63,265.725,378.78,265.725,375.246z M267.094,374.334h9.577c-0.456-2.394-2.394-4.104-4.789-4.104
			C269.488,370.229,267.55,371.939,267.094,374.334z"/>
		<path fill="#231F20" d="M281.459,379.008c0.228-0.228,0.57-0.342,0.912-0.114c0.912,0.684,2.28,1.482,3.876,1.482
			c1.026,0,1.824-0.342,2.394-0.798c0.57-0.456,0.912-1.026,0.912-1.596s-0.228-1.026-0.912-1.596
			c-0.57-0.456-1.482-0.684-2.736-0.912l0,0c-1.14-0.228-2.166-0.456-2.85-1.026c-0.798-0.456-1.368-1.254-1.368-2.28
			s0.57-1.824,1.368-2.508c0.798-0.57,1.824-0.798,3.078-0.798c1.596,0,2.736,0.798,3.762,1.368c0.228,0.228,0.342,0.57,0.228,0.912
			c-0.228,0.228-0.57,0.342-0.798,0.228c-0.912-0.57-1.824-1.254-3.078-1.254c-1.026,0-1.824,0.228-2.394,0.684
			c-0.57,0.456-0.798,0.912-0.798,1.482s0.228,0.912,0.684,1.254c0.57,0.342,1.368,0.684,2.622,0.912l0,0
			c1.254,0.228,2.166,0.57,3.078,1.026c0.798,0.57,1.368,1.482,1.368,2.622c0,1.026-0.57,1.938-1.482,2.508
			c-0.912,0.684-1.938,1.026-3.192,1.026c-2.052,0-3.648-1.026-4.675-1.824C281.345,379.578,281.231,379.236,281.459,379.008z"/>
		<path fill="#231F20" d="M295.027,365.441c0-0.342,0.228-0.57,0.57-0.57s0.684,0.228,0.684,0.57v0.57
			c0,0.342-0.228,0.684-0.684,0.684c-0.342,0-0.57-0.342-0.57-0.684V365.441z M295.027,369.545c0-0.342,0.228-0.57,0.57-0.57
			s0.684,0.228,0.684,0.57v11.401c0,0.342-0.228,0.57-0.684,0.57c-0.342,0-0.57-0.228-0.57-0.57V369.545z"/>
		<path fill="#231F20" d="M313.269,380.604c0,3.306-2.622,5.929-5.929,5.929c-0.912,0-1.824-0.228-2.622-0.57
			c-0.228-0.228-0.456-0.57-0.228-0.798c0.114-0.342,0.57-0.456,0.798-0.228c0.684,0.342,1.254,0.456,2.052,0.456
			c2.622,0,4.675-2.052,4.675-4.675v-1.596c-1.026,1.482-2.736,2.508-4.675,2.508c-3.306,0-5.929-2.85-5.929-6.271
			s2.622-6.271,5.929-6.271c1.938,0,3.648,1.026,4.675,2.508v-1.824c0-0.342,0.228-0.57,0.684-0.57c0.342,0,0.57,0.228,0.57,0.57
			V380.604z M312.128,375.246c0-2.85-2.166-5.017-4.674-5.017c-2.622,0-4.675,2.166-4.675,5.017s2.166,5.131,4.675,5.131
			C309.962,380.262,312.128,378.096,312.128,375.246z"/>
		<path fill="#231F20" d="M328.318,374.106c0-2.166-1.71-3.876-3.876-3.876s-3.876,1.71-3.876,3.876v6.841v0.114
			c0,0.114,0,0.228-0.114,0.228c-0.114,0.114-0.228,0.228-0.456,0.228h-0.114c-0.228,0-0.342-0.228-0.456-0.342c0,0,0,0,0-0.114
			s0,0,0,0v-0.114v-6.841v-0.228v-4.332c0-0.342,0.228-0.57,0.57-0.57c0.342,0,0.57,0.228,0.57,0.57v1.254
			c0.912-1.14,2.394-1.824,3.876-1.824c2.85,0,5.131,2.28,5.131,5.131v6.841c0,0.342-0.228,0.57-0.57,0.57s-0.57-0.228-0.57-0.57
			v-6.841H328.318z"/>
		<path fill="#231F20" d="M341.886,375.246c0-3.534,2.736-6.385,6.157-6.385c3.192,0,5.815,2.622,6.043,5.929l0,0v0.114
			c0,0.342-0.228,0.57-0.57,0.57H343.14c0.114,2.736,2.28,4.903,4.903,4.903c1.71,0,3.192-0.912,4.104-2.28
			c0.228-0.342,0.57-0.342,0.798-0.228c0.228,0.228,0.342,0.57,0.228,0.912c-1.14,1.71-2.964,2.85-5.131,2.85
			C344.622,381.63,341.886,378.78,341.886,375.246z M343.254,374.334h9.577c-0.456-2.394-2.394-4.104-4.789-4.104
			S343.71,371.939,343.254,374.334z"/>
		<path fill="#231F20" d="M361.952,369.545c0,0.342-0.342,0.57-0.57,0.57h-1.596v9.235c0,0.57,0.57,0.912,0.912,0.912
			c0.342,0,0.684,0.342,0.684,0.684c0,0.342-0.342,0.57-0.684,0.57c-1.254,0-2.166-0.912-2.166-2.166v-9.235h-1.71
			c-0.57,0-0.57-0.342-0.57-0.57s0-0.57,0.57-0.57h1.596V364.3c0-0.342,0.342-0.57,0.57-0.57c0.342,0,0.684,0.342,0.684,0.57v4.674
			h1.596C361.61,368.975,361.952,369.317,361.952,369.545z"/>
		<path fill="#231F20" d="M385.667,379.122c-1.14,1.482-2.85,2.394-4.902,2.394c-3.42,0-6.157-2.85-6.157-6.271
			c0-3.534,2.736-6.385,6.157-6.385c1.938,0,3.762,1.026,4.902,2.508v-7.297c0-0.342,0.228-0.57,0.684-0.57
			c0.342,0,0.57,0.228,0.57,0.57v10.945v0.228v5.701c0,0.342-0.228,0.57-0.57,0.57c-0.342,0-0.684-0.228-0.684-0.57V379.122z
			 M385.667,375.474v-0.456c-0.114-2.736-2.28-4.903-4.902-4.903c-2.622,0-4.903,2.28-4.903,5.131c0,2.736,2.166,5.017,4.903,5.017
			C383.386,380.376,385.553,378.21,385.667,375.474z"/>
		<path fill="#231F20" d="M397.752,381.63c-3.42,0-6.157-2.85-6.157-6.271c0-3.534,2.736-6.385,6.157-6.385
			c3.192,0,5.815,2.622,6.043,5.929l0,0v0.114c0,0.342-0.228,0.57-0.57,0.57h-10.375c0.114,2.736,2.28,4.903,4.903,4.903
			c1.71,0,3.192-0.912,4.104-2.28c0.228-0.342,0.57-0.342,0.798-0.228c0.228,0.228,0.342,0.57,0.228,0.912
			C401.856,380.49,399.918,381.63,397.752,381.63z M397.752,370.229c-2.394,0-4.332,1.71-4.789,4.104h9.577
			C402.084,371.939,400.146,370.229,397.752,370.229z M396.384,366.923c0.342,0,0.57,0,0.798-0.342l2.052-1.938
			c0.114-0.114,0.228-0.342,0.228-0.456c0-0.228-0.57-0.57-1.026-0.57c-0.342,0-0.57,0.114-0.684,0.456l-1.596,2.394
			c0,0.114-0.114,0.228-0.114,0.228C396.042,366.809,396.156,366.923,396.384,366.923z"/>
		<path fill="#231F20" d="M407.329,375.246c0-3.534,2.85-6.271,6.499-6.271c1.482,0,2.964,0.57,3.99,1.368
			c0.228,0.228,0.342,0.57,0.114,0.798c-0.228,0.228-0.57,0.342-0.798,0.114c-0.912-0.684-2.052-1.14-3.192-1.14
			c-2.964,0-5.245,2.28-5.245,5.131s2.28,5.131,5.245,5.131c1.254,0,2.394-0.456,3.192-1.14c0.228-0.228,0.684-0.114,0.798,0.114
			c0.228,0.228,0.228,0.684-0.114,0.912c-1.026,0.798-2.508,1.368-3.99,1.368C410.293,381.63,407.329,378.78,407.329,375.246z"/>
		<path fill="#231F20" d="M427.965,368.975c3.306,0,5.929,2.85,5.929,6.271s-2.622,6.271-5.929,6.271s-5.929-2.85-5.929-6.271
			C422.036,371.825,424.659,368.975,427.965,368.975z M427.965,380.376c2.622,0,4.789-2.28,4.789-5.131s-2.166-5.131-4.789-5.131
			s-4.789,2.28-4.789,5.131C423.291,378.096,425.457,380.376,427.965,380.376z"/>
		<path fill="#231F20" d="M438.226,369.659c0-0.342,0.228-0.57,0.684-0.57c0.342,0,0.57,0.228,0.57,0.57v2.736
			c0-0.114,0.114-0.228,0.228-0.342c0.912-1.482,2.622-3.078,5.017-3.078c0.342,0,0.57,0.228,0.57,0.57s-0.228,0.57-0.57,0.57
			c-1.596,0-2.736,0.912-3.648,2.052c-0.798,1.14-1.368,2.394-1.482,2.964c0,0.114,0,0.114,0,0.228v5.587
			c0,0.342-0.228,0.57-0.57,0.57c-0.342,0-0.684-0.228-0.684-0.57v-11.287H438.226z"/>
		<path fill="#231F20" d="M459.433,369.545v11.401c0,0.342-0.228,0.57-0.57,0.57c-0.342,0-0.57-0.228-0.57-0.57v-1.824
			c-1.026,1.482-2.85,2.508-4.789,2.508c-3.306,0-5.929-2.85-5.929-6.271c0-3.42,2.622-6.271,5.929-6.271
			c1.938,0,3.648,1.026,4.789,2.508v-1.824c0-0.342,0.228-0.57,0.57-0.57C459.205,368.975,459.433,369.203,459.433,369.545z
			 M458.178,375.246c0-2.85-2.166-5.131-4.789-5.131c-2.622,0-4.789,2.28-4.789,5.131s2.166,5.131,4.789,5.131
			C456.126,380.376,458.178,378.096,458.178,375.246z"/>
		<path fill="#231F20" d="M469.238,369.545c0,0.342-0.342,0.57-0.57,0.57h-1.596v9.235c0,0.57,0.57,0.912,0.912,0.912
			c0.342,0,0.684,0.342,0.684,0.684c0,0.342-0.342,0.57-0.684,0.57c-1.254,0-2.166-0.912-2.166-2.166v-9.235h-1.596
			c-0.57,0-0.57-0.342-0.57-0.57s0-0.57,0.57-0.57h1.596V364.3c0-0.342,0.342-0.57,0.57-0.57c0.342,0,0.684,0.342,0.684,0.57v4.674
			h1.596C468.896,368.975,469.238,369.317,469.238,369.545z"/>
		<path fill="#231F20" d="M475.166,365.441c0-0.342,0.228-0.57,0.57-0.57c0.342,0,0.684,0.228,0.684,0.57v0.57
			c0,0.342-0.228,0.684-0.684,0.684c-0.342,0-0.57-0.342-0.57-0.684V365.441z M475.166,369.545c0-0.342,0.228-0.57,0.57-0.57
			c0.342,0,0.684,0.228,0.684,0.57v11.401c0,0.342-0.228,0.57-0.684,0.57c-0.342,0-0.57-0.228-0.57-0.57V369.545z"/>
		<path fill="#231F20" d="M487.822,368.975c3.306,0,5.929,2.85,5.929,6.271s-2.622,6.271-5.929,6.271s-5.929-2.85-5.929-6.271
			C481.779,371.825,484.515,368.975,487.822,368.975z M487.822,380.376c2.622,0,4.789-2.28,4.789-5.131s-2.166-5.131-4.789-5.131
			c-2.622,0-4.789,2.28-4.789,5.131C483.033,378.096,485.199,380.376,487.822,380.376z"/>
		<path fill="#231F20" d="M507.546,374.106c0-2.166-1.71-3.876-3.876-3.876s-3.876,1.71-3.876,3.876v6.841v0.114
			c0,0.114,0,0.228-0.114,0.228c-0.114,0.114-0.228,0.228-0.456,0.228h-0.114c-0.228,0-0.342-0.228-0.456-0.342c0,0,0,0,0-0.114
			s0,0,0,0v-0.114v-6.841v-0.228v-4.332c0-0.342,0.228-0.57,0.57-0.57c0.342,0,0.57,0.228,0.57,0.57v1.254
			c0.912-1.14,2.394-1.824,3.876-1.824c2.85,0,5.131,2.28,5.131,5.131v6.841c0,0.342-0.228,0.57-0.57,0.57
			c-0.342,0-0.57-0.228-0.57-0.57v-6.841H507.546z"/>
	</g>
	<path fill="#989392" d="M32.2,353.318l-8.8-0.5l-2.4-2.7l-5-1.5l3.5,4l-3.5-0.3l-2-0.1l0,0l-1.5-0.1l1.9-4.2l-1.3-0.5l-10.5,22.9
		l1.1,0.6l0,0l7.7-16.5l1.5,0.1l0,0l4.5,0.2l4.1,0.2l8.6,10.3l-5.7,21.1l1.4,1.4l9-33.8L32.2,353.318z"/>
	<path fill="#0D0C0D" d="M62.6,292.918l-9.9,17.7c0,0-8.2,13.9-9.4,15.5c-1.1,1.6-5.8,9.4-12,9.2c-6.3-0.2-13.2-3.9-14.4-4.5
		c-1.3-0.7-5-2.8-9-4.7c-4-1.9-12.4-2.8-12.4-2.8l-0.9,6.7c0.8,2,3,5.1,4.9,7.7c1.9,2.6,5.6,5.5,5.6,5.5c4.2,3.4,11.1,5.6,11.1,5.6
		l35.3,10.2l4.8-0.3c0,0,3.3,0.2,8.4-5.2s6.5-15.5,6.7-16.7c0.2-1.3,2.6-11.4,2.8-12.4c0.2-0.9,3.5-13.9,3.8-14.8
		c0.2-0.9,4-14.2,4-14.2l-1.3-1.3L62.6,292.918z"/>
	<polyline fill="#0D0C0D" points="27.4,387.518 36,356.018 58.4,362.618 61.3,369.518 63.1,370.018 63.5,368.718 59.2,357.818 
		56.8,358.618 57.5,360.818 34.7,353.918 25.6,387.718 	"/>
	<path fill="none" stroke="#000000" stroke-width="6.2853" stroke-miterlimit="10" d="M23.6,353.818"/>
	<path fill="none" stroke="#000000" stroke-width="6.2853" stroke-miterlimit="10" d="M25.4,356.018"/>
	<polygon fill="#FFFFFF" points="25.9,355.218 31,361.218 32.6,355.518 	"/>
	<path stroke="#000000" stroke-width="6.2853" stroke-miterlimit="10" d="M27,359.818"/>
	<path fill="none" d="M13.9,354.518"/>
	<g>
		<polygon fill="#0D0C0D" points="15.7,348.518 14.4,348.018 12.4,352.218 13.9,352.218 		"/>
		<polygon fill="#0D0C0D" points="3.7,371.018 5.2,371.118 12.7,354.518 11.4,354.418 		"/>
		<polygon fill="#0D0C0D" points="24.7,355.118 30.6,362.318 31,361.118 25.9,355.218 		"/>
		<polyline fill="#0D0C0D" points="22.6,352.718 19.9,349.618 21.2,350.118 23.5,352.818 22.6,352.718 		"/>
	</g>
	<g>
		<polygon fill="#0D0C0D" points="12.4,352.218 13.9,352.218 15.7,348.518 14.4,348.018 		"/>
		<polygon fill="#0D0C0D" points="25.9,355.218 24.7,355.118 30.6,362.318 31,361.118 		"/>
		<polygon fill="#0D0C0D" points="19.9,349.618 22.6,352.718 23.5,352.818 21.2,350.118 		"/>
	</g>
	<g>
		<polygon fill="none" points="31,361.218 32.6,355.518 25.9,355.218 		"/>
		<polygon fill="none" points="31,361.218 32.6,355.518 25.9,355.218 		"/>
		<path fill="none" d="M12.9,354.518l4.4,0.2L12.9,354.518z"/>
	</g>
	<path fill="#989392" d="M80.7,294.218c0,0-3.9,13-4.1,13.9c-0.3,0.9-3.6,14-3.9,14.9c-0.2,0.9-1.5,5.7-1.7,6.9c0,0-1.4,5.7-1.8,7
		c-0.3,1.4-1.9,9.7-6.5,10.5c-4.6,0.8-7.7-4.7-11.1-5.8c-2.4-0.7-5.9-0.6-7-0.7l-1,4.5h1c2.4,0.2,3.5-0.3,5.8,0.5
		c2.3,0.7,7.3,5.3,11.7,5.2s7-5.7,7.4-6.6c0.3-0.9,1-3.1,1-3.4c0.1-0.3,3.1-13.6,3.4-15.3c0.3-1.6,4.7-18.4,5.1-19.9
		c0.5-1.5,3-10.6,3-10.6"/>
	<path fill="#989392" d="M44.6,341.018c0,0-4.5-0.7-8.6,0c-4,0.7-11.9,3.8-17.6,3.4c-5.7-0.3-8.9-2.5-10.6-3.5s-4.5-3.3-6-5
		c-0.7-0.8-3-3.4-3.3-4.1c-0.5-0.7-1.1-1.5-2-3.8s-1-4.8-1-4.8l-0.9,6.8c0,0,1,1.9,2.2,3.9c1,1.7,2.4,3.5,2.8,4.2
		c0.7,1,2.3,2.7,4.4,4.4c1.6,1.4,3.6,2.4,5.6,3.4c4.5,2.4,8.6,3.3,14.5,2.6s7.7-2.2,11-2.6c3.3-0.3,5.9-0.7,8.3-0.3L44.6,341.018
		C44.2,341.018,44.6,341.018,44.6,341.018z"/>
	<line fill="none" stroke="#231F20" stroke-width="1.257" stroke-miterlimit="10" x1="43.6" y1="346.518" x2="44.8" y2="340.718"/>
	<g>
		<path d="M171.782,339.871h-7.691v-17.566h-15.631v17.566h-7.691v-39.648h7.691v15.73h15.631v-15.73h7.691V339.871z"/>
		<path d="M208.429,325.53c0,2.15-0.397,4.144-1.191,5.979s-1.886,3.424-3.275,4.764c-1.39,1.34-3.02,2.399-4.888,3.176
			c-1.869,0.777-3.863,1.166-5.979,1.166c-2.117,0-4.102-0.389-5.955-1.166c-1.853-0.776-3.474-1.844-4.863-3.2
			c-1.39-1.356-2.481-2.953-3.275-4.789s-1.191-3.812-1.191-5.93c0-2.084,0.405-4.044,1.216-5.881c0.81-1.836,1.911-3.439,3.3-4.813
			c1.39-1.372,3.01-2.447,4.863-3.225c1.852-0.777,3.821-1.167,5.905-1.167c2.117,0,4.11,0.39,5.979,1.167
			c1.869,0.777,3.499,1.836,4.888,3.176c1.389,1.34,2.481,2.936,3.275,4.788C208.032,321.428,208.429,323.413,208.429,325.53z
			 M201.284,325.53c0-1.224-0.215-2.365-0.644-3.424s-1.014-1.985-1.756-2.779c-0.742-0.794-1.608-1.414-2.597-1.86
			c-0.989-0.447-2.045-0.67-3.166-0.67s-2.177,0.223-3.167,0.67c-0.989,0.446-1.855,1.066-2.597,1.86
			c-0.742,0.794-1.328,1.721-1.756,2.779s-0.643,2.2-0.643,3.424s0.214,2.365,0.643,3.424c0.429,1.06,1.014,1.985,1.756,2.779
			c0.742,0.794,1.608,1.414,2.597,1.86s2.045,0.67,3.167,0.67s2.177-0.224,3.166-0.67s1.855-1.066,2.597-1.86
			c0.742-0.794,1.328-1.72,1.756-2.779C201.069,327.895,201.284,326.754,201.284,325.53z"/>
		<rect x="184.095" y="302.61" width="18.371" height="5.289"/>
		<path d="M254.8,339.871h-7.146v-17.12c0-2.018-0.488-3.548-1.464-4.59c-0.976-1.042-2.175-1.563-3.598-1.563
			c-1.091,0-2.126,0.174-3.101,0.521c-0.976,0.348-1.928,0.918-2.854,1.712c0.298,1.158,0.447,2.465,0.447,3.92v17.12h-7.146v-17.12
			c0-2.018-0.488-3.548-1.464-4.59c-0.976-1.042-2.158-1.563-3.548-1.563c-1.092,0-2.052,0.191-2.878,0.571
			c-0.828,0.381-1.688,0.984-2.581,1.811v20.892h-7.146v-28.682h7.146l0.008,2.134c0.894-0.86,1.946-1.555,3.154-2.085
			c1.209-0.528,2.442-0.794,3.702-0.794c1.391,0,2.79,0.315,4.198,0.943c1.408,0.629,2.642,1.538,3.702,2.729
			c1.49-1.323,2.997-2.266,4.52-2.829c1.524-0.562,3.196-0.844,5.018-0.844c1.49,0,2.907,0.224,4.249,0.67
			c1.341,0.447,2.508,1.159,3.502,2.134c0.994,0.977,1.788,2.217,2.384,3.722c0.596,1.506,0.895,3.317,0.895,5.435V339.871z"/>
		<path d="M302.438,339.871h-7.295v-1.488c-0.926,0.761-1.935,1.314-3.026,1.662s-2.25,0.521-3.474,0.521
			c-2.019,0-3.871-0.405-5.558-1.216c-1.688-0.81-3.144-1.901-4.367-3.274c-1.225-1.373-2.176-2.969-2.854-4.789
			c-0.678-1.818-1.017-3.737-1.017-5.756c0-2.15,0.388-4.144,1.166-5.979c0.776-1.836,1.811-3.432,3.102-4.789
			c1.29-1.355,2.762-2.423,4.416-3.2c1.653-0.777,3.357-1.166,5.111-1.166c1.224,0,2.414,0.166,3.572,0.496
			c1.158,0.331,2.15,0.794,2.978,1.39v-13.597h7.245V339.871z M295.242,332.179v-13.795c-0.332-0.231-0.714-0.455-1.146-0.67
			c-0.433-0.215-0.881-0.397-1.345-0.546c-0.466-0.149-0.93-0.265-1.396-0.348c-0.465-0.082-0.88-0.124-1.245-0.124
			c-1.195,0-2.282,0.207-3.263,0.62c-0.979,0.414-1.834,1.01-2.564,1.786c-0.73,0.778-1.295,1.713-1.693,2.804
			c-0.398,1.092-0.598,2.3-0.598,3.623c0,1.29,0.199,2.474,0.598,3.548c0.398,1.075,0.946,2.002,1.644,2.779
			s1.535,1.381,2.516,1.811c0.979,0.431,2.05,0.646,3.212,0.646C291.855,334.313,293.614,333.602,295.242,332.179z"/>
		<path d="M337.394,321.208c0.13,0.445,0.239,0.912,0.33,1.403c0.092,0.49,0.179,0.999,0.263,1.525l-22.014,6.401
			c0.484,0.721,1.061,1.371,1.73,1.951c0.668,0.582,1.412,1.037,2.232,1.367c0.819,0.33,1.693,0.525,2.623,0.581
			c0.93,0.058,1.903-0.062,2.92-0.358c1.239-0.36,2.415-0.935,3.53-1.724c1.114-0.789,1.977-1.668,2.591-2.64l5.597,3.075
			c-1.49,1.984-3.063,3.536-4.718,4.654c-1.657,1.119-3.5,1.974-5.533,2.565c-2.065,0.6-4.105,0.781-6.122,0.54
			c-2.016-0.24-3.873-0.82-5.57-1.739c-1.697-0.919-3.183-2.15-4.458-3.691c-1.275-1.541-2.203-3.313-2.785-5.314
			c-0.582-2.001-0.748-3.994-0.499-5.979c0.25-1.985,0.853-3.822,1.808-5.512c0.956-1.69,2.211-3.175,3.769-4.455
			c1.556-1.279,3.352-2.215,5.385-2.806c1.937-0.563,3.9-0.746,5.887-0.548s3.848,0.733,5.584,1.606
			c1.735,0.874,3.256,2.076,4.563,3.608C335.812,317.249,336.776,319.08,337.394,321.208z M329.423,320.631
			c-1.049-1.589-2.418-2.715-4.109-3.379c-1.691-0.661-3.411-0.739-5.158-0.231c-1.715,0.499-3.101,1.479-4.158,2.94
			c-1.056,1.462-1.6,3.145-1.632,5.048L329.423,320.631z"/>
		<path d="M384.463,316.845h-3.027c0.761,1.489,1.142,3.077,1.142,4.765c0,1.29-0.24,2.539-0.72,3.746
			c-0.479,1.208-1.166,2.308-2.06,3.3c-0.893,0.992-1.977,1.836-3.25,2.531c-1.273,0.694-2.704,1.158-4.292,1.389
			c-1.092,0.166-1.911,0.422-2.457,0.77c-0.545,0.348-0.818,0.694-0.818,1.042s0.273,0.67,0.818,0.968
			c0.546,0.298,1.365,0.496,2.457,0.596c3.704,0.331,6.575,1.258,8.609,2.778c2.034,1.521,3.052,3.54,3.052,6.055
			c0,1.29-0.313,2.48-0.939,3.572c-0.627,1.092-1.524,2.035-2.694,2.829s-2.579,1.405-4.228,1.836
			c-1.648,0.43-3.494,0.645-5.537,0.645c-2.077,0-3.948-0.215-5.611-0.645c-1.665-0.431-3.091-1.035-4.277-1.812
			c-1.187-0.777-2.093-1.712-2.719-2.804c-0.627-1.092-0.939-2.3-0.939-3.622c0-1.985,0.566-3.647,1.699-4.987
			s2.979-2.34,5.54-3.002c-0.794-0.298-1.364-0.703-1.712-1.216c-0.347-0.513-0.505-1.034-0.471-1.563
			c0.032-0.529,0.256-1.033,0.67-1.514c0.413-0.479,1.001-0.852,1.764-1.116c-0.867-0.397-1.691-0.909-2.475-1.538
			c-0.783-0.628-1.491-1.356-2.123-2.184c-0.633-0.827-1.133-1.753-1.499-2.779c-0.367-1.024-0.55-2.116-0.55-3.274
			c0-1.555,0.33-3.011,0.992-4.367c0.661-1.356,1.555-2.539,2.68-3.548c1.124-1.009,2.432-1.803,3.92-2.382
			c1.489-0.579,3.06-0.869,4.715-0.869c1.62,0,3.126,0.249,4.516,0.745h9.825V316.845z M376.772,344.784
			c0-1.159-0.586-2.002-1.755-2.531c-1.17-0.529-2.678-0.794-4.522-0.794c-1.978,0-3.535,0.28-4.672,0.844
			c-1.137,0.562-1.705,1.39-1.705,2.481c0,1.124,0.594,1.968,1.779,2.53c1.187,0.562,2.719,0.844,4.598,0.844
			c1.91,0,3.435-0.273,4.571-0.819C376.202,346.794,376.772,345.941,376.772,344.784z M375.432,321.61
			c0-0.728-0.14-1.406-0.418-2.035c-0.279-0.628-0.656-1.183-1.131-1.662s-1.032-0.86-1.672-1.142
			c-0.639-0.28-1.318-0.422-2.039-0.422c-0.722,0-1.393,0.142-2.016,0.422c-0.623,0.281-1.172,0.662-1.646,1.142
			c-0.476,0.479-0.853,1.034-1.131,1.662c-0.279,0.629-0.418,1.308-0.418,2.035s0.139,1.414,0.418,2.059
			c0.278,0.646,0.655,1.208,1.131,1.688c0.475,0.479,1.023,0.86,1.646,1.142s1.294,0.422,2.016,0.422c0.721,0,1.4-0.141,2.039-0.422
			c0.64-0.281,1.197-0.662,1.672-1.142s0.852-1.042,1.131-1.688C375.292,323.024,375.432,322.337,375.432,321.61z"/>
		<path d="M417.562,325.53c0,2.15-0.397,4.144-1.191,5.979s-1.886,3.424-3.275,4.764c-1.389,1.34-3.019,2.399-4.888,3.176
			c-1.869,0.777-3.862,1.166-5.979,1.166s-4.103-0.389-5.954-1.166c-1.854-0.776-3.474-1.844-4.863-3.2s-2.481-2.953-3.275-4.789
			s-1.19-3.812-1.19-5.93c0-2.084,0.404-4.044,1.215-5.881c0.811-1.836,1.911-3.439,3.301-4.813c1.389-1.372,3.01-2.447,4.862-3.225
			s3.821-1.167,5.905-1.167c2.117,0,4.11,0.39,5.979,1.167s3.499,1.836,4.888,3.176c1.39,1.34,2.481,2.936,3.275,4.788
			C417.164,321.428,417.562,323.413,417.562,325.53z M410.415,325.53c0-1.224-0.214-2.365-0.644-3.424
			c-0.429-1.059-1.014-1.985-1.756-2.779s-1.608-1.414-2.598-1.86c-0.989-0.447-2.044-0.67-3.165-0.67s-2.178,0.223-3.167,0.67
			c-0.989,0.446-1.855,1.066-2.598,1.86s-1.327,1.721-1.756,2.779s-0.643,2.2-0.643,3.424s0.214,2.365,0.643,3.424
			c0.429,1.06,1.014,1.985,1.756,2.779s1.608,1.414,2.598,1.86s2.046,0.67,3.167,0.67s2.176-0.224,3.165-0.67
			s1.855-1.066,2.598-1.86s1.327-1.72,1.756-2.779C410.201,327.895,410.415,326.754,410.415,325.53z"/>
		<path d="M447.333,339.871h-7.146v-2.184c-0.464,0.464-1.001,0.868-1.612,1.216c-0.612,0.348-1.258,0.646-1.936,0.894
			c-0.679,0.248-1.373,0.438-2.084,0.57c-0.712,0.132-1.382,0.198-2.01,0.198c-1.456,0-2.854-0.231-4.193-0.694
			s-2.522-1.174-3.548-2.134c-1.025-0.959-1.845-2.199-2.456-3.722c-0.612-1.521-0.918-3.325-0.918-5.409v-17.417h7.146v17.07
			c0,1.025,0.156,1.927,0.472,2.704c0.313,0.777,0.727,1.423,1.24,1.936c0.513,0.513,1.108,0.893,1.786,1.141
			s1.381,0.372,2.109,0.372c2.315,0,4.317-0.794,6.004-2.382v-20.841h7.146V339.871z"/>
		<rect x="425.196" y="302.61" width="18.371" height="5.289"/>
		<path d="M469.366,339.225c-0.729,0.464-1.572,0.811-2.531,1.043c-0.96,0.23-1.919,0.347-2.878,0.347
			c-1.688,0-3.109-0.207-4.268-0.62s-2.084-1.05-2.778-1.91c-0.695-0.86-1.2-1.952-1.514-3.275
			c-0.315-1.323-0.472-2.878-0.472-4.664V317.59h-3.771v-3.226c2.315-0.959,4.193-2.382,5.633-4.268
			c1.438-1.886,2.423-4.334,2.952-7.345h2.332v8.387h7.245v6.451h-7.245v13.051c0,0.728,0.091,1.323,0.273,1.786
			c0.181,0.464,0.422,0.827,0.72,1.092c0.297,0.265,0.636,0.446,1.017,0.546c0.38,0.099,0.785,0.148,1.216,0.148
			c0.562,0,1.24-0.099,2.034-0.298c0.795-0.198,1.472-0.528,2.035-0.992V339.225z"/>
	</g>
</g>
</svg>
