<?xml version="1.0" encoding="utf-8"?>
<!-- Generator: Adobe Illustrator 17.0.0, SVG Export Plug-In . SVG Version: 6.00 Build 0)  -->
<!DOCTYPE svg PUBLIC "-//W3C//DTD SVG 1.1//EN" "http://www.w3.org/Graphics/SVG/1.1/DTD/svg11.dtd">
<svg version="1.1" xmlns="http://www.w3.org/2000/svg" xmlns:xlink="http://www.w3.org/1999/xlink" x="0px" y="0px"
	 width="513.579px" height="122.994px" viewBox="-21.2 279.979 513.579 122.994"
	 enable-background="new -21.2 279.979 513.579 122.994" xml:space="preserve">
<g id="Calque_1">
</g>
<g id="Calque_1_-_copie">
</g>
<g id="Calque_1_-_copie_2">
	
		<line fill="none" stroke="#000000" stroke-linecap="round" stroke-linejoin="round" stroke-miterlimit="10" x1="111.9" y1="385.618" x2="111.9" y2="294.618"/>
	<g enable-background="new    ">
		<path fill="#231F20" d="M155.048,367.061l-5.203,7.141c-0.102,0.204-0.306,0.204-0.51,0.204l0,0c-0.204,0-0.408-0.102-0.51-0.204
			l-5.203-7.141v13.262c0,0.306-0.204,0.51-0.51,0.51s-0.612-0.204-0.612-0.51v-14.894c0-0.204,0.102-0.306,0.204-0.408l0,0
			c0.204-0.204,0.612-0.102,0.816,0.102l5.713,7.957l5.713-7.957c0.204-0.204,0.51-0.306,0.816-0.102
			c0.102,0.102,0.102,0.102,0.204,0.204c0,0.102,0.102,0.204,0.102,0.306v14.894c0,0.306-0.204,0.51-0.51,0.51
			c-0.306,0-0.51-0.204-0.51-0.51V367.061z"/>
		<path fill="#231F20" d="M166.575,369.611c2.958,0,5.305,2.55,5.305,5.611c0,3.06-2.346,5.611-5.305,5.611s-5.305-2.55-5.305-5.611
			C161.271,372.161,163.617,369.611,166.575,369.611z M166.575,379.812c2.346,0,4.285-2.04,4.285-4.591
			c0-2.55-1.938-4.591-4.285-4.591s-4.285,2.04-4.285,4.591C162.393,377.772,164.331,379.812,166.575,379.812z"/>
		<path fill="#231F20" d="M176.164,375.528v-0.204v-0.306v-9.691c0-0.306,0.204-0.51,0.51-0.51s0.612,0.204,0.612,0.51v6.529
			c1.02-1.326,2.55-2.244,4.387-2.244c3.06,0,5.509,2.55,5.509,5.713c0,3.06-2.448,5.611-5.509,5.611
			c-1.734,0-3.366-0.816-4.387-2.142v1.632c0,0.306-0.204,0.51-0.612,0.51c-0.306,0-0.51-0.204-0.51-0.51V375.528z M177.287,375.222
			c0,2.448,1.938,4.489,4.387,4.489c2.448,0,4.387-2.04,4.387-4.489c0-2.55-1.938-4.591-4.387-4.591
			c-2.346,0-4.285,1.938-4.387,4.387V375.222z"/>
		<path fill="#231F20" d="M191.467,366.448c0-0.306,0.204-0.51,0.51-0.51s0.612,0.204,0.612,0.51v0.51
			c0,0.306-0.204,0.612-0.612,0.612c-0.306,0-0.51-0.306-0.51-0.612V366.448z M191.467,370.121c0-0.306,0.204-0.51,0.51-0.51
			s0.612,0.204,0.612,0.51v10.201c0,0.306-0.204,0.51-0.612,0.51c-0.306,0-0.51-0.204-0.51-0.51V370.121z"/>
		<path fill="#231F20" d="M197.587,365.326c0-0.306,0.204-0.51,0.51-0.51s0.612,0.204,0.612,0.51v14.996
			c0,0.306-0.204,0.51-0.612,0.51c-0.306,0-0.51-0.204-0.51-0.51V365.326z"/>
		<path fill="#231F20" d="M203.198,366.448c0-0.306,0.204-0.51,0.51-0.51s0.612,0.204,0.612,0.51v0.51
			c0,0.306-0.204,0.612-0.612,0.612c-0.306,0-0.51-0.306-0.51-0.612V366.448z M203.198,370.121c0-0.306,0.204-0.51,0.51-0.51
			s0.612,0.204,0.612,0.51v10.201c0,0.306-0.204,0.51-0.612,0.51c-0.306,0-0.51-0.204-0.51-0.51V370.121z"/>
		<path fill="#231F20" d="M208.809,375.222c0-3.162,2.448-5.713,5.509-5.713c2.856,0,5.203,2.346,5.407,5.305l0,0v0.102
			c0,0.306-0.204,0.51-0.51,0.51h-9.283c0.102,2.448,2.04,4.387,4.387,4.387c1.53,0,2.856-0.816,3.673-2.04
			c0.204-0.306,0.51-0.306,0.714-0.204c0.204,0.204,0.306,0.51,0.204,0.816c-0.918,1.53-2.652,2.55-4.591,2.55
			C211.257,380.934,208.809,378.384,208.809,375.222z M210.033,374.406h8.569c-0.408-2.142-2.142-3.672-4.285-3.672
			C212.175,370.733,210.441,372.263,210.033,374.406z"/>
		<path fill="#231F20" d="M223.193,370.223c0-0.306,0.204-0.51,0.612-0.51c0.306,0,0.51,0.204,0.51,0.51v2.448
			c0-0.102,0.102-0.204,0.204-0.306c0.816-1.326,2.346-2.754,4.489-2.754c0.306,0,0.51,0.204,0.51,0.51
			c0,0.306-0.204,0.51-0.51,0.51c-1.428,0-2.448,0.816-3.264,1.836c-0.714,1.02-1.224,2.142-1.326,2.652c0,0.102,0,0.102,0,0.204
			v4.999c0,0.306-0.204,0.51-0.51,0.51s-0.612-0.204-0.612-0.51v-10.099H223.193z"/>
		<path fill="#231F20" d="M249.308,378.69c-1.02,1.326-2.55,2.142-4.387,2.142c-3.06,0-5.509-2.55-5.509-5.611
			c0-3.162,2.448-5.713,5.509-5.713c1.734,0,3.366,0.918,4.387,2.244v-6.529c0-0.306,0.204-0.51,0.612-0.51
			c0.306,0,0.51,0.204,0.51,0.51v9.793v0.204v5.101c0,0.306-0.204,0.51-0.51,0.51s-0.612-0.204-0.612-0.51V378.69z M249.308,375.426
			v-0.408c-0.102-2.448-2.04-4.387-4.387-4.387s-4.387,2.04-4.387,4.591c0,2.448,1.938,4.489,4.387,4.489
			C247.268,379.812,249.206,377.874,249.308,375.426z"/>
		<path fill="#231F20" d="M254.307,375.222c0-3.162,2.448-5.713,5.509-5.713c2.856,0,5.203,2.346,5.407,5.305l0,0v0.102
			c0,0.306-0.204,0.51-0.51,0.51h-9.283c0.102,2.448,2.04,4.387,4.387,4.387c1.53,0,2.856-0.816,3.672-2.04
			c0.204-0.306,0.51-0.306,0.714-0.204c0.204,0.204,0.306,0.51,0.204,0.816c-0.918,1.53-2.652,2.55-4.591,2.55
			C256.755,380.934,254.307,378.384,254.307,375.222z M255.531,374.406h8.569c-0.408-2.142-2.142-3.672-4.285-3.672
			C257.673,370.733,255.939,372.263,255.531,374.406z"/>
		<path fill="#231F20" d="M268.385,378.588c0.204-0.204,0.51-0.306,0.816-0.102c0.816,0.612,2.04,1.326,3.468,1.326
			c0.918,0,1.632-0.306,2.142-0.714s0.816-0.918,0.816-1.428c0-0.51-0.204-0.918-0.816-1.428c-0.51-0.408-1.326-0.612-2.448-0.816
			l0,0c-1.02-0.204-1.938-0.408-2.55-0.918c-0.714-0.408-1.224-1.122-1.224-2.04s0.51-1.632,1.224-2.244
			c0.714-0.51,1.632-0.714,2.754-0.714c1.428,0,2.448,0.714,3.366,1.224c0.204,0.204,0.306,0.51,0.204,0.816
			c-0.204,0.204-0.51,0.306-0.714,0.204c-0.816-0.51-1.632-1.122-2.754-1.122c-0.918,0-1.632,0.204-2.142,0.612
			s-0.714,0.816-0.714,1.326s0.204,0.816,0.612,1.122c0.51,0.306,1.224,0.612,2.346,0.816l0,0c1.122,0.204,1.938,0.51,2.754,0.918
			c0.714,0.51,1.224,1.326,1.224,2.346c0,0.918-0.51,1.734-1.326,2.244c-0.816,0.612-1.734,0.918-2.856,0.918
			c-1.836,0-3.264-0.918-4.183-1.632C268.283,379.098,268.181,378.792,268.385,378.588z"/>
		<path fill="#231F20" d="M280.524,366.448c0-0.306,0.204-0.51,0.51-0.51s0.612,0.204,0.612,0.51v0.51
			c0,0.306-0.204,0.612-0.612,0.612c-0.306,0-0.51-0.306-0.51-0.612V366.448z M280.524,370.121c0-0.306,0.204-0.51,0.51-0.51
			s0.612,0.204,0.612,0.51v10.201c0,0.306-0.204,0.51-0.612,0.51c-0.306,0-0.51-0.204-0.51-0.51V370.121z"/>
		<path fill="#231F20" d="M296.847,380.016c0,2.958-2.346,5.305-5.305,5.305c-0.816,0-1.632-0.204-2.346-0.51
			c-0.204-0.204-0.408-0.51-0.204-0.714c0.102-0.306,0.51-0.408,0.714-0.204c0.612,0.306,1.122,0.408,1.836,0.408
			c2.346,0,4.183-1.836,4.183-4.183v-1.428c-0.918,1.326-2.448,2.244-4.183,2.244c-2.958,0-5.305-2.55-5.305-5.611
			c0-3.06,2.346-5.611,5.305-5.611c1.734,0,3.264,0.918,4.183,2.244v-1.632c0-0.306,0.204-0.51,0.612-0.51
			c0.306,0,0.51,0.204,0.51,0.51V380.016z M295.826,375.222c0-2.55-1.938-4.489-4.183-4.489c-2.346,0-4.183,1.938-4.183,4.489
			c0,2.55,1.938,4.591,4.183,4.591C293.888,379.71,295.826,377.772,295.826,375.222z"/>
		<path fill="#231F20" d="M310.312,374.202c0-1.938-1.53-3.468-3.468-3.468c-1.938,0-3.468,1.53-3.468,3.468v6.121v0.102
			c0,0.102,0,0.204-0.102,0.204c-0.102,0.102-0.204,0.204-0.408,0.204h-0.102c-0.204,0-0.306-0.204-0.408-0.306c0,0,0,0,0-0.102
			s0,0,0,0v-0.102v-6.121v-0.204v-3.877c0-0.306,0.204-0.51,0.51-0.51s0.51,0.204,0.51,0.51v1.122
			c0.816-1.02,2.142-1.632,3.468-1.632c2.55,0,4.591,2.04,4.591,4.591v6.121c0,0.306-0.204,0.51-0.51,0.51s-0.51-0.204-0.51-0.51
			v-6.121H310.312z"/>
		<path fill="#231F20" d="M322.452,375.222c0-3.162,2.448-5.713,5.509-5.713c2.856,0,5.203,2.346,5.407,5.305l0,0v0.102
			c0,0.306-0.204,0.51-0.51,0.51h-9.283c0.102,2.448,2.04,4.387,4.387,4.387c1.53,0,2.856-0.816,3.672-2.04
			c0.204-0.306,0.51-0.306,0.714-0.204c0.204,0.204,0.306,0.51,0.204,0.816c-1.02,1.53-2.652,2.55-4.591,2.55
			C324.9,380.934,322.452,378.384,322.452,375.222z M323.676,374.406h8.569c-0.408-2.142-2.142-3.672-4.285-3.672
			C325.818,370.733,324.084,372.263,323.676,374.406z"/>
		<path fill="#231F20" d="M340.406,370.121c0,0.306-0.306,0.51-0.51,0.51h-1.428v8.263c0,0.51,0.51,0.816,0.816,0.816
			s0.612,0.306,0.612,0.612c0,0.306-0.306,0.51-0.612,0.51c-1.122,0-1.938-0.816-1.938-1.938v-8.263h-1.53
			c-0.51,0-0.51-0.306-0.51-0.51c0-0.204,0-0.51,0.51-0.51h1.428v-4.183c0-0.306,0.306-0.51,0.51-0.51
			c0.306,0,0.612,0.306,0.612,0.51v4.183h1.428C340.1,369.611,340.406,369.917,340.406,370.121z"/>
		<path fill="#231F20" d="M361.625,378.69c-1.02,1.326-2.55,2.142-4.387,2.142c-3.06,0-5.509-2.55-5.509-5.611
			c0-3.162,2.448-5.713,5.509-5.713c1.734,0,3.366,0.918,4.387,2.244v-6.529c0-0.306,0.204-0.51,0.612-0.51
			c0.306,0,0.51,0.204,0.51,0.51v9.793v0.204v5.101c0,0.306-0.204,0.51-0.51,0.51s-0.612-0.204-0.612-0.51V378.69z M361.625,375.426
			v-0.408c-0.102-2.448-2.04-4.387-4.387-4.387s-4.387,2.04-4.387,4.591c0,2.448,1.938,4.489,4.387,4.489
			C359.585,379.812,361.523,377.874,361.625,375.426z"/>
		<path fill="#231F20" d="M372.439,380.934c-3.06,0-5.509-2.55-5.509-5.611c0-3.162,2.448-5.713,5.509-5.713
			c2.856,0,5.203,2.346,5.407,5.305l0,0v0.102c0,0.306-0.204,0.51-0.51,0.51h-9.283c0.102,2.448,2.04,4.387,4.387,4.387
			c1.53,0,2.856-0.816,3.673-2.04c0.204-0.306,0.51-0.306,0.714-0.204c0.204,0.204,0.306,0.51,0.204,0.816
			C376.111,379.914,374.377,380.934,372.439,380.934z M372.439,370.733c-2.142,0-3.876,1.53-4.285,3.672h8.569
			C376.315,372.263,374.581,370.733,372.439,370.733z M371.215,367.775c0.306,0,0.51,0,0.714-0.306l1.836-1.734
			c0.102-0.102,0.204-0.306,0.204-0.408c0-0.204-0.51-0.51-0.918-0.51c-0.306,0-0.51,0.102-0.612,0.408l-1.428,2.142
			c0,0.102-0.102,0.204-0.102,0.204C370.909,367.673,371.011,367.775,371.215,367.775z"/>
		<path fill="#231F20" d="M381.008,375.222c0-3.162,2.55-5.611,5.815-5.611c1.326,0,2.652,0.51,3.57,1.224
			c0.204,0.204,0.306,0.51,0.102,0.714c-0.204,0.204-0.51,0.306-0.714,0.102c-0.816-0.612-1.836-1.02-2.856-1.02
			c-2.652,0-4.693,2.04-4.693,4.591c0,2.55,2.04,4.591,4.693,4.591c1.122,0,2.142-0.408,2.856-1.02
			c0.204-0.204,0.612-0.102,0.714,0.102c0.204,0.204,0.204,0.612-0.102,0.816c-0.918,0.714-2.244,1.224-3.57,1.224
			C383.66,380.934,381.008,378.384,381.008,375.222z"/>
		<path fill="#231F20" d="M399.472,369.611c2.958,0,5.305,2.55,5.305,5.611c0,3.06-2.346,5.611-5.305,5.611s-5.305-2.55-5.305-5.611
			C394.168,372.161,396.514,369.611,399.472,369.611z M399.472,379.812c2.346,0,4.285-2.04,4.285-4.591
			c0-2.55-1.938-4.591-4.285-4.591s-4.285,2.04-4.285,4.591C395.29,377.772,397.228,379.812,399.472,379.812z"/>
		<path fill="#231F20" d="M408.654,370.223c0-0.306,0.204-0.51,0.612-0.51c0.306,0,0.51,0.204,0.51,0.51v2.448
			c0-0.102,0.102-0.204,0.204-0.306c0.816-1.326,2.346-2.754,4.489-2.754c0.306,0,0.51,0.204,0.51,0.51
			c0,0.306-0.204,0.51-0.51,0.51c-1.428,0-2.448,0.816-3.264,1.836c-0.714,1.02-1.224,2.142-1.326,2.652c0,0.102,0,0.102,0,0.204
			v4.999c0,0.306-0.204,0.51-0.51,0.51s-0.612-0.204-0.612-0.51v-10.099H408.654z"/>
		<path fill="#231F20" d="M427.628,370.121v10.201c0,0.306-0.204,0.51-0.51,0.51s-0.51-0.204-0.51-0.51v-1.632
			c-0.918,1.326-2.55,2.244-4.285,2.244c-2.958,0-5.305-2.55-5.305-5.611c0-3.06,2.346-5.611,5.305-5.611
			c1.734,0,3.264,0.918,4.285,2.244v-1.632c0-0.306,0.204-0.51,0.51-0.51C427.424,369.611,427.628,369.815,427.628,370.121z
			 M426.506,375.222c0-2.55-1.938-4.591-4.285-4.591s-4.285,2.04-4.285,4.591c0,2.55,1.938,4.591,4.285,4.591
			C424.67,379.812,426.506,377.772,426.506,375.222z"/>
		<path fill="#231F20" d="M436.401,370.121c0,0.306-0.306,0.51-0.51,0.51h-1.428v8.263c0,0.51,0.51,0.816,0.816,0.816
			c0.306,0,0.612,0.306,0.612,0.612c0,0.306-0.306,0.51-0.612,0.51c-1.122,0-1.938-0.816-1.938-1.938v-8.263h-1.428
			c-0.51,0-0.51-0.306-0.51-0.51c0-0.204,0-0.51,0.51-0.51h1.428v-4.183c0-0.306,0.306-0.51,0.51-0.51
			c0.306,0,0.612,0.306,0.612,0.51v4.183h1.428C436.095,369.611,436.401,369.917,436.401,370.121z"/>
		<path fill="#231F20" d="M441.706,366.448c0-0.306,0.204-0.51,0.51-0.51s0.612,0.204,0.612,0.51v0.51
			c0,0.306-0.204,0.612-0.612,0.612c-0.306,0-0.51-0.306-0.51-0.612V366.448z M441.706,370.121c0-0.306,0.204-0.51,0.51-0.51
			s0.612,0.204,0.612,0.51v10.201c0,0.306-0.204,0.51-0.612,0.51c-0.306,0-0.51-0.204-0.51-0.51V370.121z"/>
		<path fill="#231F20" d="M453.029,369.611c2.958,0,5.305,2.55,5.305,5.611c0,3.06-2.346,5.611-5.305,5.611
			c-2.958,0-5.305-2.55-5.305-5.611C447.623,372.161,450.071,369.611,453.029,369.611z M453.029,379.812
			c2.346,0,4.285-2.04,4.285-4.591c0-2.55-1.938-4.591-4.285-4.591c-2.346,0-4.285,2.04-4.285,4.591
			C448.745,377.772,450.683,379.812,453.029,379.812z"/>
		<path fill="#231F20" d="M470.678,374.202c0-1.938-1.53-3.468-3.468-3.468s-3.468,1.53-3.468,3.468v6.121v0.102
			c0,0.102,0,0.204-0.102,0.204c-0.102,0.102-0.204,0.204-0.408,0.204h-0.102c-0.204,0-0.306-0.204-0.408-0.306c0,0,0,0,0-0.102
			s0,0,0,0v-0.102v-6.121v-0.204v-3.877c0-0.306,0.204-0.51,0.51-0.51s0.51,0.204,0.51,0.51v1.122
			c0.816-1.02,2.142-1.632,3.468-1.632c2.55,0,4.591,2.04,4.591,4.591v6.121c0,0.306-0.204,0.51-0.51,0.51s-0.51-0.204-0.51-0.51
			v-6.121H470.678z"/>
	</g>
	<path fill="#989392" d="M32.2,353.318l-8.8-0.5l-2.4-2.7l-5-1.5l3.5,4l-3.5-0.3l-2-0.1l0,0l-1.5-0.1l1.9-4.2l-1.3-0.5l-10.5,22.9
		l1.1,0.6l0,0l7.7-16.5l1.5,0.1l0,0l4.5,0.2l4.1,0.2l8.6,10.3l-5.7,21.1l1.4,1.4l9-33.8L32.2,353.318z"/>
	<path fill="#0D0C0D" d="M62.6,292.918l-9.9,17.7c0,0-8.2,13.9-9.4,15.5c-1.1,1.6-5.8,9.4-12,9.2c-6.3-0.2-13.2-3.9-14.4-4.5
		c-1.3-0.7-5-2.8-9-4.7c-4-1.9-12.4-2.8-12.4-2.8l-0.9,6.7c0.8,2,3,5.1,4.9,7.7c1.9,2.6,5.6,5.5,5.6,5.5c4.2,3.4,11.1,5.6,11.1,5.6
		l35.3,10.2l4.8-0.3c0,0,3.3,0.2,8.4-5.2s6.5-15.5,6.7-16.7c0.2-1.3,2.6-11.4,2.8-12.4c0.2-0.9,3.5-13.9,3.8-14.8
		c0.2-0.9,4-14.2,4-14.2l-1.3-1.3L62.6,292.918z"/>
	<polyline fill="#0D0C0D" points="27.4,387.518 36,356.018 58.4,362.618 61.3,369.518 63.1,370.018 63.5,368.718 59.2,357.818 
		56.8,358.618 57.5,360.818 34.7,353.918 25.6,387.718 	"/>
	<path fill="none" stroke="#000000" stroke-width="6.2853" stroke-miterlimit="10" d="M23.6,353.818"/>
	<path fill="none" stroke="#000000" stroke-width="6.2853" stroke-miterlimit="10" d="M25.4,356.018"/>
	<polygon fill="#FFFFFF" points="25.9,355.218 31,361.218 32.6,355.518 	"/>
	<path stroke="#000000" stroke-width="6.2853" stroke-miterlimit="10" d="M27,359.818"/>
	<path fill="none" d="M13.9,354.518"/>
	<g>
		<polygon fill="#0D0C0D" points="15.7,348.518 14.4,348.018 12.4,352.218 13.9,352.218 		"/>
		<polygon fill="#0D0C0D" points="3.7,371.018 5.2,371.118 12.7,354.518 11.4,354.418 		"/>
		<polygon fill="#0D0C0D" points="24.7,355.118 30.6,362.318 31,361.118 25.9,355.218 		"/>
		<polyline fill="#0D0C0D" points="22.6,352.718 19.9,349.618 21.2,350.118 23.5,352.818 22.6,352.718 		"/>
	</g>
	<g>
		<polygon fill="#0D0C0D" points="12.4,352.218 13.9,352.218 15.7,348.518 14.4,348.018 		"/>
		<polygon fill="#0D0C0D" points="25.9,355.218 24.7,355.118 30.6,362.318 31,361.118 		"/>
		<polygon fill="#0D0C0D" points="19.9,349.618 22.6,352.718 23.5,352.818 21.2,350.118 		"/>
	</g>
	<g>
		<polygon fill="none" points="31,361.218 32.6,355.518 25.9,355.218 		"/>
		<polygon fill="none" points="31,361.218 32.6,355.518 25.9,355.218 		"/>
		<path fill="none" d="M12.9,354.518l4.4,0.2L12.9,354.518z"/>
	</g>
	<path fill="#989392" d="M80.7,294.218c0,0-3.9,13-4.1,13.9c-0.3,0.9-3.6,14-3.9,14.9c-0.2,0.9-1.5,5.7-1.7,6.9c0,0-1.4,5.7-1.8,7
		c-0.3,1.4-1.9,9.7-6.5,10.5c-4.6,0.8-7.7-4.7-11.1-5.8c-2.4-0.7-5.9-0.6-7-0.7l-1,4.5h1c2.4,0.2,3.5-0.3,5.8,0.5
		c2.3,0.7,7.3,5.3,11.7,5.2s7-5.7,7.4-6.6c0.3-0.9,1-3.1,1-3.4c0.1-0.3,3.1-13.6,3.4-15.3c0.3-1.6,4.7-18.4,5.1-19.9
		c0.5-1.5,3-10.6,3-10.6"/>
	<path fill="#989392" d="M44.6,341.018c0,0-4.5-0.7-8.6,0c-4,0.7-11.9,3.8-17.6,3.4c-5.7-0.3-8.9-2.5-10.6-3.5s-4.5-3.3-6-5
		c-0.7-0.8-3-3.4-3.3-4.1c-0.5-0.7-1.1-1.5-2-3.8s-1-4.8-1-4.8l-0.9,6.8c0,0,1,1.9,2.2,3.9c1,1.7,2.4,3.5,2.8,4.2
		c0.7,1,2.3,2.7,4.4,4.4c1.6,1.4,3.6,2.4,5.6,3.4c4.5,2.4,8.6,3.3,14.5,2.6s7.7-2.2,11-2.6c3.3-0.3,5.9-0.7,8.3-0.3L44.6,341.018
		C44.2,341.018,44.6,341.018,44.6,341.018z"/>
	<line fill="none" stroke="#231F20" stroke-width="1.257" stroke-miterlimit="10" x1="43.6" y1="346.518" x2="44.8" y2="340.718"/>
	<g>
		<path d="M171.782,339.871h-7.691v-17.566h-15.631v17.566h-7.691v-39.648h7.691v15.73h15.631v-15.73h7.691V339.871z"/>
		<path d="M208.429,325.53c0,2.15-0.397,4.144-1.191,5.979s-1.886,3.424-3.275,4.764c-1.39,1.34-3.02,2.399-4.888,3.176
			c-1.869,0.777-3.863,1.166-5.979,1.166c-2.117,0-4.102-0.389-5.955-1.166c-1.853-0.776-3.474-1.844-4.863-3.2
			c-1.39-1.356-2.481-2.953-3.275-4.789s-1.191-3.812-1.191-5.93c0-2.084,0.405-4.044,1.216-5.881c0.81-1.836,1.911-3.439,3.3-4.813
			c1.39-1.372,3.01-2.447,4.863-3.225c1.852-0.777,3.821-1.167,5.905-1.167c2.117,0,4.11,0.39,5.979,1.167
			c1.869,0.777,3.499,1.836,4.888,3.176c1.389,1.34,2.481,2.936,3.275,4.788C208.032,321.428,208.429,323.413,208.429,325.53z
			 M201.284,325.53c0-1.224-0.215-2.365-0.644-3.424s-1.014-1.985-1.756-2.779c-0.742-0.794-1.608-1.414-2.597-1.86
			c-0.989-0.447-2.045-0.67-3.166-0.67s-2.177,0.223-3.167,0.67c-0.989,0.446-1.855,1.066-2.597,1.86
			c-0.742,0.794-1.328,1.721-1.756,2.779s-0.643,2.2-0.643,3.424s0.214,2.365,0.643,3.424c0.429,1.06,1.014,1.985,1.756,2.779
			c0.742,0.794,1.608,1.414,2.597,1.86s2.045,0.67,3.167,0.67s2.177-0.224,3.166-0.67s1.855-1.066,2.597-1.86
			c0.742-0.794,1.328-1.72,1.756-2.779C201.069,327.895,201.284,326.754,201.284,325.53z"/>
		<path d="M254.8,339.871h-7.146v-17.12c0-2.018-0.488-3.548-1.464-4.59c-0.976-1.042-2.175-1.563-3.598-1.563
			c-1.091,0-2.126,0.174-3.101,0.521c-0.976,0.348-1.928,0.918-2.854,1.712c0.298,1.158,0.447,2.465,0.447,3.92v17.12h-7.146v-17.12
			c0-2.018-0.488-3.548-1.464-4.59c-0.976-1.042-2.158-1.563-3.548-1.563c-1.092,0-2.052,0.191-2.878,0.571
			c-0.828,0.381-1.688,0.984-2.581,1.811v20.892h-7.146v-28.682h7.146l0.008,2.134c0.894-0.86,1.946-1.555,3.154-2.085
			c1.209-0.528,2.442-0.794,3.702-0.794c1.391,0,2.79,0.315,4.198,0.943c1.408,0.629,2.642,1.538,3.702,2.729
			c1.49-1.323,2.997-2.266,4.52-2.829c1.524-0.562,3.196-0.844,5.018-0.844c1.49,0,2.907,0.224,4.249,0.67
			c1.341,0.447,2.508,1.159,3.502,2.134c0.994,0.977,1.788,2.217,2.384,3.722c0.596,1.506,0.895,3.317,0.895,5.435V339.871z"/>
		<path d="M302.438,339.871h-7.295v-1.488c-0.926,0.761-1.935,1.314-3.026,1.662s-2.25,0.521-3.474,0.521
			c-2.019,0-3.871-0.405-5.558-1.216c-1.688-0.81-3.144-1.901-4.367-3.274c-1.225-1.373-2.176-2.969-2.854-4.789
			c-0.678-1.818-1.017-3.737-1.017-5.756c0-2.15,0.388-4.144,1.166-5.979c0.776-1.836,1.811-3.432,3.102-4.789
			c1.29-1.355,2.762-2.423,4.416-3.2c1.653-0.777,3.357-1.166,5.111-1.166c1.224,0,2.414,0.166,3.572,0.496
			c1.158,0.331,2.15,0.794,2.978,1.39v-13.597h7.245V339.871z M295.242,332.179v-13.795c-0.332-0.231-0.714-0.455-1.146-0.67
			c-0.433-0.215-0.881-0.397-1.345-0.546c-0.466-0.149-0.93-0.265-1.396-0.348c-0.465-0.082-0.88-0.124-1.245-0.124
			c-1.195,0-2.282,0.207-3.263,0.62c-0.979,0.414-1.834,1.01-2.564,1.786c-0.73,0.778-1.295,1.713-1.693,2.804
			c-0.398,1.092-0.598,2.3-0.598,3.623c0,1.29,0.199,2.474,0.598,3.548c0.398,1.075,0.946,2.002,1.644,2.779
			s1.535,1.381,2.516,1.811c0.979,0.431,2.05,0.646,3.212,0.646C291.855,334.313,293.614,333.602,295.242,332.179z"/>
		<path d="M337.394,321.208c0.13,0.445,0.239,0.912,0.33,1.403c0.092,0.49,0.179,0.999,0.263,1.525l-22.014,6.401
			c0.484,0.721,1.061,1.371,1.73,1.951c0.668,0.582,1.412,1.037,2.232,1.367c0.819,0.33,1.693,0.525,2.623,0.581
			c0.93,0.058,1.903-0.062,2.92-0.358c1.239-0.36,2.415-0.935,3.53-1.724c1.114-0.789,1.977-1.668,2.591-2.64l5.597,3.075
			c-1.49,1.984-3.063,3.536-4.718,4.654c-1.657,1.119-3.5,1.974-5.533,2.565c-2.065,0.6-4.105,0.781-6.122,0.54
			c-2.016-0.24-3.873-0.82-5.57-1.739c-1.697-0.919-3.183-2.15-4.458-3.691c-1.275-1.541-2.203-3.313-2.785-5.314
			c-0.582-2.001-0.748-3.994-0.499-5.979c0.25-1.985,0.853-3.822,1.808-5.512c0.956-1.69,2.211-3.175,3.769-4.455
			c1.556-1.279,3.352-2.215,5.385-2.806c1.937-0.563,3.9-0.746,5.887-0.548s3.848,0.733,5.584,1.606
			c1.735,0.874,3.256,2.076,4.563,3.608C335.812,317.249,336.776,319.08,337.394,321.208z M329.423,320.631
			c-1.049-1.589-2.418-2.715-4.109-3.379c-1.691-0.661-3.411-0.739-5.158-0.231c-1.715,0.499-3.101,1.479-4.158,2.94
			c-1.056,1.462-1.6,3.145-1.632,5.048L329.423,320.631z"/>
		<path d="M384.463,316.845h-3.027c0.761,1.489,1.142,3.077,1.142,4.765c0,1.29-0.24,2.539-0.72,3.746
			c-0.479,1.208-1.166,2.308-2.06,3.3c-0.893,0.992-1.977,1.836-3.25,2.531c-1.273,0.694-2.704,1.158-4.292,1.389
			c-1.092,0.166-1.911,0.422-2.457,0.77c-0.545,0.348-0.818,0.694-0.818,1.042s0.273,0.67,0.818,0.968
			c0.546,0.298,1.365,0.496,2.457,0.596c3.704,0.331,6.575,1.258,8.609,2.778c2.034,1.521,3.052,3.54,3.052,6.055
			c0,1.29-0.313,2.48-0.939,3.572c-0.627,1.092-1.524,2.035-2.694,2.829s-2.579,1.405-4.228,1.836
			c-1.648,0.43-3.494,0.645-5.537,0.645c-2.077,0-3.948-0.215-5.611-0.645c-1.665-0.431-3.091-1.035-4.277-1.812
			c-1.187-0.777-2.093-1.712-2.719-2.804c-0.627-1.092-0.939-2.3-0.939-3.622c0-1.985,0.566-3.647,1.699-4.987
			s2.979-2.34,5.54-3.002c-0.794-0.298-1.364-0.703-1.712-1.216c-0.347-0.513-0.505-1.034-0.471-1.563
			c0.032-0.529,0.256-1.033,0.67-1.514c0.413-0.479,1.001-0.852,1.764-1.116c-0.867-0.397-1.691-0.909-2.475-1.538
			c-0.783-0.628-1.491-1.356-2.123-2.184c-0.633-0.827-1.133-1.753-1.499-2.779c-0.367-1.024-0.55-2.116-0.55-3.274
			c0-1.555,0.33-3.011,0.992-4.367c0.661-1.356,1.555-2.539,2.68-3.548c1.124-1.009,2.432-1.803,3.92-2.382
			c1.489-0.579,3.06-0.869,4.715-0.869c1.62,0,3.126,0.249,4.516,0.745h9.825V316.845z M376.772,344.784
			c0-1.159-0.586-2.002-1.755-2.531c-1.17-0.529-2.678-0.794-4.522-0.794c-1.978,0-3.535,0.28-4.672,0.844
			c-1.137,0.562-1.705,1.39-1.705,2.481c0,1.124,0.594,1.968,1.779,2.53c1.187,0.562,2.719,0.844,4.598,0.844
			c1.91,0,3.435-0.273,4.571-0.819C376.202,346.794,376.772,345.941,376.772,344.784z M375.432,321.61
			c0-0.728-0.14-1.406-0.418-2.035c-0.279-0.628-0.656-1.183-1.131-1.662s-1.032-0.86-1.672-1.142
			c-0.639-0.28-1.318-0.422-2.039-0.422c-0.722,0-1.393,0.142-2.016,0.422c-0.623,0.281-1.172,0.662-1.646,1.142
			c-0.476,0.479-0.853,1.034-1.131,1.662c-0.279,0.629-0.418,1.308-0.418,2.035s0.139,1.414,0.418,2.059
			c0.278,0.646,0.655,1.208,1.131,1.688c0.475,0.479,1.023,0.86,1.646,1.142s1.294,0.422,2.016,0.422c0.721,0,1.4-0.141,2.039-0.422
			c0.64-0.281,1.197-0.662,1.672-1.142s0.852-1.042,1.131-1.688C375.292,323.024,375.432,322.337,375.432,321.61z"/>
		<path d="M417.562,325.53c0,2.15-0.397,4.144-1.191,5.979s-1.886,3.424-3.275,4.764c-1.389,1.34-3.019,2.399-4.888,3.176
			c-1.869,0.777-3.862,1.166-5.979,1.166s-4.103-0.389-5.954-1.166c-1.854-0.776-3.474-1.844-4.863-3.2s-2.481-2.953-3.275-4.789
			s-1.19-3.812-1.19-5.93c0-2.084,0.404-4.044,1.215-5.881c0.811-1.836,1.911-3.439,3.301-4.813c1.389-1.372,3.01-2.447,4.862-3.225
			s3.821-1.167,5.905-1.167c2.117,0,4.11,0.39,5.979,1.167s3.499,1.836,4.888,3.176c1.39,1.34,2.481,2.936,3.275,4.788
			C417.164,321.428,417.562,323.413,417.562,325.53z M410.415,325.53c0-1.224-0.214-2.365-0.644-3.424
			c-0.429-1.059-1.014-1.985-1.756-2.779s-1.608-1.414-2.598-1.86c-0.989-0.447-2.044-0.67-3.165-0.67s-2.178,0.223-3.167,0.67
			c-0.989,0.446-1.855,1.066-2.598,1.86s-1.327,1.721-1.756,2.779s-0.643,2.2-0.643,3.424s0.214,2.365,0.643,3.424
			c0.429,1.06,1.014,1.985,1.756,2.779s1.608,1.414,2.598,1.86s2.046,0.67,3.167,0.67s2.176-0.224,3.165-0.67
			s1.855-1.066,2.598-1.86s1.327-1.72,1.756-2.779C410.201,327.895,410.415,326.754,410.415,325.53z"/>
		<path d="M447.333,339.871h-7.146v-2.184c-0.464,0.464-1.001,0.868-1.612,1.216c-0.612,0.348-1.258,0.646-1.936,0.894
			c-0.679,0.248-1.373,0.438-2.084,0.57c-0.712,0.132-1.382,0.198-2.01,0.198c-1.456,0-2.854-0.231-4.193-0.694
			s-2.522-1.174-3.548-2.134c-1.025-0.959-1.845-2.199-2.456-3.722c-0.612-1.521-0.918-3.325-0.918-5.409v-17.417h7.146v17.07
			c0,1.025,0.156,1.927,0.472,2.704c0.313,0.777,0.727,1.423,1.24,1.936c0.513,0.513,1.108,0.893,1.786,1.141
			s1.381,0.372,2.109,0.372c2.315,0,4.317-0.794,6.004-2.382v-20.841h7.146V339.871z M443.86,307.616h-5.359l-4.219-4.218
			l-4.268,4.218h-5.358l6.401-9.577h6.401L443.86,307.616z"/>
		<path d="M469.366,339.225c-0.729,0.464-1.572,0.811-2.531,1.043c-0.96,0.23-1.919,0.347-2.878,0.347
			c-1.688,0-3.109-0.207-4.268-0.62s-2.084-1.05-2.778-1.91c-0.695-0.86-1.2-1.952-1.514-3.275
			c-0.315-1.323-0.472-2.878-0.472-4.664V317.59h-3.771v-3.226c2.315-0.959,4.193-2.382,5.633-4.268
			c1.438-1.886,2.423-4.334,2.952-7.345h2.332v8.387h7.245v6.451h-7.245v13.051c0,0.728,0.091,1.323,0.273,1.786
			c0.181,0.464,0.422,0.827,0.72,1.092c0.297,0.265,0.636,0.446,1.017,0.546c0.38,0.099,0.785,0.148,1.216,0.148
			c0.562,0,1.24-0.099,2.034-0.298c0.795-0.198,1.472-0.528,2.035-0.992V339.225z"/>
	</g>
	<rect x="421.8" y="296.65" fill="#FFFFFF" width="26" height="14.25"/>
	<rect x="184.095" y="302.61" width="18.371" height="5.289"/>
	<rect x="425.196" y="302.61" width="18.371" height="5.289"/>
</g>
</svg>
