<?xml version="1.0" encoding="utf-8"?>
<!-- Generator: Adobe Illustrator 17.0.0, SVG Export Plug-In . SVG Version: 6.00 Build 0)  -->
<!DOCTYPE svg PUBLIC "-//W3C//DTD SVG 1.1//EN" "http://www.w3.org/Graphics/SVG/1.1/DTD/svg11.dtd">
<svg version="1.1" id="Calque_1" xmlns="http://www.w3.org/2000/svg" xmlns:xlink="http://www.w3.org/1999/xlink" x="0px" y="0px"
	 width="538.6px" height="119.8px" viewBox="0 0 538.6 119.8" enable-background="new 0 0 538.6 119.8" xml:space="preserve">
<g>
	<path fill="#000100" d="M219.901,44.9c0,2.2-0.4,4.3-1.2,6.2s-1.9,3.5-3.4,4.9c-1.4,1.4-3.1,2.5-5,3.3s-4,1.2-6.2,1.2
		s-4.2-0.4-6.1-1.2s-3.6-1.9-5-3.3c-1.4-1.4-2.6-3-3.4-4.9c-0.8-1.9-1.2-3.9-1.2-6.1c0-2.1,0.4-4.2,1.3-6.1c0.8-1.9,2-3.5,3.4-5
		c1.4-1.4,3.1-2.5,5-3.3s3.9-1.2,6.1-1.2c2.2,0,4.2,0.4,6.2,1.2c1.9,0.8,3.6,1.9,5,3.3c1.4,1.4,2.6,3,3.4,4.9
		C219.501,40.7,219.901,42.7,219.901,44.9z M212.501,44.9c0-1.3-0.2-2.4-0.7-3.5c-0.4-1.1-1-2-1.8-2.9c-0.8-0.8-1.7-1.5-2.7-1.9
		c-1-0.5-2.1-0.7-3.3-0.7s-2.2,0.2-3.3,0.7c-1,0.5-1.9,1.1-2.7,1.9c-0.8,0.8-1.4,1.8-1.8,2.9c-0.4,1.1-0.7,2.3-0.7,3.5
		c0,1.3,0.2,2.4,0.7,3.5c0.4,1.1,1,2,1.8,2.9c0.8,0.8,1.7,1.5,2.7,1.9c1,0.5,2.1,0.7,3.3,0.7s2.2-0.2,3.3-0.7c1-0.5,1.9-1.1,2.7-1.9
		c0.8-0.8,1.4-1.8,1.8-2.9C212.301,47.3,212.501,46.2,212.501,44.9z"/>
	<path fill="#000100" d="M268.301,59.7h-7.4V42c0-2.1-0.5-3.7-1.5-4.7c-1-1.1-2.2-1.6-3.7-1.6c-1.1,0-2.2,0.2-3.2,0.5
		c-1,0.4-2,0.9-2.9,1.8c0.3,1.2,0.5,2.5,0.5,4v17.6h-7.4V42c0-2.1-0.5-3.7-1.5-4.7c-1-1.1-2.2-1.6-3.7-1.6c-1.1,0-2.1,0.2-3,0.6
		c-0.9,0.4-1.7,1-2.7,1.9v21.5h-7.4V30.1h7.4v2.2c0.9-0.9,2-1.6,3.3-2.1c1.2-0.5,2.5-0.8,3.8-0.8c1.4,0,2.9,0.3,4.3,1
		c1.5,0.6,2.7,1.6,3.8,2.8c1.5-1.4,3.1-2.3,4.7-2.9c1.6-0.6,3.3-0.9,5.2-0.9c1.5,0,3,0.2,4.4,0.7s2.6,1.2,3.6,2.2s1.8,2.3,2.5,3.8
		c0.6,1.6,0.9,3.4,0.9,5.6L268.301,59.7L268.301,59.7z"/>
	<path fill="#000100" d="M302.601,37.5c0.2,0.4,0.4,0.9,0.6,1.3c0.2,0.5,0.4,1,0.6,1.5l-20.9,11c0.6,0.6,1.4,1.2,2.1,1.6
		c0.8,0.4,1.6,0.8,2.5,0.9c0.9,0.2,1.8,0.2,2.8,0c1-0.1,1.9-0.5,2.9-1c1.2-0.6,2.2-1.4,3.2-2.5c1-1,1.7-2.1,2.1-3.2l6.3,2
		c-1.1,2.3-2.4,4.2-3.8,5.7s-3.1,2.7-5.1,3.7s-4,1.6-6.1,1.8s-4.1,0-6-0.6s-3.7-1.5-5.3-2.8c-1.6-1.3-2.9-2.9-3.9-4.8
		c-1-1.9-1.6-3.9-1.7-5.9c-0.2-2.1,0.1-4,0.7-5.9s1.6-3.7,2.9-5.3s2.9-2.9,4.9-3.9c1.8-1,3.8-1.6,5.8-1.8c2-0.2,4-0.1,6,0.5
		c1.9,0.5,3.7,1.4,5.4,2.7C300.201,33.9,301.501,35.5,302.601,37.5z M294.401,38.6c-1.4-1.4-3-2.2-4.8-2.6c-1.8-0.3-3.6,0-5.3,0.8
		c-1.6,0.9-2.8,2.1-3.6,3.8c-0.8,1.7-1,3.5-0.6,5.4L294.401,38.6z"/>
	<path fill="#000100" d="M352.601,59.7h-7.6v-1.5c-1,0.8-2,1.4-3.1,1.7c-1.1,0.4-2.3,0.5-3.6,0.5c-2.1,0-4-0.4-5.7-1.3
		c-1.7-0.8-3.2-2-4.5-3.4s-2.2-3.1-2.9-4.9c-0.7-1.9-1-3.9-1-5.9c0-2.2,0.4-4.3,1.2-6.2s1.9-3.5,3.2-4.9c1.3-1.4,2.8-2.5,4.6-3.3
		c1.7-0.8,3.5-1.2,5.3-1.2c1.3,0,2.5,0.2,3.7,0.5s2.2,0.8,3.1,1.4v-14h7.5v42.5C352.801,59.7,352.601,59.7,352.601,59.7z
		 M345.101,51.8V37.5c-0.3-0.2-0.7-0.5-1.2-0.7c-0.4-0.2-0.9-0.4-1.4-0.6c-0.5-0.2-1-0.3-1.4-0.4c-0.5-0.1-0.9-0.1-1.3-0.1
		c-1.2,0-2.4,0.2-3.4,0.6c-1,0.4-1.9,1-2.6,1.8c-0.8,0.8-1.3,1.8-1.7,2.9c-0.4,1.1-0.6,2.4-0.6,3.7s0.2,2.5,0.6,3.7
		c0.4,1.1,1,2.1,1.7,2.9c0.7,0.8,1.6,1.4,2.6,1.9c1,0.4,2.1,0.7,3.3,0.7C341.701,54,343.501,53.2,345.101,51.8z"/>
	<path fill="#000100" d="M387.301,37.4c0.2,0.4,0.4,0.9,0.6,1.3c0.2,0.5,0.4,1,0.6,1.5l-20.8,11.2c0.6,0.6,1.4,1.2,2.2,1.6
		c0.8,0.4,1.6,0.7,2.5,0.9s1.8,0.2,2.8,0c0.9-0.1,1.9-0.5,2.9-1c1.2-0.6,2.2-1.5,3.2-2.5s1.6-2.1,2-3.2l6.3,1.9
		c-1.1,2.3-2.3,4.2-3.8,5.7c-1.4,1.5-3.1,2.7-5,3.8c-2,1-4,1.7-6.1,1.9s-4.1,0-6-0.6s-3.7-1.5-5.3-2.8c-1.6-1.3-2.9-2.9-3.9-4.8
		c-1-1.9-1.6-3.9-1.8-5.9c-0.2-2.1,0-4,0.6-5.9s1.6-3.7,2.8-5.3c1.3-1.6,2.9-3,4.8-4c1.8-1,3.8-1.6,5.8-1.8c2-0.2,4-0.1,6,0.4
		c1.9,0.5,3.7,1.4,5.4,2.7C384.901,33.7,386.301,35.4,387.301,37.4z M379.201,38.5c-1.4-1.4-3-2.2-4.9-2.5c-1.8-0.3-3.6,0-5.3,0.9
		c-1.6,0.9-2.8,2.2-3.6,3.9c-0.8,1.7-0.9,3.5-0.6,5.4L379.201,38.5z"/>
	<path fill="#000100" d="M437.101,36h-3.1c0.8,1.5,1.2,3.2,1.2,4.9c0,1.3-0.2,2.6-0.7,3.9c-0.5,1.2-1.2,2.4-2.1,3.4s-2,1.9-3.4,2.6
		c-1.3,0.7-2.8,1.2-4.4,1.4c-1.1,0.2-2,0.4-2.5,0.8c-0.6,0.4-0.8,0.7-0.8,1.1c0,0.4,0.3,0.7,0.8,1c0.6,0.3,1.4,0.5,2.5,0.6
		c3.8,0.3,6.8,1.3,8.9,2.9c2.1,1.6,3.1,3.6,3.1,6.2c0,1.3-0.3,2.6-1,3.7c-0.6,1.1-1.6,2.1-2.8,2.9c-1.2,0.8-2.7,1.4-4.4,1.9
		c-1.7,0.4-3.6,0.7-5.7,0.7s-4.1-0.2-5.8-0.7c-1.7-0.4-3.2-1.1-4.4-1.9c-1.2-0.8-2.2-1.8-2.8-2.9c-0.6-1.1-1-2.4-1-3.7
		c0-2,0.6-3.8,1.8-5.1c1.2-1.4,3.1-2.4,5.7-3.1c-0.8-0.3-1.4-0.7-1.8-1.3c-0.4-0.5-0.5-1.1-0.5-1.6s0.3-1.1,0.7-1.6
		c0.4-0.5,1-0.9,1.8-1.2c-0.9-0.4-1.7-0.9-2.6-1.6c-0.8-0.6-1.5-1.4-2.2-2.2c-0.7-0.9-1.2-1.8-1.5-2.9c-0.4-1.1-0.6-2.2-0.6-3.4
		c0-1.6,0.3-3.1,1-4.5s1.6-2.6,2.8-3.7c1.2-1,2.5-1.9,4-2.5s3.2-0.9,4.9-0.9c1.7,0,3.2,0.3,4.7,0.8h10.1L437.101,36L437.101,36z
		 M429.201,64.7c0-1.2-0.6-2.1-1.8-2.6c-1.2-0.5-2.8-0.8-4.7-0.8c-2,0-3.6,0.3-4.8,0.9c-1.2,0.6-1.8,1.4-1.8,2.6
		c0,1.2,0.6,2,1.8,2.6c1.2,0.6,2.8,0.9,4.7,0.9c2,0,3.5-0.3,4.7-0.8C428.601,66.8,429.201,65.9,429.201,64.7z M427.801,40.9
		c0-0.7-0.1-1.4-0.4-2.1c-0.3-0.6-0.7-1.2-1.2-1.7s-1.1-0.9-1.7-1.2c-0.7-0.3-1.4-0.4-2.1-0.4s-1.4,0.1-2.1,0.4
		c-0.6,0.3-1.2,0.7-1.7,1.2s-0.9,1.1-1.2,1.7c-0.3,0.6-0.4,1.3-0.4,2.1s0.1,1.5,0.4,2.1c0.3,0.7,0.7,1.2,1.2,1.7s1.1,0.9,1.7,1.2
		s1.3,0.4,2.1,0.4c0.7,0,1.4-0.1,2.1-0.4c0.7-0.3,1.2-0.7,1.7-1.2s0.9-1.1,1.2-1.7C427.701,42.3,427.801,41.6,427.801,40.9z"/>
	<path fill="#000100" d="M471.301,44.9c0,2.2-0.4,4.3-1.2,6.2c-0.8,1.9-1.9,3.5-3.4,4.9c-1.4,1.4-3.1,2.5-5,3.3s-4,1.2-6.2,1.2
		s-4.2-0.4-6.1-1.2s-3.6-1.9-5-3.3c-1.4-1.4-2.6-3-3.4-4.9s-1.2-3.9-1.2-6.1c0-2.1,0.4-4.2,1.3-6.1c0.8-1.9,2-3.5,3.4-5
		c1.4-1.4,3.1-2.5,5-3.3s3.9-1.2,6.1-1.2s4.2,0.4,6.2,1.2c1.9,0.8,3.6,1.9,5,3.3c1.4,1.4,2.6,3,3.4,4.9
		C470.801,40.7,471.301,42.7,471.301,44.9z M463.901,44.9c0-1.3-0.2-2.4-0.7-3.5c-0.4-1.1-1-2-1.8-2.9c-0.8-0.8-1.7-1.5-2.7-1.9
		c-1-0.5-2.1-0.7-3.3-0.7c-1.2,0-2.2,0.2-3.3,0.7c-1,0.5-1.9,1.1-2.7,1.9c-0.8,0.8-1.4,1.8-1.8,2.9c-0.4,1.1-0.7,2.3-0.7,3.5
		c0,1.3,0.2,2.4,0.7,3.5c0.4,1.1,1,2,1.8,2.9c0.8,0.8,1.7,1.5,2.7,1.9c1,0.5,2.1,0.7,3.3,0.7c1.2,0,2.2-0.2,3.3-0.7
		c1-0.5,1.9-1.1,2.7-1.9c0.8-0.8,1.4-1.8,1.8-2.9C463.701,47.3,463.901,46.2,463.901,44.9z"/>
	<path fill="#000100" d="M502.101,59.7h-7.4v-2.2c-0.5,0.5-1,0.9-1.7,1.3c-0.6,0.4-1.3,0.7-2,0.9c-0.7,0.3-1.4,0.5-2.1,0.6
		s-1.4,0.2-2.1,0.2c-1.5,0-2.9-0.2-4.3-0.7s-2.6-1.2-3.7-2.2s-1.9-2.3-2.5-3.8c-0.6-1.6-0.9-3.4-0.9-5.6V30.1h7.4v17.6
		c0,1.1,0.2,2,0.5,2.8s0.7,1.5,1.3,2c0.5,0.5,1.1,0.9,1.8,1.2c0.7,0.3,1.4,0.4,2.2,0.4c2.4,0,4.5-0.8,6.2-2.5V30.1h7.4L502.101,59.7
		L502.101,59.7z M498.501,26.4h-5.5l-4.3-4.3l-4.4,4.3h-5.5l6.6-9.9h6.6L498.501,26.4z"/>
	<path fill="#000100" d="M524.701,59c-0.8,0.5-1.6,0.8-2.6,1.1c-1,0.2-2,0.4-3,0.4c-1.7,0-3.2-0.2-4.4-0.6c-1.2-0.4-2.1-1.1-2.9-2
		c-0.7-0.9-1.2-2-1.6-3.4c-0.3-1.4-0.5-3-0.5-4.8v-13h-3.9v-3.3c2.4-1,4.3-2.5,5.8-4.4c1.5-1.9,2.5-4.5,3-7.6h2.4V30h7.5v6.6h-7.5
		V50c0,0.8,0.1,1.4,0.3,1.8c0.2,0.5,0.4,0.9,0.7,1.1c0.3,0.3,0.7,0.5,1,0.6c0.4,0.1,0.8,0.2,1.3,0.2c0.6,0,1.3-0.1,2.1-0.3
		s1.5-0.5,2.1-1V59H524.701z"/>
</g>
<line fill="none" stroke="#000000" stroke-linecap="round" stroke-linejoin="round" stroke-miterlimit="10" x1="124.901" y1="105.6" x2="124.901" y2="14.6"/>
<g enable-background="new    ">
	<path fill="#231F20" d="M167.801,87.2l-5.1,7c-0.1,0.2-0.3,0.2-0.5,0.2l0,0c-0.2,0-0.4-0.1-0.5-0.2l-5.1-7v13
		c0,0.3-0.2,0.5-0.5,0.5s-0.6-0.2-0.6-0.5V85.6c0-0.2,0.1-0.3,0.2-0.4l0,0c0.2-0.2,0.6-0.1,0.8,0.1l5.6,7.8l5.6-7.8
		c0.2-0.2,0.5-0.3,0.8-0.1c0.1,0.1,0.1,0.1,0.2,0.2c0,0.1,0.1,0.2,0.1,0.3v14.6c0,0.3-0.2,0.5-0.5,0.5s-0.5-0.2-0.5-0.5V87.2z"/>
	<path fill="#231F20" d="M179.101,89.7c2.9,0,5.2,2.5,5.2,5.5s-2.3,5.5-5.2,5.5s-5.2-2.5-5.2-5.5S176.201,89.7,179.101,89.7z
		 M179.101,99.7c2.3,0,4.2-2,4.2-4.5s-1.9-4.5-4.2-4.5s-4.2,2-4.2,4.5C175.001,97.7,176.901,99.7,179.101,99.7z"/>
	<path fill="#231F20" d="M188.501,95.5v-0.2V95v-9.5c0-0.3,0.2-0.5,0.5-0.5s0.6,0.2,0.6,0.5v6.4c1-1.3,2.5-2.2,4.3-2.2
		c3,0,5.4,2.5,5.4,5.6c0,3-2.4,5.5-5.4,5.5c-1.7,0-3.3-0.8-4.3-2.1v1.6c0,0.3-0.2,0.5-0.6,0.5c-0.3,0-0.5-0.2-0.5-0.5V95.5z
		 M189.601,95.2c0,2.4,1.9,4.4,4.3,4.4c2.4,0,4.3-2,4.3-4.4c0-2.5-1.9-4.5-4.3-4.5c-2.3,0-4.2,1.9-4.3,4.3V95.2z"/>
	<path fill="#231F20" d="M203.501,86.6c0-0.3,0.2-0.5,0.5-0.5s0.6,0.2,0.6,0.5v0.5c0,0.3-0.2,0.6-0.6,0.6c-0.3,0-0.5-0.3-0.5-0.6
		V86.6z M203.501,90.2c0-0.3,0.2-0.5,0.5-0.5s0.6,0.2,0.6,0.5v10c0,0.3-0.2,0.5-0.6,0.5c-0.3,0-0.5-0.2-0.5-0.5V90.2z"/>
	<path fill="#231F20" d="M209.501,85.5c0-0.3,0.2-0.5,0.5-0.5s0.6,0.2,0.6,0.5v14.7c0,0.3-0.2,0.5-0.6,0.5c-0.3,0-0.5-0.2-0.5-0.5
		V85.5z"/>
	<path fill="#231F20" d="M215.001,86.6c0-0.3,0.2-0.5,0.5-0.5s0.6,0.2,0.6,0.5v0.5c0,0.3-0.2,0.6-0.6,0.6c-0.3,0-0.5-0.3-0.5-0.6
		V86.6z M215.001,90.2c0-0.3,0.2-0.5,0.5-0.5s0.6,0.2,0.6,0.5v10c0,0.3-0.2,0.5-0.6,0.5c-0.3,0-0.5-0.2-0.5-0.5V90.2z"/>
	<path fill="#231F20" d="M220.501,95.2c0-3.1,2.4-5.6,5.4-5.6c2.8,0,5.1,2.3,5.3,5.2l0,0v0.1c0,0.3-0.2,0.5-0.5,0.5h-9.1
		c0.1,2.4,2,4.3,4.3,4.3c1.5,0,2.8-0.8,3.6-2c0.2-0.3,0.5-0.3,0.7-0.2c0.2,0.2,0.3,0.5,0.2,0.8c-0.9,1.5-2.6,2.5-4.5,2.5
		C222.901,100.8,220.501,98.3,220.501,95.2z M221.701,94.4h8.4c-0.4-2.1-2.1-3.6-4.2-3.6S222.101,92.3,221.701,94.4z"/>
	<path fill="#231F20" d="M234.601,90.3c0-0.3,0.2-0.5,0.6-0.5c0.3,0,0.5,0.2,0.5,0.5v2.4c0-0.1,0.1-0.2,0.2-0.3
		c0.8-1.3,2.3-2.7,4.4-2.7c0.3,0,0.5,0.2,0.5,0.5s-0.2,0.5-0.5,0.5c-1.4,0-2.4,0.8-3.2,1.8c-0.7,1-1.2,2.1-1.3,2.6
		c0,0.1,0,0.1,0,0.2v4.9c0,0.3-0.2,0.5-0.5,0.5s-0.6-0.2-0.6-0.5v-9.9H234.601z"/>
	<path fill="#231F20" d="M260.201,98.6c-1,1.3-2.5,2.1-4.3,2.1c-3,0-5.4-2.5-5.4-5.5c0-3.1,2.4-5.6,5.4-5.6c1.7,0,3.3,0.9,4.3,2.2
		v-6.4c0-0.3,0.2-0.5,0.6-0.5c0.3,0,0.5,0.2,0.5,0.5V95v0.2v5c0,0.3-0.2,0.5-0.5,0.5s-0.6-0.2-0.6-0.5V98.6z M260.201,95.4V95
		c-0.1-2.4-2-4.3-4.3-4.3s-4.3,2-4.3,4.5c0,2.4,1.9,4.4,4.3,4.4C258.201,99.7,260.101,97.8,260.201,95.4z"/>
	<path fill="#231F20" d="M265.101,95.2c0-3.1,2.4-5.6,5.4-5.6c2.8,0,5.1,2.3,5.3,5.2l0,0v0.1c0,0.3-0.2,0.5-0.5,0.5h-9.1
		c0.1,2.4,2,4.3,4.3,4.3c1.5,0,2.8-0.8,3.6-2c0.2-0.3,0.5-0.3,0.7-0.2c0.2,0.2,0.3,0.5,0.2,0.8c-0.9,1.5-2.6,2.5-4.5,2.5
		C267.501,100.8,265.101,98.3,265.101,95.2z M266.301,94.4h8.4c-0.4-2.1-2.1-3.6-4.2-3.6S266.701,92.3,266.301,94.4z"/>
	<path fill="#231F20" d="M278.901,98.5c0.2-0.2,0.5-0.3,0.8-0.1c0.8,0.6,2,1.3,3.4,1.3c0.9,0,1.6-0.3,2.1-0.7
		c0.5-0.4,0.8-0.9,0.8-1.4s-0.2-0.9-0.8-1.4c-0.5-0.4-1.3-0.6-2.4-0.8l0,0c-1-0.2-1.9-0.4-2.5-0.9c-0.7-0.4-1.2-1.1-1.2-2
		s0.5-1.6,1.2-2.2c0.7-0.5,1.6-0.7,2.7-0.7c1.4,0,2.4,0.7,3.3,1.2c0.2,0.2,0.3,0.5,0.2,0.8c-0.2,0.2-0.5,0.3-0.7,0.2
		c-0.8-0.5-1.6-1.1-2.7-1.1c-0.9,0-1.6,0.2-2.1,0.6s-0.7,0.8-0.7,1.3s0.2,0.8,0.6,1.1c0.5,0.3,1.2,0.6,2.3,0.8l0,0
		c1.1,0.2,1.9,0.5,2.7,0.9c0.7,0.5,1.2,1.3,1.2,2.3c0,0.9-0.5,1.7-1.3,2.2c-0.8,0.6-1.7,0.9-2.8,0.9c-1.8,0-3.2-0.9-4.1-1.6
		C278.801,99,278.701,98.7,278.901,98.5z"/>
	<path fill="#231F20" d="M290.801,86.6c0-0.3,0.2-0.5,0.5-0.5s0.6,0.2,0.6,0.5v0.5c0,0.3-0.2,0.6-0.6,0.6c-0.3,0-0.5-0.3-0.5-0.6
		V86.6z M290.801,90.2c0-0.3,0.2-0.5,0.5-0.5s0.6,0.2,0.6,0.5v10c0,0.3-0.2,0.5-0.6,0.5c-0.3,0-0.5-0.2-0.5-0.5V90.2z"/>
	<path fill="#231F20" d="M306.801,99.9c0,2.9-2.3,5.2-5.2,5.2c-0.8,0-1.6-0.2-2.3-0.5c-0.2-0.2-0.4-0.5-0.2-0.7
		c0.1-0.3,0.5-0.4,0.7-0.2c0.6,0.3,1.1,0.4,1.8,0.4c2.3,0,4.1-1.8,4.1-4.1v-1.4c-0.9,1.3-2.4,2.2-4.1,2.2c-2.9,0-5.2-2.5-5.2-5.5
		s2.3-5.5,5.2-5.5c1.7,0,3.2,0.9,4.1,2.2v-1.6c0-0.3,0.2-0.5,0.6-0.5c0.3,0,0.5,0.2,0.5,0.5V99.9z M305.801,95.2
		c0-2.5-1.9-4.4-4.1-4.4c-2.3,0-4.1,1.9-4.1,4.4s1.9,4.5,4.1,4.5C303.901,99.6,305.801,97.7,305.801,95.2z"/>
	<path fill="#231F20" d="M320.001,94.2c0-1.9-1.5-3.4-3.4-3.4s-3.4,1.5-3.4,3.4v6v0.1c0,0.1,0,0.2-0.1,0.2c-0.1,0.1-0.2,0.2-0.4,0.2
		h-0.1c-0.2,0-0.3-0.2-0.4-0.3c0,0,0,0,0-0.1s0,0,0,0v-0.1v-6V94v-3.8c0-0.3,0.2-0.5,0.5-0.5s0.5,0.2,0.5,0.5v1.1
		c0.8-1,2.1-1.6,3.4-1.6c2.5,0,4.5,2,4.5,4.5v6c0,0.3-0.2,0.5-0.5,0.5s-0.5-0.2-0.5-0.5v-6H320.001z"/>
	<path fill="#231F20" d="M331.901,95.2c0-3.1,2.4-5.6,5.4-5.6c2.8,0,5.1,2.3,5.3,5.2l0,0v0.1c0,0.3-0.2,0.5-0.5,0.5h-9.1
		c0.1,2.4,2,4.3,4.3,4.3c1.5,0,2.8-0.8,3.6-2c0.2-0.3,0.5-0.3,0.7-0.2c0.2,0.2,0.3,0.5,0.2,0.8c-1,1.5-2.6,2.5-4.5,2.5
		C334.301,100.8,331.901,98.3,331.901,95.2z M333.101,94.4h8.4c-0.4-2.1-2.1-3.6-4.2-3.6S333.501,92.3,333.101,94.4z"/>
	<path fill="#231F20" d="M349.501,90.2c0,0.3-0.3,0.5-0.5,0.5h-1.4v8.1c0,0.5,0.5,0.8,0.8,0.8s0.6,0.3,0.6,0.6s-0.3,0.5-0.6,0.5
		c-1.1,0-1.9-0.8-1.9-1.9v-8.1h-1.5c-0.5,0-0.5-0.3-0.5-0.5s0-0.5,0.5-0.5h1.4v-4.1c0-0.3,0.3-0.5,0.5-0.5c0.3,0,0.6,0.3,0.6,0.5
		v4.1h1.4C349.201,89.7,349.501,90,349.501,90.2z"/>
	<path fill="#231F20" d="M370.301,98.6c-1,1.3-2.5,2.1-4.3,2.1c-3,0-5.4-2.5-5.4-5.5c0-3.1,2.4-5.6,5.4-5.6c1.7,0,3.3,0.9,4.3,2.2
		v-6.4c0-0.3,0.2-0.5,0.6-0.5c0.3,0,0.5,0.2,0.5,0.5V95v0.2v5c0,0.3-0.2,0.5-0.5,0.5s-0.6-0.2-0.6-0.5V98.6z M370.301,95.4V95
		c-0.1-2.4-2-4.3-4.3-4.3s-4.3,2-4.3,4.5c0,2.4,1.9,4.4,4.3,4.4C368.301,99.7,370.201,97.8,370.301,95.4z"/>
	<path fill="#231F20" d="M380.901,100.8c-3,0-5.4-2.5-5.4-5.5c0-3.1,2.4-5.6,5.4-5.6c2.8,0,5.1,2.3,5.3,5.2l0,0V95
		c0,0.3-0.2,0.5-0.5,0.5h-9.1c0.1,2.4,2,4.3,4.3,4.3c1.5,0,2.8-0.8,3.6-2c0.2-0.3,0.5-0.3,0.7-0.2c0.2,0.2,0.3,0.5,0.2,0.8
		C384.501,99.8,382.801,100.8,380.901,100.8z M380.901,90.8c-2.1,0-3.8,1.5-4.2,3.6h8.4C384.701,92.3,383.001,90.8,380.901,90.8z
		 M379.701,87.9c0.3,0,0.5,0,0.7-0.3l1.8-1.7c0.1-0.1,0.2-0.3,0.2-0.4c0-0.2-0.5-0.5-0.9-0.5c-0.3,0-0.5,0.1-0.6,0.4l-1.4,2.1
		c0,0.1-0.1,0.2-0.1,0.2C379.401,87.8,379.501,87.9,379.701,87.9z"/>
	<path fill="#231F20" d="M389.301,95.2c0-3.1,2.5-5.5,5.7-5.5c1.3,0,2.6,0.5,3.5,1.2c0.2,0.2,0.3,0.5,0.1,0.7
		c-0.2,0.2-0.5,0.3-0.7,0.1c-0.8-0.6-1.8-1-2.8-1c-2.6,0-4.6,2-4.6,4.5s2,4.5,4.6,4.5c1.1,0,2.1-0.4,2.8-1c0.2-0.2,0.6-0.1,0.7,0.1
		c0.2,0.2,0.2,0.6-0.1,0.8c-0.9,0.7-2.2,1.2-3.5,1.2C391.901,100.8,389.301,98.3,389.301,95.2z"/>
	<path fill="#231F20" d="M407.401,89.7c2.9,0,5.2,2.5,5.2,5.5s-2.3,5.5-5.2,5.5c-2.9,0-5.2-2.5-5.2-5.5S404.501,89.7,407.401,89.7z
		 M407.401,99.7c2.3,0,4.2-2,4.2-4.5s-1.9-4.5-4.2-4.5c-2.3,0-4.2,2-4.2,4.5C403.301,97.7,405.201,99.7,407.401,99.7z"/>
	<path fill="#231F20" d="M416.401,90.3c0-0.3,0.2-0.5,0.6-0.5c0.3,0,0.5,0.2,0.5,0.5v2.4c0-0.1,0.1-0.2,0.2-0.3
		c0.8-1.3,2.3-2.7,4.4-2.7c0.3,0,0.5,0.2,0.5,0.5s-0.2,0.5-0.5,0.5c-1.4,0-2.4,0.8-3.2,1.8c-0.7,1-1.2,2.1-1.3,2.6
		c0,0.1,0,0.1,0,0.2v4.9c0,0.3-0.2,0.5-0.5,0.5s-0.6-0.2-0.6-0.5v-9.9H416.401z"/>
	<path fill="#231F20" d="M435.001,90.2v10c0,0.3-0.2,0.5-0.5,0.5s-0.5-0.2-0.5-0.5v-1.6c-0.9,1.3-2.5,2.2-4.2,2.2
		c-2.9,0-5.2-2.5-5.2-5.5s2.3-5.5,5.2-5.5c1.7,0,3.2,0.9,4.2,2.2v-1.6c0-0.3,0.2-0.5,0.5-0.5
		C434.801,89.7,435.001,89.9,435.001,90.2z M433.901,95.2c0-2.5-1.9-4.5-4.2-4.5c-2.3,0-4.2,2-4.2,4.5s1.9,4.5,4.2,4.5
		C432.101,99.7,433.901,97.7,433.901,95.2z"/>
	<path fill="#231F20" d="M443.601,90.2c0,0.3-0.3,0.5-0.5,0.5h-1.4v8.1c0,0.5,0.5,0.8,0.8,0.8s0.6,0.3,0.6,0.6s-0.3,0.5-0.6,0.5
		c-1.1,0-1.9-0.8-1.9-1.9v-8.1h-1.4c-0.5,0-0.5-0.3-0.5-0.5s0-0.5,0.5-0.5h1.4v-4.1c0-0.3,0.3-0.5,0.5-0.5c0.3,0,0.6,0.3,0.6,0.5
		v4.1h1.4C443.301,89.7,443.601,90,443.601,90.2z"/>
	<path fill="#231F20" d="M448.801,86.6c0-0.3,0.2-0.5,0.5-0.5s0.6,0.2,0.6,0.5v0.5c0,0.3-0.2,0.6-0.6,0.6c-0.3,0-0.5-0.3-0.5-0.6
		V86.6z M448.801,90.2c0-0.3,0.2-0.5,0.5-0.5s0.6,0.2,0.6,0.5v10c0,0.3-0.2,0.5-0.6,0.5c-0.3,0-0.5-0.2-0.5-0.5V90.2z"/>
	<path fill="#231F20" d="M459.901,89.7c2.9,0,5.2,2.5,5.2,5.5s-2.3,5.5-5.2,5.5c-2.9,0-5.2-2.5-5.2-5.5
		C454.601,92.2,457.001,89.7,459.901,89.7z M459.901,99.7c2.3,0,4.2-2,4.2-4.5s-1.9-4.5-4.2-4.5s-4.2,2-4.2,4.5
		S457.601,99.7,459.901,99.7z"/>
	<path fill="#231F20" d="M477.201,94.2c0-1.9-1.5-3.4-3.4-3.4s-3.4,1.5-3.4,3.4v6v0.1c0,0.1,0,0.2-0.1,0.2c-0.1,0.1-0.2,0.2-0.4,0.2
		h-0.1c-0.2,0-0.3-0.2-0.4-0.3c0,0,0,0,0-0.1s0,0,0,0v-0.1v-6V94v-3.8c0-0.3,0.2-0.5,0.5-0.5s0.5,0.2,0.5,0.5v1.1
		c0.8-1,2.1-1.6,3.4-1.6c2.5,0,4.5,2,4.5,4.5v6c0,0.3-0.2,0.5-0.5,0.5s-0.5-0.2-0.5-0.5v-6H477.201z"/>
</g>
<path fill="#0D0C0D" d="M75.601,12.9l-9.9,17.7c0,0-8.2,13.9-9.4,15.5c-1.1,1.6-5.8,9.4-12,9.2c-6.3-0.2-13.2-3.9-14.4-4.5
	c-1.3-0.7-5-2.8-9-4.7s-12.4-2.8-12.4-2.8l-0.9,6.7c0.8,2,3,5.1,4.9,7.7c1.9,2.6,5.6,5.5,5.6,5.5c4.2,3.4,11.1,5.6,11.1,5.6
	l35.3,10.2l4.8-0.3c0,0,3.3,0.2,8.4-5.2c5.1-5.4,6.5-15.5,6.7-16.7c0.2-1.3,2.6-11.4,2.8-12.4c0.2-0.9,3.5-13.9,3.8-14.8
	c0.2-0.9,4-14.2,4-14.2l-1.3-1.3L75.601,12.9z"/>
<polyline fill="#0D0C0D" points="40.401,107.5 49.001,76 71.401,82.6 74.301,89.5 76.101,90 76.501,88.7 72.201,77.8 69.801,78.6 
	70.501,80.8 47.701,73.9 38.601,107.7 "/>
<path fill="none" stroke="#000000" stroke-width="6.2853" stroke-miterlimit="10" d="M36.601,73.8"/>
<path fill="none" stroke="#000000" stroke-width="6.2853" stroke-miterlimit="10" d="M38.401,76"/>
<path fill="#989392" d="M45.201,73.3l-8.8-0.5l-2.4-2.7l-5-1.5l3.5,4l-3.5-0.3l-2-0.1l-1.5-0.1l1.9-4.2l-1.3-0.5l-10.5,22.9l1.1,0.6
	l7.7-16.5l1.5,0.1l4.5,0.2l4.1,0.2l8.6,10.3l-5.7,21.1l1.4,1.4l9-33.8L45.201,73.3z M38.901,75.2l6.7,0.3l-1.6,5.7L38.901,75.2z"/>
<path stroke="#000000" stroke-width="6.2853" stroke-miterlimit="10" d="M40.001,79.8"/>
<path fill="none" d="M26.901,74.5"/>
<g>
	<polygon fill="#0D0C0D" points="28.701,68.5 27.401,68 25.401,72.2 26.901,72.2 	"/>
	<polygon fill="#0D0C0D" points="16.701,91 18.201,91.1 25.701,74.5 24.401,74.4 	"/>
	<polygon fill="#0D0C0D" points="37.701,75.1 43.601,82.3 44.001,81.1 38.901,75.2 	"/>
	<polyline fill="#0D0C0D" points="35.601,72.7 32.901,69.6 34.201,70.1 36.501,72.8 35.601,72.7 	"/>
</g>
<g>
	<polygon fill="#0D0C0D" points="25.401,72.2 26.901,72.2 28.701,68.5 27.401,68 	"/>
	<polygon fill="#0D0C0D" points="38.901,75.2 37.701,75.1 43.601,82.3 44.001,81.1 	"/>
	<polygon fill="#0D0C0D" points="32.901,69.6 35.601,72.7 36.501,72.8 34.201,70.1 	"/>
</g>
<g>
	<polygon fill="none" points="44.001,81.2 45.601,75.5 38.901,75.2 	"/>
	<polygon fill="none" points="44.001,81.2 45.601,75.5 38.901,75.2 	"/>
	<path fill="none" d="M25.901,74.5l4.4,0.2L25.901,74.5z"/>
</g>
<path fill="#989392" d="M93.701,14.2c0,0-3.9,13-4.1,13.9c-0.3,0.9-3.6,14-3.9,14.9c-0.2,0.9-1.5,5.7-1.7,6.9c0,0-1.4,5.7-1.8,7
	c-0.3,1.4-1.9,9.7-6.5,10.5s-7.7-4.7-11.1-5.8c-2.4-0.7-5.9-0.6-7-0.7l-1,4.5h1c2.4,0.2,3.5-0.3,5.8,0.5c2.3,0.7,7.3,5.3,11.7,5.2
	c4.4-0.1,7-5.7,7.4-6.6c0.3-0.9,1-3.1,1-3.4c0.1-0.3,3.1-13.6,3.4-15.3c0.3-1.6,4.7-18.4,5.1-19.9c0.5-1.5,3-10.6,3-10.6"/>
<path fill="#989392" d="M57.601,61c0,0-4.5-0.7-8.6,0c-4,0.7-11.9,3.8-17.6,3.4c-5.7-0.3-8.9-2.5-10.6-3.5s-4.5-3.3-6-5
	c-0.7-0.8-3-3.4-3.3-4.1c-0.5-0.7-1.1-1.5-2-3.8s-1-4.8-1-4.8l-0.9,6.8c0,0,1,1.9,2.2,3.9c1,1.7,2.4,3.5,2.8,4.2
	c0.7,1,2.3,2.7,4.4,4.4c1.6,1.4,3.6,2.4,5.6,3.4c4.5,2.4,8.6,3.3,14.5,2.6c5.9-0.7,7.7-2.2,11-2.6c3.3-0.3,5.9-0.7,8.3-0.3
	L57.601,61C57.201,61,57.601,61,57.601,61z"/>
<line fill="none" stroke="#000000" stroke-width="1.257" stroke-miterlimit="10" x1="56.601" y1="66.5" x2="57.801" y2="60.7"/>
<path fill="#020202" d="M176.308,17.366l-0.012,12.528c-1.204-0.398-2.553-0.563-3.903-0.563c-1.297,0-2.693,0.199-4.089,0.598
	c-1.396,0.399-2.693,0.997-3.79,1.895V17.361l-7.48,0.002v32.214h7.181V37.509c0.997-0.598,1.995-1.097,2.992-1.396
	c0.997-0.299,2.094-0.499,3.192-0.499c0.798,0,1.496,0.1,2.194,0.399c0.798,0.299,1.396,0.698,1.895,1.197
	c0.499,0.499,0.997,1.197,1.297,1.995c0.299,0.798,0.499,1.695,0.499,2.793V59.65h0.1h7.281h0.1V17.363L176.308,17.366z"/>
</svg>
