<?xml version="1.0" encoding="utf-8"?>
<!-- Generator: Adobe Illustrator 17.0.0, SVG Export Plug-In . SVG Version: 6.00 Build 0)  -->
<!DOCTYPE svg PUBLIC "-//W3C//DTD SVG 1.1//EN" "http://www.w3.org/Graphics/SVG/1.1/DTD/svg11.dtd">
<svg version="1.1" xmlns="http://www.w3.org/2000/svg" xmlns:xlink="http://www.w3.org/1999/xlink" x="0px" y="0px"
	 width="523.333px" height="100px" viewBox="0 0 523.333 100" enable-background="new 0 0 523.333 100" xml:space="preserve">
<g id="Calque_2">
</g>
<g id="Calque_1">
	<g>
		<path fill="#FFFFFF" d="M170.312,64.269h-7.368V46.576c0-1.056-0.163-1.986-0.489-2.787c-0.325-0.801-0.753-1.465-1.284-1.994
			c-0.531-0.528-1.148-0.92-1.85-1.176c-0.702-0.255-1.43-0.383-2.183-0.383c-1.13,0-2.209,0.171-3.237,0.512
			c-1.028,0.341-2.021,0.818-2.98,1.432v22.09h-7.368v-42.39h7.368l0.051,14.522c1.091-0.852,2.354-1.483,3.786-1.892
			c1.432-0.409,2.814-0.613,4.144-0.613c1.535,0,2.985,0.247,4.349,0.741c1.364,0.495,2.575,1.245,3.632,2.25
			c1.057,1.006,1.894,2.267,2.508,3.784c0.613,1.517,0.921,3.316,0.921,5.395V64.269z"/>
		<path fill="#FFFFFF" d="M206.484,49.491c0,2.216-0.409,4.27-1.228,6.162c-0.818,1.892-1.943,3.528-3.377,4.909
			c-1.432,1.38-3.113,2.472-5.039,3.273c-1.928,0.801-3.983,1.202-6.165,1.202c-2.184,0-4.23-0.401-6.14-1.202
			c-1.91-0.801-3.581-1.9-5.014-3.298c-1.432-1.397-2.558-3.043-3.377-4.934c-0.818-1.892-1.228-3.929-1.228-6.111
			c0-2.147,0.417-4.167,1.253-6.059c0.835-1.892,1.969-3.545,3.402-4.96c1.432-1.414,3.103-2.523,5.014-3.324
			c1.909-0.801,3.939-1.202,6.088-1.202c2.182,0,4.237,0.401,6.165,1.202c1.926,0.801,3.606,1.892,5.039,3.273
			c1.433,1.38,2.559,3.025,3.377,4.935C206.074,45.264,206.484,47.31,206.484,49.491z M199.116,49.491
			c0-1.261-0.221-2.437-0.663-3.528c-0.442-1.091-1.045-2.046-1.811-2.864c-0.765-0.818-1.658-1.457-2.678-1.917
			c-1.02-0.46-2.108-0.69-3.264-0.69s-2.245,0.23-3.264,0.69c-1.02,0.46-1.913,1.099-2.678,1.917
			c-0.765,0.818-1.368,1.773-1.81,2.864c-0.442,1.091-0.663,2.267-0.663,3.528c0,1.262,0.221,2.438,0.663,3.528
			c0.442,1.091,1.045,2.046,1.81,2.864c0.765,0.818,1.658,1.457,2.678,1.917c1.02,0.46,2.108,0.69,3.264,0.69s2.244-0.23,3.264-0.69
			c1.02-0.46,1.913-1.099,2.678-1.917c0.766-0.818,1.369-1.772,1.811-2.864C198.895,51.929,199.116,50.753,199.116,49.491z"/>
		<path fill="#FFFFFF" d="M254.882,64.269h-7.367V46.627c0-2.079-0.504-3.656-1.51-4.73c-1.006-1.074-2.243-1.611-3.709-1.611
			c-1.125,0-2.192,0.179-3.198,0.537c-1.006,0.358-1.988,0.946-2.942,1.764c0.307,1.193,0.461,2.54,0.461,4.04v17.641h-7.368V46.627
			c0-2.079-0.504-3.656-1.509-4.73c-1.007-1.074-2.226-1.611-3.658-1.611c-1.126,0-2.116,0.197-2.968,0.588
			c-0.853,0.392-1.74,1.015-2.66,1.866v21.528h-7.368V34.713h7.368l0.008,2.199c0.922-0.886,2.006-1.602,3.253-2.147
			c1.246-0.545,2.518-0.818,3.816-0.818c1.434,0,2.876,0.324,4.328,0.972c1.452,0.648,2.723,1.585,3.816,2.812
			c1.536-1.363,3.09-2.335,4.661-2.914c1.571-0.579,3.295-0.869,5.174-0.869c1.536,0,2.997,0.23,4.38,0.69
			c1.383,0.46,2.586,1.194,3.611,2.199c1.024,1.006,1.843,2.284,2.458,3.835c0.615,1.552,0.922,3.418,0.922,5.599V64.269z"/>
		<path fill="#FFFFFF" d="M291.003,49.44c0,0.478-0.026,0.972-0.077,1.483c-0.052,0.511-0.112,1.04-0.18,1.585H267.11
			c0.273,0.852,0.657,1.662,1.151,2.429c0.494,0.767,1.1,1.432,1.817,1.994c0.716,0.562,1.526,1.006,2.43,1.33
			c0.904,0.324,1.901,0.485,2.993,0.485c1.331,0,2.661-0.23,3.991-0.69c1.33-0.46,2.438-1.082,3.326-1.866l4.655,4.653
			c-2.046,1.534-4.05,2.617-6.011,3.247c-1.962,0.63-4.034,0.946-6.217,0.946c-2.217,0-4.29-0.409-6.217-1.227
			c-1.927-0.818-3.599-1.926-5.014-3.324c-1.416-1.397-2.532-3.042-3.351-4.934c-0.818-1.892-1.228-3.912-1.228-6.06
			c0-2.147,0.409-4.167,1.228-6.059c0.819-1.892,1.944-3.536,3.377-4.935c1.432-1.397,3.104-2.506,5.014-3.324
			c1.91-0.818,3.956-1.227,6.14-1.227c2.08,0,4.075,0.383,5.986,1.15c1.909,0.767,3.598,1.833,5.065,3.196
			c1.467,1.364,2.626,2.991,3.479,4.883C290.576,45.068,291.003,47.156,291.003,49.44z M283.278,46.576
			c-0.581-1.875-1.612-3.383-3.095-4.525c-1.484-1.142-3.164-1.713-5.04-1.713c-1.842,0-3.497,0.571-4.963,1.713
			c-1.467,1.143-2.489,2.651-3.07,4.525H283.278z"/>
		<path fill="#FFFFFF" d="M339.146,64.269h-7.521v-1.534c-0.956,0.784-1.995,1.355-3.121,1.713c-1.125,0.358-2.32,0.537-3.581,0.537
			c-2.081,0-3.99-0.418-5.73-1.253c-1.74-0.835-3.241-1.96-4.503-3.375c-1.262-1.414-2.243-3.059-2.941-4.935
			c-0.699-1.874-1.049-3.852-1.049-5.932c0-2.215,0.4-4.27,1.202-6.162c0.802-1.892,1.868-3.536,3.198-4.935
			c1.33-1.397,2.847-2.496,4.554-3.298c1.705-0.801,3.462-1.202,5.269-1.202c1.262,0,2.489,0.171,3.684,0.511
			c1.194,0.341,2.217,0.818,3.07,1.432V21.827h7.47V64.269z M331.727,56.343V42.128c-0.342-0.238-0.737-0.468-1.182-0.69
			c-0.445-0.221-0.907-0.409-1.386-0.562c-0.479-0.153-0.959-0.272-1.438-0.358c-0.479-0.084-0.907-0.128-1.283-0.128
			c-1.233,0-2.354,0.213-3.364,0.639c-1.01,0.427-1.892,1.04-2.644,1.841c-0.753,0.801-1.335,1.764-1.746,2.889
			c-0.411,1.125-0.617,2.37-0.617,3.733c0,1.33,0.206,2.549,0.617,3.656c0.411,1.108,0.975,2.063,1.695,2.863
			c0.719,0.801,1.583,1.424,2.594,1.867c1.01,0.443,2.113,0.665,3.312,0.665C328.235,58.542,330.049,57.809,331.727,56.343z"/>
		<path fill="#FFFFFF" d="M375.829,49.44c0,0.478-0.026,0.972-0.077,1.483c-0.052,0.511-0.112,1.04-0.18,1.585h-23.637
			c0.273,0.852,0.657,1.662,1.151,2.429c0.494,0.767,1.1,1.432,1.817,1.994c0.716,0.562,1.526,1.006,2.43,1.33
			c0.904,0.324,1.901,0.485,2.993,0.485c1.331,0,2.661-0.23,3.991-0.69c1.33-0.46,2.438-1.082,3.326-1.866l4.655,4.653
			c-2.046,1.534-4.05,2.617-6.011,3.247c-1.962,0.63-4.034,0.946-6.217,0.946c-2.217,0-4.29-0.409-6.217-1.227
			c-1.927-0.818-3.599-1.926-5.014-3.324c-1.416-1.397-2.532-3.042-3.351-4.934c-0.818-1.892-1.228-3.912-1.228-6.06
			c0-2.147,0.409-4.167,1.228-6.059c0.819-1.892,1.944-3.536,3.377-4.935c1.432-1.397,3.104-2.506,5.014-3.324
			c1.91-0.818,3.956-1.227,6.14-1.227c2.08,0,4.075,0.383,5.986,1.15c1.909,0.767,3.598,1.833,5.065,3.196
			c1.467,1.364,2.626,2.991,3.479,4.883C375.402,45.068,375.829,47.156,375.829,49.44z M368.104,46.576
			c-0.581-1.875-1.612-3.383-3.095-4.525c-1.484-1.142-3.164-1.713-5.04-1.713c-1.842,0-3.497,0.571-4.963,1.713
			c-1.467,1.143-2.489,2.651-3.07,4.525H368.104z"/>
		<path fill="#FFFFFF" d="M423.716,40.542h-3.121c0.784,1.534,1.177,3.17,1.177,4.909c0,1.33-0.248,2.617-0.742,3.861
			c-0.495,1.245-1.203,2.378-2.123,3.401c-0.921,1.022-2.039,1.892-3.352,2.608c-1.313,0.716-2.788,1.193-4.425,1.432
			c-1.125,0.171-1.969,0.435-2.533,0.792c-0.563,0.358-0.844,0.716-0.844,1.074c0,0.358,0.281,0.69,0.844,0.997
			c0.563,0.307,1.407,0.512,2.533,0.614c3.819,0.341,6.779,1.296,8.877,2.863c2.097,1.568,3.147,3.647,3.147,6.239
			c0,1.329-0.323,2.557-0.97,3.682c-0.646,1.125-1.571,2.096-2.777,2.914c-1.207,0.818-2.659,1.449-4.359,1.892
			c-1.7,0.443-3.601,0.665-5.708,0.665c-2.142,0-4.071-0.222-5.786-0.665c-1.716-0.443-3.187-1.066-4.41-1.866
			c-1.224-0.801-2.157-1.764-2.803-2.889c-0.647-1.125-0.969-2.37-0.969-3.733c0-2.046,0.584-3.758,1.752-5.139
			c1.168-1.381,3.072-2.412,5.712-3.094c-0.818-0.307-1.407-0.724-1.764-1.253c-0.359-0.528-0.521-1.065-0.486-1.611
			c0.033-0.545,0.264-1.065,0.69-1.56c0.426-0.494,1.032-0.877,1.819-1.15c-0.894-0.409-1.744-0.937-2.551-1.585
			c-0.807-0.647-1.537-1.398-2.19-2.25c-0.653-0.852-1.168-1.806-1.546-2.864c-0.378-1.056-0.567-2.181-0.567-3.375
			c0-1.602,0.341-3.102,1.024-4.5c0.682-1.397,1.603-2.616,2.762-3.656c1.159-1.039,2.507-1.858,4.042-2.454
			c1.535-0.596,3.154-0.895,4.861-0.895c1.67,0,3.224,0.255,4.656,0.767h10.13V40.542z M415.786,69.331
			c0-1.194-0.603-2.063-1.809-2.608c-1.206-0.546-2.76-0.818-4.663-0.818c-2.038,0-3.645,0.289-4.817,0.869
			c-1.172,0.579-1.758,1.432-1.758,2.557c0,1.158,0.612,2.028,1.834,2.608c1.224,0.579,2.803,0.869,4.74,0.869
			c1.97,0,3.541-0.281,4.713-0.844C415.199,71.402,415.786,70.524,415.786,69.331z M414.404,45.451c0-0.75-0.144-1.449-0.43-2.096
			c-0.288-0.647-0.677-1.219-1.166-1.713c-0.49-0.494-1.065-0.886-1.724-1.176c-0.658-0.289-1.359-0.435-2.103-0.435
			c-0.743,0-1.436,0.145-2.077,0.435c-0.643,0.29-1.209,0.682-1.698,1.176c-0.49,0.495-0.878,1.066-1.165,1.713
			c-0.288,0.648-0.431,1.347-0.431,2.096c0,0.75,0.143,1.457,0.431,2.122c0.287,0.665,0.675,1.245,1.165,1.739
			c0.489,0.495,1.055,0.887,1.698,1.176c0.642,0.29,1.334,0.435,2.077,0.435c0.744,0,1.445-0.145,2.103-0.435
			c0.659-0.289,1.233-0.682,1.724-1.176c0.489-0.494,0.878-1.074,1.166-1.739C414.26,46.909,414.404,46.202,414.404,45.451z"/>
		<path fill="#FFFFFF" d="M457.841,49.491c0,2.216-0.409,4.27-1.228,6.162c-0.818,1.892-1.943,3.528-3.377,4.909
			c-1.432,1.38-3.113,2.472-5.039,3.273c-1.928,0.801-3.983,1.202-6.165,1.202c-2.184,0-4.23-0.401-6.14-1.202
			c-1.91-0.801-3.581-1.9-5.014-3.298c-1.432-1.397-2.558-3.043-3.377-4.934c-0.818-1.892-1.228-3.929-1.228-6.111
			c0-2.147,0.417-4.167,1.253-6.059c0.835-1.892,1.969-3.545,3.402-4.96c1.432-1.414,3.103-2.523,5.014-3.324
			c1.909-0.801,3.939-1.202,6.088-1.202c2.182,0,4.237,0.401,6.165,1.202c1.926,0.801,3.606,1.892,5.039,3.273
			c1.433,1.38,2.559,3.025,3.377,4.935C457.431,45.264,457.841,47.31,457.841,49.491z M450.473,49.491
			c0-1.261-0.221-2.437-0.663-3.528c-0.442-1.091-1.045-2.046-1.811-2.864c-0.765-0.818-1.658-1.457-2.678-1.917
			c-1.02-0.46-2.108-0.69-3.264-0.69c-1.156,0-2.245,0.23-3.264,0.69c-1.02,0.46-1.913,1.099-2.678,1.917
			c-0.765,0.818-1.368,1.773-1.81,2.864c-0.442,1.091-0.663,2.267-0.663,3.528c0,1.262,0.221,2.438,0.663,3.528
			c0.442,1.091,1.045,2.046,1.81,2.864c0.765,0.818,1.658,1.457,2.678,1.917c1.02,0.46,2.108,0.69,3.264,0.69
			c1.156,0,2.244-0.23,3.264-0.69c1.02-0.46,1.913-1.099,2.678-1.917c0.766-0.818,1.369-1.772,1.811-2.864
			C450.252,51.929,450.473,50.753,450.473,49.491z"/>
		<path fill="#FFFFFF" d="M488.641,64.269h-7.368v-2.25c-0.478,0.477-1.032,0.895-1.663,1.253c-0.631,0.358-1.297,0.665-1.995,0.92
			c-0.699,0.255-1.416,0.451-2.149,0.588c-0.733,0.136-1.424,0.205-2.072,0.205c-1.501,0-2.942-0.239-4.323-0.716
			c-1.382-0.477-2.602-1.21-3.659-2.199c-1.057-0.989-1.902-2.267-2.532-3.835c-0.632-1.568-0.947-3.426-0.947-5.573V34.713h7.368
			v17.59c0,1.057,0.161,1.986,0.486,2.787c0.324,0.801,0.75,1.466,1.279,1.994c0.529,0.529,1.142,0.92,1.842,1.176
			c0.698,0.255,1.423,0.383,2.174,0.383c2.387,0,4.451-0.818,6.191-2.454V34.713h7.368V64.269z M485.059,31.031h-5.526l-4.349-4.346
			l-4.4,4.346h-5.526l6.6-9.869h6.599L485.059,31.031z"/>
		<path fill="#FFFFFF" d="M511.254,63.604c-0.751,0.478-1.621,0.835-2.609,1.074c-0.99,0.238-1.979,0.358-2.968,0.358
			c-1.74,0-3.206-0.213-4.4-0.639c-1.194-0.426-2.149-1.082-2.865-1.969c-0.717-0.886-1.237-2.011-1.561-3.375
			c-0.325-1.363-0.486-2.966-0.486-4.806V41.309h-3.889v-3.324c2.387-0.988,4.323-2.454,5.807-4.398s2.498-4.465,3.044-7.568h2.405
			v8.642h7.47v6.647h-7.47v13.448c0,0.75,0.094,1.364,0.282,1.841c0.186,0.478,0.434,0.853,0.742,1.125
			c0.307,0.273,0.656,0.46,1.049,0.562c0.392,0.102,0.81,0.153,1.253,0.153c0.579,0,1.279-0.102,2.097-0.307
			c0.819-0.205,1.517-0.545,2.098-1.023V63.604z"/>
	</g>
	
		<line fill="none" stroke="#FFFFFF" stroke-linecap="round" stroke-linejoin="round" stroke-miterlimit="10" x1="111.083" y1="83.583" x2="111.083" y2="14.583"/>
	<path fill="#FFFFFF" d="M66.092,12.483L58.25,26.548c0,0-6.523,10.997-7.468,12.308c-0.944,1.311-4.641,7.468-9.599,7.327
		c-4.959-0.142-10.509-3.115-11.501-3.634c-0.992-0.519-3.971-2.266-7.135-3.692c-3.164-1.427-9.878-2.255-9.878-2.255l-0.59,5.357
		c0.657,1.632,2.392,4.083,3.856,6.112c1.464,2.03,4.447,4.295,4.447,4.295c3.306,2.69,8.878,4.437,8.878,4.437l28.075,8.26
		l3.801-0.236c0,0,2.645,0.189,6.659-4.201s5.172-12.296,5.361-13.288c0.189-0.991,2.1-9.085,2.242-9.84
		c0.142-0.755,2.833-10.997,3.022-11.752c0.189-0.755,3.164-11.28,3.164-11.28l-1.018-1.002L66.092,12.483z"/>
	<polyline fill="#FFFFFF" points="38.186,87.67 44.958,62.707 62.743,67.868 65.151,73.45 66.615,73.787 66.851,72.8 63.385,64.125 
		61.518,64.777 62.082,66.466 43.936,61.057 36.782,87.903 	"/>
	<path fill="none" stroke="#000000" stroke-width="5" stroke-miterlimit="10" d="M35.099,60.938"/>
	<path fill="none" stroke="#000000" stroke-width="5" stroke-miterlimit="10" d="M36.594,62.707"/>
	<path fill="#989392" d="M42.019,60.506l-6.949-0.382l-1.886-2.175l-4.01-1.18l2.79,3.184l-2.827-0.16l-1.554-0.09V59.7
		l-1.255-0.074l1.515-3.365l-0.992-0.349l-8.418,18.194l0.863,0.477h0.02l6.098-13.17l1.187,0.053l0.002-0.004l3.573,0.191
		l3.211,0.171l6.833,8.192L35.687,86.85l1.098,1.077L43.94,61.08L42.019,60.506z M36.876,62.005l5.404,0.297l-1.314,4.486
		L36.876,62.005z"/>
	<path stroke="#000000" stroke-width="5" stroke-miterlimit="10" d="M37.824,65.763"/>
	<path fill="none" d="M27.44,61.508"/>
	<g>
		<polygon fill="#FFFFFF" points="28.848,56.673 27.8,56.29 26.253,59.635 27.41,59.7 		"/>
		<polygon fill="#FFFFFF" points="19.316,74.586 20.434,74.682 26.421,61.458 25.44,61.395 		"/>
		<polygon fill="#FFFFFF" points="35.974,61.947 40.689,67.705 40.961,66.776 36.876,62.005 		"/>
		<polyline fill="#FFFFFF" points="34.278,60.069 32.213,57.627 33.18,57.937 35.066,60.112 34.278,60.069 		"/>
	</g>
	<g>
		<polygon fill="#FFFFFF" points="26.253,59.635 27.41,59.7 28.847,56.673 27.8,56.29 		"/>
		<polygon fill="#FFFFFF" points="36.876,62.005 35.974,61.947 40.689,67.705 40.961,66.776 		"/>
		<polygon fill="#FFFFFF" points="32.213,57.627 34.278,60.069 35.066,60.112 33.18,57.937 		"/>
	</g>
	<g>
		<polygon fill="none" points="40.965,66.788 42.28,62.302 36.876,62.005 		"/>
		<polygon fill="none" points="40.965,66.788 42.28,62.302 36.876,62.005 		"/>
		<polygon fill="none" points="26.601,61.468 30.176,61.653 26.603,61.463 		"/>
	</g>
	<path fill="#989392" d="M80.566,13.464c0,0-3.089,10.3-3.278,11.055c-0.189,0.755-2.881,11.092-3.022,11.847
		c-0.142,0.755-1.165,4.531-1.354,5.522c0,0-1.102,4.563-1.417,5.632c-0.315,1.07-1.511,7.678-5.163,8.307
		c-3.652,0.629-6.108-3.744-8.878-4.594c-1.906-0.585-4.66-0.464-5.637-0.503l-0.792,3.649c0,0,0.824,0.04,0.826,0.04
		c1.889,0.189,2.821-0.246,4.583,0.327c1.776,0.578,5.743,4.283,9.269,4.124c3.526-0.16,5.643-4.535,5.888-5.253
		c0.245-0.718,0.773-2.415,0.847-2.681c0.074-0.267,2.425-10.889,2.694-12.163s3.744-14.68,4.075-15.861
		c0.331-1.181,2.379-8.447,2.379-8.447"/>
	<path fill="#989392" d="M51.816,50.73c0,0-3.619-0.503-6.83,0c-3.211,0.503-9.508,3.021-14.041,2.706
		c-4.534-0.315-7.052-2.014-8.374-2.832c-1.322-0.818-3.655-2.604-4.827-3.976c-0.568-0.665-2.308-2.737-2.645-3.286
		c-0.337-0.548-0.86-1.144-1.606-2.941c-0.748-1.801-0.823-3.799-0.823-3.799l-0.59,5.357c0,0,0.774,1.57,1.696,3.115
		c0.792,1.327,1.896,2.793,2.291,3.346c0.576,0.807,1.807,2.135,3.556,3.568c1.278,1.047,2.867,1.887,4.406,2.691
		c3.644,1.903,6.886,2.654,11.609,2.09c4.722-0.564,6.123-1.76,8.768-2.075c2.641-0.314,4.725-0.503,6.612-0.315L51.816,50.73
		C51.479,50.716,51.816,50.73,51.816,50.73z"/>
	<line fill="#FFFFFF" stroke="#FFFFFF" stroke-miterlimit="10" x1="51.024" y1="55.148" x2="52.037" y2="50.503"/>
</g>
</svg>
