<?xml version="1.0" encoding="utf-8"?>
<!-- Generator: Adobe Illustrator 17.0.0, SVG Export Plug-In . SVG Version: 6.00 Build 0)  -->
<!DOCTYPE svg PUBLIC "-//W3C//DTD SVG 1.1//EN" "http://www.w3.org/Graphics/SVG/1.1/DTD/svg11.dtd">
<svg version="1.1" id="Calque_1" xmlns="http://www.w3.org/2000/svg" xmlns:xlink="http://www.w3.org/1999/xlink" x="0px" y="0px"
	 width="524.167px" height="100.833px" viewBox="0 0 524.167 100.833" enable-background="new 0 0 524.167 100.833"
	 xml:space="preserve">
<g>
	<path fill="#000100" d="M170.729,59.685h-7.368V41.993c0-1.056-0.163-1.986-0.489-2.787c-0.325-0.801-0.753-1.465-1.284-1.994
		c-0.531-0.528-1.148-0.92-1.85-1.176c-0.702-0.255-1.43-0.383-2.183-0.383c-1.13,0-2.209,0.171-3.237,0.512
		c-1.028,0.341-2.021,0.818-2.98,1.432v22.09h-7.368v-42.39h7.368l0.051,14.522c1.091-0.852,2.354-1.483,3.786-1.892
		c1.432-0.409,2.814-0.613,4.144-0.613c1.535,0,2.985,0.247,4.349,0.741c1.364,0.495,2.575,1.245,3.632,2.25
		c1.057,1.006,1.894,2.267,2.508,3.784c0.613,1.517,0.921,3.316,0.921,5.395V59.685z"/>
	<path fill="#000100" d="M206.9,44.907c0,2.216-0.41,4.27-1.228,6.162c-0.818,1.892-1.943,3.528-3.377,4.909
		c-1.432,1.38-3.113,2.472-5.039,3.273c-1.928,0.801-3.983,1.202-6.165,1.202c-2.184,0-4.23-0.401-6.14-1.202
		s-3.581-1.9-5.014-3.298c-1.432-1.397-2.558-3.043-3.377-4.934c-0.818-1.892-1.228-3.929-1.228-6.111
		c0-2.147,0.417-4.167,1.253-6.059c0.835-1.892,1.969-3.545,3.402-4.96c1.432-1.414,3.103-2.523,5.014-3.324
		c1.909-0.801,3.939-1.202,6.088-1.202c2.182,0,4.237,0.401,6.165,1.202c1.926,0.801,3.606,1.892,5.039,3.273
		c1.433,1.38,2.559,3.025,3.377,4.935C206.491,40.681,206.9,42.726,206.9,44.907z M199.533,44.907c0-1.261-0.221-2.437-0.663-3.528
		c-0.442-1.091-1.045-2.046-1.811-2.864c-0.765-0.818-1.658-1.457-2.678-1.917c-1.02-0.46-2.108-0.69-3.264-0.69
		s-2.245,0.23-3.264,0.69c-1.02,0.46-1.913,1.099-2.678,1.917c-0.765,0.818-1.368,1.773-1.81,2.864
		c-0.442,1.091-0.663,2.267-0.663,3.528c0,1.262,0.221,2.438,0.663,3.528c0.442,1.091,1.045,2.046,1.81,2.864
		c0.765,0.818,1.658,1.457,2.678,1.917c1.02,0.46,2.108,0.69,3.264,0.69s2.244-0.23,3.264-0.69c1.02-0.46,1.913-1.099,2.678-1.917
		c0.766-0.818,1.369-1.772,1.811-2.864C199.311,47.345,199.533,46.169,199.533,44.907z"/>
	<path fill="#000100" d="M255.299,59.685h-7.367V42.044c0-2.079-0.504-3.656-1.51-4.73c-1.006-1.074-2.243-1.611-3.709-1.611
		c-1.125,0-2.192,0.179-3.198,0.537c-1.006,0.358-1.988,0.946-2.942,1.764c0.307,1.193,0.461,2.54,0.461,4.04v17.641h-7.368V42.044
		c0-2.079-0.504-3.656-1.509-4.73c-1.007-1.074-2.226-1.611-3.658-1.611c-1.126,0-2.116,0.197-2.968,0.588
		c-0.853,0.392-1.74,1.015-2.66,1.866v21.528h-7.368V30.13h7.368l0.008,2.199c0.922-0.886,2.006-1.602,3.253-2.147
		c1.246-0.545,2.518-0.818,3.816-0.818c1.434,0,2.876,0.324,4.328,0.972c1.452,0.648,2.723,1.585,3.816,2.812
		c1.536-1.363,3.09-2.335,4.661-2.914c1.571-0.579,3.295-0.869,5.174-0.869c1.536,0,2.997,0.23,4.38,0.69
		c1.383,0.46,2.586,1.194,3.611,2.199c1.024,1.006,1.843,2.284,2.458,3.835c0.615,1.552,0.922,3.418,0.922,5.599V59.685z"/>
	<path fill="#000100" d="M291.42,44.856c0,0.478-0.026,0.972-0.077,1.483c-0.052,0.511-0.112,1.04-0.18,1.585h-23.637
		c0.273,0.852,0.657,1.662,1.151,2.429c0.494,0.767,1.1,1.432,1.817,1.994c0.716,0.562,1.526,1.006,2.43,1.33
		c0.904,0.324,1.901,0.485,2.993,0.485c1.331,0,2.661-0.23,3.991-0.69c1.33-0.46,2.438-1.082,3.326-1.866l4.655,4.653
		c-2.046,1.534-4.05,2.617-6.011,3.247c-1.962,0.63-4.034,0.946-6.217,0.946c-2.217,0-4.29-0.409-6.217-1.227
		c-1.927-0.818-3.599-1.926-5.014-3.324c-1.416-1.397-2.532-3.042-3.351-4.934c-0.818-1.892-1.228-3.912-1.228-6.06
		c0-2.147,0.41-4.167,1.228-6.059c0.819-1.892,1.944-3.536,3.377-4.935c1.432-1.397,3.104-2.506,5.014-3.324s3.956-1.227,6.14-1.227
		c2.08,0,4.075,0.383,5.986,1.15c1.909,0.767,3.598,1.833,5.065,3.196c1.467,1.364,2.626,2.991,3.479,4.883
		C290.993,40.484,291.42,42.573,291.42,44.856z M283.694,41.993c-0.581-1.875-1.612-3.383-3.095-4.525
		c-1.484-1.142-3.164-1.713-5.04-1.713c-1.842,0-3.497,0.571-4.963,1.713c-1.467,1.143-2.489,2.651-3.07,4.525H283.694z"/>
	<path fill="#000100" d="M339.562,59.685h-7.521v-1.534c-0.955,0.784-1.995,1.355-3.121,1.713c-1.125,0.358-2.32,0.537-3.581,0.537
		c-2.081,0-3.99-0.418-5.73-1.253c-1.74-0.835-3.241-1.96-4.503-3.375c-1.262-1.414-2.243-3.059-2.941-4.935
		c-0.699-1.874-1.049-3.852-1.049-5.932c0-2.215,0.4-4.27,1.202-6.162s1.868-3.536,3.198-4.935c1.33-1.397,2.847-2.496,4.554-3.298
		c1.705-0.801,3.462-1.202,5.269-1.202c1.262,0,2.489,0.171,3.684,0.511c1.194,0.341,2.217,0.818,3.07,1.432V17.244h7.47V59.685z
		 M332.144,51.759V37.544c-0.342-0.238-0.737-0.468-1.182-0.69c-0.445-0.221-0.907-0.409-1.386-0.562
		c-0.479-0.153-0.959-0.272-1.438-0.358c-0.479-0.084-0.907-0.128-1.283-0.128c-1.233,0-2.354,0.213-3.364,0.639
		c-1.01,0.427-1.892,1.04-2.644,1.841c-0.753,0.801-1.335,1.764-1.746,2.889c-0.411,1.125-0.617,2.37-0.617,3.733
		c0,1.33,0.206,2.549,0.617,3.656c0.411,1.108,0.975,2.063,1.695,2.863c0.719,0.802,1.583,1.424,2.593,1.867
		c1.01,0.443,2.113,0.665,3.312,0.665C328.652,53.958,330.466,53.226,332.144,51.759z"/>
	<path fill="#000100" d="M376.246,44.856c0,0.478-0.026,0.972-0.077,1.483c-0.052,0.511-0.112,1.04-0.18,1.585h-23.637
		c0.273,0.852,0.657,1.662,1.151,2.429c0.494,0.767,1.1,1.432,1.817,1.994c0.716,0.562,1.526,1.006,2.43,1.33
		c0.904,0.324,1.901,0.485,2.993,0.485c1.331,0,2.661-0.23,3.991-0.69c1.33-0.46,2.438-1.082,3.326-1.866l4.655,4.653
		c-2.046,1.534-4.05,2.617-6.011,3.247c-1.962,0.63-4.034,0.946-6.217,0.946c-2.217,0-4.29-0.409-6.217-1.227
		c-1.927-0.818-3.599-1.926-5.014-3.324c-1.416-1.397-2.532-3.042-3.351-4.934c-0.818-1.892-1.228-3.912-1.228-6.06
		c0-2.147,0.41-4.167,1.228-6.059c0.819-1.892,1.944-3.536,3.377-4.935c1.432-1.397,3.104-2.506,5.014-3.324s3.956-1.227,6.14-1.227
		c2.08,0,4.075,0.383,5.986,1.15c1.909,0.767,3.598,1.833,5.065,3.196c1.467,1.364,2.626,2.991,3.479,4.883
		C375.819,40.484,376.246,42.573,376.246,44.856z M368.52,41.993c-0.581-1.875-1.612-3.383-3.095-4.525
		c-1.484-1.142-3.164-1.713-5.04-1.713c-1.842,0-3.497,0.571-4.963,1.713c-1.467,1.143-2.489,2.651-3.07,4.525H368.52z"/>
	<path fill="#000100" d="M424.133,35.959h-3.121c0.784,1.534,1.177,3.17,1.177,4.909c0,1.33-0.248,2.617-0.742,3.861
		c-0.495,1.245-1.203,2.378-2.123,3.401c-0.921,1.022-2.039,1.892-3.352,2.608c-1.313,0.716-2.788,1.193-4.425,1.432
		c-1.125,0.171-1.969,0.435-2.533,0.792c-0.563,0.358-0.844,0.716-0.844,1.074c0,0.358,0.281,0.69,0.844,0.997
		c0.563,0.307,1.407,0.512,2.533,0.614c3.819,0.341,6.779,1.296,8.877,2.863c2.097,1.568,3.147,3.647,3.147,6.239
		c0,1.329-0.323,2.557-0.97,3.682c-0.646,1.125-1.571,2.096-2.777,2.914c-1.207,0.818-2.659,1.449-4.359,1.892
		c-1.7,0.443-3.601,0.665-5.708,0.665c-2.142,0-4.071-0.222-5.786-0.665c-1.716-0.443-3.187-1.066-4.41-1.866
		c-1.223-0.801-2.157-1.764-2.803-2.889c-0.647-1.125-0.969-2.37-0.969-3.733c0-2.046,0.584-3.758,1.752-5.139
		c1.168-1.381,3.072-2.412,5.712-3.094c-0.818-0.307-1.407-0.724-1.764-1.253c-0.359-0.528-0.521-1.065-0.486-1.611
		c0.033-0.545,0.264-1.065,0.69-1.56c0.426-0.494,1.032-0.877,1.819-1.15c-0.894-0.409-1.744-0.937-2.551-1.585
		c-0.807-0.647-1.537-1.398-2.19-2.25c-0.653-0.852-1.168-1.806-1.546-2.864c-0.378-1.056-0.567-2.181-0.567-3.375
		c0-1.602,0.341-3.102,1.024-4.5c0.682-1.397,1.603-2.616,2.762-3.656c1.159-1.039,2.507-1.858,4.042-2.454
		c1.535-0.596,3.154-0.895,4.861-0.895c1.67,0,3.224,0.255,4.656,0.767h10.13V35.959z M416.203,64.748
		c0-1.194-0.603-2.063-1.809-2.608c-1.206-0.546-2.76-0.818-4.663-0.818c-2.038,0-3.645,0.289-4.817,0.869
		c-1.172,0.579-1.758,1.432-1.758,2.557c0,1.158,0.612,2.028,1.834,2.608c1.223,0.579,2.803,0.869,4.74,0.869
		c1.97,0,3.542-0.281,4.713-0.844C415.616,66.819,416.203,65.941,416.203,64.748z M414.821,40.868c0-0.75-0.144-1.449-0.43-2.096
		c-0.288-0.647-0.677-1.219-1.166-1.713c-0.49-0.494-1.065-0.886-1.724-1.176c-0.658-0.289-1.359-0.435-2.103-0.435
		c-0.743,0-1.436,0.145-2.077,0.435c-0.643,0.29-1.208,0.682-1.698,1.176c-0.49,0.495-0.878,1.066-1.165,1.713
		c-0.288,0.648-0.431,1.347-0.431,2.096c0,0.75,0.143,1.457,0.431,2.122c0.287,0.665,0.675,1.245,1.165,1.739
		c0.489,0.495,1.055,0.887,1.698,1.176c0.642,0.29,1.334,0.435,2.077,0.435c0.744,0,1.445-0.145,2.103-0.435
		c0.659-0.289,1.233-0.682,1.724-1.176c0.489-0.494,0.878-1.074,1.166-1.739C414.677,42.325,414.821,41.618,414.821,40.868z"/>
	<path fill="#000100" d="M458.258,44.907c0,2.216-0.41,4.27-1.229,6.162c-0.818,1.892-1.943,3.528-3.377,4.909
		c-1.432,1.38-3.113,2.472-5.039,3.273c-1.928,0.801-3.983,1.202-6.165,1.202c-2.184,0-4.23-0.401-6.14-1.202
		s-3.581-1.9-5.014-3.298c-1.432-1.397-2.558-3.043-3.377-4.934c-0.818-1.892-1.228-3.929-1.228-6.111
		c0-2.147,0.417-4.167,1.253-6.059c0.835-1.892,1.969-3.545,3.402-4.96c1.432-1.414,3.103-2.523,5.014-3.324
		c1.909-0.801,3.939-1.202,6.088-1.202c2.182,0,4.237,0.401,6.165,1.202c1.926,0.801,3.606,1.892,5.039,3.273
		c1.433,1.38,2.559,3.025,3.377,4.935C457.848,40.681,458.258,42.726,458.258,44.907z M450.89,44.907
		c0-1.261-0.221-2.437-0.663-3.528c-0.442-1.091-1.045-2.046-1.811-2.864c-0.765-0.818-1.658-1.457-2.678-1.917
		c-1.02-0.46-2.108-0.69-3.264-0.69c-1.156,0-2.245,0.23-3.264,0.69c-1.02,0.46-1.913,1.099-2.678,1.917
		c-0.765,0.818-1.368,1.773-1.81,2.864c-0.442,1.091-0.663,2.267-0.663,3.528c0,1.262,0.221,2.438,0.663,3.528
		c0.442,1.091,1.045,2.046,1.81,2.864c0.765,0.818,1.658,1.457,2.678,1.917c1.02,0.46,2.108,0.69,3.264,0.69
		c1.156,0,2.244-0.23,3.264-0.69c1.02-0.46,1.913-1.099,2.678-1.917c0.766-0.818,1.369-1.772,1.811-2.864
		C450.669,47.345,450.89,46.169,450.89,44.907z"/>
	<path fill="#000100" d="M489.057,59.685h-7.368v-2.25c-0.478,0.477-1.032,0.895-1.663,1.253c-0.631,0.358-1.297,0.665-1.995,0.92
		c-0.699,0.255-1.416,0.451-2.149,0.588c-0.733,0.136-1.424,0.205-2.072,0.205c-1.501,0-2.942-0.239-4.323-0.716
		c-1.382-0.477-2.602-1.21-3.659-2.199c-1.057-0.989-1.902-2.267-2.532-3.835c-0.632-1.568-0.947-3.426-0.947-5.573V30.13h7.368
		v17.59c0,1.057,0.161,1.986,0.486,2.787c0.324,0.801,0.75,1.466,1.279,1.994c0.529,0.529,1.142,0.92,1.842,1.176
		c0.698,0.255,1.423,0.383,2.174,0.383c2.387,0,4.451-0.818,6.191-2.454V30.13h7.368V59.685z M485.476,26.448h-5.526l-4.349-4.346
		l-4.4,4.346h-5.526l6.6-9.869h6.599L485.476,26.448z"/>
	<path fill="#000100" d="M511.67,59.021c-0.751,0.478-1.621,0.835-2.609,1.074c-0.99,0.238-1.979,0.358-2.968,0.358
		c-1.74,0-3.206-0.213-4.4-0.639c-1.194-0.426-2.149-1.082-2.865-1.969c-0.717-0.886-1.237-2.011-1.561-3.375
		c-0.325-1.363-0.486-2.966-0.486-4.806V36.726h-3.889v-3.324c2.387-0.988,4.323-2.454,5.807-4.398s2.498-4.465,3.044-7.568h2.405
		v8.642h7.47v6.647h-7.47v13.448c0,0.75,0.094,1.364,0.282,1.841c0.186,0.478,0.434,0.853,0.742,1.125
		c0.307,0.273,0.656,0.46,1.049,0.562c0.392,0.102,0.81,0.153,1.253,0.153c0.579,0,1.279-0.102,2.097-0.307
		c0.819-0.205,1.517-0.545,2.098-1.023V59.021z"/>
</g>
<line fill="none" stroke="#000000" stroke-linecap="round" stroke-linejoin="round" stroke-miterlimit="10" x1="111.937" y1="83.617" x2="111.937" y2="14.617"/>
<text transform="matrix(1.0005 0 0 1 142.4791 82.9397)" fill="#231F20" font-family="'Quicksand-Regular'" font-size="15.1856">Mobilier design et décoration</text>
<path fill="#989392" d="M42.435,60.923l-6.949-0.382L33.6,58.366l-4.01-1.18l2.79,3.184l-2.914-0.16l-1.641-0.09l0.001-0.002
	l-1.168-0.074l1.558-3.365l-0.97-0.349l-8.407,18.195l0.874,0.479h0.02l6.098-13.171l1.187,0.053l0.002-0.004l3.573,0.19
	l3.211,0.171l6.833,8.192l-4.534,16.833l1.098,1.077l7.155-26.847L42.435,60.923z"/>
<path fill="#0D0C0D" d="M66.509,12.9l-7.842,14.065c0,0-6.523,10.997-7.468,12.308c-0.944,1.311-4.641,7.468-9.599,7.327
	c-4.959-0.142-10.509-3.115-11.501-3.634s-3.971-2.266-7.135-3.692c-3.164-1.427-9.878-2.255-9.878-2.255l-0.59,5.357
	c0.657,1.632,2.392,4.083,3.856,6.112s4.447,4.295,4.447,4.295c3.306,2.69,8.878,4.437,8.878,4.437l28.075,8.26l3.801-0.236
	c0,0,2.645,0.189,6.659-4.201c4.014-4.389,5.172-12.296,5.361-13.288s2.1-9.085,2.242-9.84c0.142-0.755,2.833-10.997,3.022-11.752
	s3.164-11.28,3.164-11.28l-1.018-1.002L66.509,12.9z"/>
<polyline fill="#0D0C0D" points="38.603,88.087 45.375,63.123 63.159,68.285 65.568,73.867 67.032,74.204 67.268,73.216 
	63.802,64.542 61.935,65.193 62.498,66.883 44.353,61.474 37.198,88.32 "/>
<path fill="none" stroke="#000000" stroke-width="5" stroke-miterlimit="10" d="M35.515,61.355"/>
<path fill="none" stroke="#000000" stroke-width="5" stroke-miterlimit="10" d="M37.011,63.123"/>
<polygon fill="#FFFFFF" points="37.293,62.421 41.382,67.205 42.697,62.719 "/>
<path stroke="#000000" stroke-width="5" stroke-miterlimit="10" d="M38.241,66.18"/>
<path fill="none" d="M27.856,61.924"/>
<g>
	<polygon fill="#0D0C0D" points="29.264,57.089 28.217,56.707 26.67,60.052 27.827,60.117 	"/>
	<polygon fill="#0D0C0D" points="19.733,75.003 20.85,75.099 26.838,61.875 25.857,61.812 	"/>
	<polygon fill="#0D0C0D" points="36.391,62.364 41.106,68.122 41.378,67.193 37.293,62.421 	"/>
	<polyline fill="#0D0C0D" points="34.695,60.485 32.629,58.044 33.596,58.354 35.483,60.529 34.695,60.485 	"/>
</g>
<g>
	<polygon fill="#0D0C0D" points="26.67,60.052 27.827,60.117 29.264,57.089 28.217,56.707 	"/>
	<polygon fill="#0D0C0D" points="37.293,62.421 36.391,62.364 41.106,68.122 41.378,67.193 	"/>
	<polygon fill="#0D0C0D" points="32.63,58.044 34.695,60.485 35.482,60.529 33.596,58.354 	"/>
</g>
<g>
	<polygon fill="none" points="41.382,67.205 42.697,62.719 37.293,62.421 	"/>
	<polygon fill="none" points="41.382,67.205 42.697,62.719 37.293,62.421 	"/>
	<polygon fill="none" points="27.018,61.884 30.593,62.07 27.02,61.88 	"/>
</g>
<path fill="#989392" d="M80.983,13.88c0,0-3.089,10.3-3.278,11.055c-0.189,0.755-2.881,11.092-3.022,11.847
	c-0.142,0.755-1.165,4.531-1.354,5.522c0,0-1.102,4.563-1.417,5.632s-1.511,7.678-5.163,8.307c-3.652,0.629-6.108-3.744-8.878-4.594
	c-1.906-0.585-4.66-0.464-5.637-0.503l-0.792,3.649c0,0,0.824,0.04,0.826,0.04c1.889,0.189,2.821-0.246,4.583,0.327
	c1.776,0.578,5.743,4.283,9.269,4.124c3.526-0.16,5.643-4.535,5.888-5.253c0.245-0.718,0.773-2.415,0.847-2.681
	c0.074-0.267,2.425-10.889,2.694-12.163c0.268-1.274,3.744-14.68,4.075-15.861c0.331-1.181,2.379-8.447,2.379-8.447"/>
<path fill="#989392" d="M52.233,51.146c0,0-3.619-0.503-6.83,0c-3.211,0.503-9.508,3.021-14.041,2.706
	c-4.534-0.315-7.052-2.014-8.374-2.832c-1.322-0.818-3.655-2.604-4.827-3.976c-0.568-0.665-2.308-2.737-2.645-3.286
	c-0.337-0.548-0.86-1.144-1.606-2.941c-0.748-1.801-0.823-3.799-0.823-3.799l-0.59,5.357c0,0,0.774,1.57,1.696,3.115
	c0.792,1.327,1.896,2.793,2.291,3.346c0.576,0.807,1.807,2.135,3.556,3.568c1.278,1.047,2.867,1.887,4.406,2.691
	c3.644,1.903,6.886,2.654,11.609,2.09c4.722-0.564,6.123-1.76,8.768-2.075c2.641-0.314,4.725-0.503,6.612-0.315L52.233,51.146
	C51.896,51.133,52.233,51.146,52.233,51.146z"/>
<line fill="#221F1F" stroke="#231F20" stroke-miterlimit="10" x1="51.441" y1="55.565" x2="52.454" y2="50.92"/>
</svg>
