<?xml version="1.0" encoding="utf-8"?>
<!-- Generator: Adobe Illustrator 17.0.0, SVG Export Plug-In . SVG Version: 6.00 Build 0)  -->
<!DOCTYPE svg PUBLIC "-//W3C//DTD SVG 1.1//EN" "http://www.w3.org/Graphics/SVG/1.1/DTD/svg11.dtd">
<svg version="1.1" id="Calque_1" xmlns="http://www.w3.org/2000/svg" xmlns:xlink="http://www.w3.org/1999/xlink" x="0px" y="0px"
	 width="538.6px" height="119.8px" viewBox="-14.4 0 538.6 119.8" style="enable-background:new -14.4 0 538.6 119.8;"
	 xml:space="preserve">
<style type="text/css">
	.st0{fill:#FFFFFF;}
	.st1{fill:#FFFFFF;stroke:#FFFFFF;stroke-linecap:round;stroke-linejoin:round;stroke-miterlimit:10;}
	.st2{enable-background:new    ;}
	.st3{fill:none;stroke:#000000;stroke-width:6.2853;stroke-miterlimit:10;}
	.st4{fill:#989392;}
	.st5{stroke:#000000;stroke-width:6.2853;stroke-miterlimit:10;}
	.st6{fill:none;}
	.st7{fill:#0D0C0D;}
	.st8{fill:#FFFFFF;stroke:#FFFFFF;stroke-width:1.257;stroke-miterlimit:10;}
</style>
<g>
	<path class="st0" d="M170.7,59.7h-7.4V42c0-1.1-0.2-2-0.5-2.8s-0.8-1.5-1.3-2s-1.1-0.9-1.9-1.2c-0.7-0.3-1.4-0.4-2.2-0.4
		c-1.1,0-2.2,0.2-3.2,0.5s-2,0.8-3,1.4v12.1H144V17.3h7.4l0.1,14.5c1.1-0.9,2.4-1.5,3.8-1.9c1.4-0.4,2.8-0.6,4.1-0.6
		c1.5,0,3,0.2,4.3,0.7c1.4,0.5,2.6,1.2,3.6,2.3c1.1,1,1.9,2.3,2.5,3.8s0.9,3.3,0.9,5.4L170.7,59.7L170.7,59.7z"/>
	<path class="st0" d="M206.9,44.9c0,2.2-0.4,4.3-1.2,6.2s-1.9,3.5-3.4,4.9c-1.4,1.4-3.1,2.5-5,3.3s-4,1.2-6.2,1.2s-4.2-0.4-6.1-1.2
		s-3.6-1.9-5-3.3c-1.4-1.4-2.6-3-3.4-4.9c-0.8-1.9-1.2-3.9-1.2-6.1c0-2.1,0.4-4.2,1.3-6.1c0.8-1.9,2-3.5,3.4-5
		c1.4-1.4,3.1-2.5,5-3.3s3.9-1.2,6.1-1.2c2.2,0,4.2,0.4,6.2,1.2c1.9,0.8,3.6,1.9,5,3.3c1.4,1.4,2.6,3,3.4,4.9
		C206.5,40.7,206.9,42.7,206.9,44.9z M199.5,44.9c0-1.3-0.2-2.4-0.7-3.5c-0.4-1.1-1-2-1.8-2.9c-0.8-0.8-1.7-1.5-2.7-1.9
		c-1-0.5-2.1-0.7-3.3-0.7s-2.2,0.2-3.3,0.7c-1,0.5-1.9,1.1-2.7,1.9c-0.8,0.8-1.4,1.8-1.8,2.9c-0.4,1.1-0.7,2.3-0.7,3.5
		c0,1.3,0.2,2.4,0.7,3.5c0.4,1.1,1,2,1.8,2.9c0.8,0.8,1.7,1.5,2.7,1.9c1,0.5,2.1,0.7,3.3,0.7s2.2-0.2,3.3-0.7c1-0.5,1.9-1.1,2.7-1.9
		c0.8-0.8,1.4-1.8,1.8-2.9C199.3,47.3,199.5,46.2,199.5,44.9z"/>
	<path class="st0" d="M255.3,59.7h-7.4V42c0-2.1-0.5-3.7-1.5-4.7c-1-1.1-2.2-1.6-3.7-1.6c-1.1,0-2.2,0.2-3.2,0.5
		c-1,0.4-2,0.9-2.9,1.8c0.3,1.2,0.5,2.5,0.5,4v17.6h-7.4V42c0-2.1-0.5-3.7-1.5-4.7c-1-1.1-2.2-1.6-3.7-1.6c-1.1,0-2.1,0.2-3,0.6
		c-0.9,0.4-1.7,1-2.7,1.9v21.5h-7.4V30.1h7.4v2.2c0.9-0.9,2-1.6,3.3-2.1c1.2-0.5,2.5-0.8,3.8-0.8c1.4,0,2.9,0.3,4.3,1
		c1.5,0.6,2.7,1.6,3.8,2.8c1.5-1.4,3.1-2.3,4.7-2.9c1.6-0.6,3.3-0.9,5.2-0.9c1.5,0,3,0.2,4.4,0.7s2.6,1.2,3.6,2.2s1.8,2.3,2.5,3.8
		c0.6,1.6,0.9,3.4,0.9,5.6L255.3,59.7L255.3,59.7z"/>
	<path class="st0" d="M289.6,37.5c0.2,0.4,0.4,0.9,0.6,1.3c0.2,0.5,0.4,1,0.6,1.5l-20.9,11c0.6,0.6,1.4,1.2,2.1,1.6
		c0.8,0.4,1.6,0.8,2.5,0.9c0.9,0.2,1.8,0.2,2.8,0c1-0.1,1.9-0.5,2.9-1c1.2-0.6,2.2-1.4,3.2-2.5c1-1,1.7-2.1,2.1-3.2l6.3,2
		c-1.1,2.3-2.4,4.2-3.8,5.7s-3.1,2.7-5.1,3.7s-4,1.6-6.1,1.8s-4.1,0-6-0.6s-3.7-1.5-5.3-2.8c-1.6-1.3-2.9-2.9-3.9-4.8
		c-1-1.9-1.6-3.9-1.7-5.9c-0.2-2.1,0.1-4,0.7-5.9s1.6-3.7,2.9-5.3s2.9-2.9,4.9-3.9c1.8-1,3.8-1.6,5.8-1.8c2-0.2,4-0.1,6,0.5
		c1.9,0.5,3.7,1.4,5.4,2.7C287.2,33.9,288.5,35.5,289.6,37.5z M281.4,38.6c-1.4-1.4-3-2.2-4.8-2.6c-1.8-0.3-3.6,0-5.3,0.8
		c-1.6,0.9-2.8,2.1-3.6,3.8c-0.8,1.7-1,3.5-0.6,5.4L281.4,38.6z"/>
	<path class="st0" d="M339.6,59.7H332v-1.5c-1,0.8-2,1.4-3.1,1.7c-1.1,0.4-2.3,0.5-3.6,0.5c-2.1,0-4-0.4-5.7-1.3
		c-1.7-0.8-3.2-2-4.5-3.4s-2.2-3.1-2.9-4.9c-0.7-1.9-1-3.9-1-5.9c0-2.2,0.4-4.3,1.2-6.2s1.9-3.5,3.2-4.9c1.3-1.4,2.8-2.5,4.6-3.3
		c1.7-0.8,3.5-1.2,5.3-1.2c1.3,0,2.5,0.2,3.7,0.5s2.2,0.8,3.1,1.4v-14h7.5v42.5H339.6z M332.1,51.8V37.5c-0.3-0.2-0.7-0.5-1.2-0.7
		c-0.4-0.2-0.9-0.4-1.4-0.6c-0.5-0.2-1-0.3-1.4-0.4c-0.5-0.1-0.9-0.1-1.3-0.1c-1.2,0-2.4,0.2-3.4,0.6c-1,0.4-1.9,1-2.6,1.8
		c-0.8,0.8-1.3,1.8-1.7,2.9c-0.4,1.1-0.6,2.4-0.6,3.7s0.2,2.5,0.6,3.7c0.4,1.1,1,2.1,1.7,2.9c0.7,0.8,1.6,1.4,2.6,1.9
		c1,0.4,2.1,0.7,3.3,0.7C328.7,54,330.5,53.2,332.1,51.8z"/>
	<path class="st0" d="M374.3,37.4c0.2,0.4,0.4,0.9,0.6,1.3c0.2,0.5,0.4,1,0.6,1.5l-20.8,11.2c0.6,0.6,1.4,1.2,2.2,1.6
		c0.8,0.4,1.6,0.7,2.5,0.9s1.8,0.2,2.8,0c0.9-0.1,1.9-0.5,2.9-1c1.2-0.6,2.2-1.5,3.2-2.5s1.6-2.1,2-3.2l6.3,1.9
		c-1.1,2.3-2.3,4.2-3.8,5.7c-1.4,1.5-3.1,2.7-5,3.8c-2,1-4,1.7-6.1,1.9s-4.1,0-6-0.6s-3.7-1.5-5.3-2.8c-1.6-1.3-2.9-2.9-3.9-4.8
		c-1-1.9-1.6-3.9-1.8-5.9c-0.2-2.1,0-4,0.6-5.9s1.6-3.7,2.8-5.3c1.3-1.6,2.9-3,4.8-4c1.8-1,3.8-1.6,5.8-1.8c2-0.2,4-0.1,6,0.4
		c1.9,0.5,3.7,1.4,5.4,2.7C371.9,33.7,373.3,35.4,374.3,37.4z M366.2,38.5c-1.4-1.4-3-2.2-4.9-2.5c-1.8-0.3-3.6,0-5.3,0.9
		c-1.6,0.9-2.8,2.2-3.6,3.9c-0.8,1.7-0.9,3.5-0.6,5.4L366.2,38.5z"/>
	<path class="st0" d="M424.1,36H421c0.8,1.5,1.2,3.2,1.2,4.9c0,1.3-0.2,2.6-0.7,3.9c-0.5,1.2-1.2,2.4-2.1,3.4s-2,1.9-3.4,2.6
		c-1.3,0.7-2.8,1.2-4.4,1.4c-1.1,0.2-2,0.4-2.5,0.8c-0.6,0.4-0.8,0.7-0.8,1.1c0,0.4,0.3,0.7,0.8,1c0.6,0.3,1.4,0.5,2.5,0.6
		c3.8,0.3,6.8,1.3,8.9,2.9c2.1,1.6,3.1,3.6,3.1,6.2c0,1.3-0.3,2.6-1,3.7c-0.6,1.1-1.6,2.1-2.8,2.9c-1.2,0.8-2.7,1.4-4.4,1.9
		c-1.7,0.4-3.6,0.7-5.7,0.7s-4.1-0.2-5.8-0.7c-1.7-0.4-3.2-1.1-4.4-1.9c-1.2-0.8-2.2-1.8-2.8-2.9c-0.6-1.1-1-2.4-1-3.7
		c0-2,0.6-3.8,1.8-5.1c1.2-1.4,3.1-2.4,5.7-3.1c-0.8-0.3-1.4-0.7-1.8-1.3c-0.4-0.5-0.5-1.1-0.5-1.6s0.3-1.1,0.7-1.6
		c0.4-0.5,1-0.9,1.8-1.2c-0.9-0.4-1.7-0.9-2.6-1.6c-0.8-0.6-1.5-1.4-2.2-2.2c-0.7-0.9-1.2-1.8-1.5-2.9c-0.4-1.1-0.6-2.2-0.6-3.4
		c0-1.6,0.3-3.1,1-4.5s1.6-2.6,2.8-3.7c1.2-1,2.5-1.9,4-2.5s3.2-0.9,4.9-0.9c1.7,0,3.2,0.3,4.7,0.8H424L424.1,36L424.1,36z
		 M416.2,64.7c0-1.2-0.6-2.1-1.8-2.6c-1.2-0.5-2.8-0.8-4.7-0.8c-2,0-3.6,0.3-4.8,0.9c-1.2,0.6-1.8,1.4-1.8,2.6c0,1.2,0.6,2,1.8,2.6
		c1.2,0.6,2.8,0.9,4.7,0.9c2,0,3.5-0.3,4.7-0.8C415.6,66.8,416.2,65.9,416.2,64.7z M414.8,40.9c0-0.7-0.1-1.4-0.4-2.1
		c-0.3-0.6-0.7-1.2-1.2-1.7s-1.1-0.9-1.7-1.2c-0.7-0.3-1.4-0.4-2.1-0.4s-1.4,0.1-2.1,0.4c-0.6,0.3-1.2,0.7-1.7,1.2s-0.9,1.1-1.2,1.7
		c-0.3,0.6-0.4,1.3-0.4,2.1s0.1,1.5,0.4,2.1c0.3,0.7,0.7,1.2,1.2,1.7s1.1,0.9,1.7,1.2s1.3,0.4,2.1,0.4c0.7,0,1.4-0.1,2.1-0.4
		c0.7-0.3,1.2-0.7,1.7-1.2s0.9-1.1,1.2-1.7C414.7,42.3,414.8,41.6,414.8,40.9z"/>
	<path class="st0" d="M458.3,44.9c0,2.2-0.4,4.3-1.2,6.2c-0.8,1.9-1.9,3.5-3.4,4.9c-1.4,1.4-3.1,2.5-5,3.3s-4,1.2-6.2,1.2
		s-4.2-0.4-6.1-1.2s-3.6-1.9-5-3.3c-1.4-1.4-2.6-3-3.4-4.9s-1.2-3.9-1.2-6.1c0-2.1,0.4-4.2,1.3-6.1c0.8-1.9,2-3.5,3.4-5
		c1.4-1.4,3.1-2.5,5-3.3s3.9-1.2,6.1-1.2s4.2,0.4,6.2,1.2c1.9,0.8,3.6,1.9,5,3.3c1.4,1.4,2.6,3,3.4,4.9
		C457.8,40.7,458.3,42.7,458.3,44.9z M450.9,44.9c0-1.3-0.2-2.4-0.7-3.5c-0.4-1.1-1-2-1.8-2.9c-0.8-0.8-1.7-1.5-2.7-1.9
		c-1-0.5-2.1-0.7-3.3-0.7c-1.2,0-2.2,0.2-3.3,0.7c-1,0.5-1.9,1.1-2.7,1.9c-0.8,0.8-1.4,1.8-1.8,2.9c-0.4,1.1-0.7,2.3-0.7,3.5
		c0,1.3,0.2,2.4,0.7,3.5c0.4,1.1,1,2,1.8,2.9c0.8,0.8,1.7,1.5,2.7,1.9c1,0.5,2.1,0.7,3.3,0.7c1.2,0,2.2-0.2,3.3-0.7
		c1-0.5,1.9-1.1,2.7-1.9c0.8-0.8,1.4-1.8,1.8-2.9C450.7,47.3,450.9,46.2,450.9,44.9z"/>
	<path class="st0" d="M489.1,59.7h-7.4v-2.2c-0.5,0.5-1,0.9-1.7,1.3c-0.6,0.4-1.3,0.7-2,0.9c-0.7,0.3-1.4,0.5-2.1,0.6
		s-1.4,0.2-2.1,0.2c-1.5,0-2.9-0.2-4.3-0.7s-2.6-1.2-3.7-2.2s-1.9-2.3-2.5-3.8c-0.6-1.6-0.9-3.4-0.9-5.6V30.1h7.4v17.6
		c0,1.1,0.2,2,0.5,2.8s0.7,1.5,1.3,2c0.5,0.5,1.1,0.9,1.8,1.2c0.7,0.3,1.4,0.4,2.2,0.4c2.4,0,4.5-0.8,6.2-2.5V30.1h7.4L489.1,59.7
		L489.1,59.7z M485.5,26.4H480l-4.3-4.3l-4.4,4.3h-5.5l6.6-9.9h6.6L485.5,26.4z"/>
	<path class="st0" d="M511.7,59c-0.8,0.5-1.6,0.8-2.6,1.1c-1,0.2-2,0.4-3,0.4c-1.7,0-3.2-0.2-4.4-0.6c-1.2-0.4-2.1-1.1-2.9-2
		c-0.7-0.9-1.2-2-1.6-3.4c-0.3-1.4-0.5-3-0.5-4.8v-13h-3.9v-3.3c2.4-1,4.3-2.5,5.8-4.4s2.5-4.5,3-7.6h2.4V30h7.5v6.6H504V50
		c0,0.8,0.1,1.4,0.3,1.8c0.2,0.5,0.4,0.9,0.7,1.1c0.3,0.3,0.7,0.5,1,0.6c0.4,0.1,0.8,0.2,1.3,0.2c0.6,0,1.3-0.1,2.1-0.3
		c0.8-0.2,1.5-0.5,2.1-1V59H511.7z"/>
</g>
<line class="st1" x1="111.9" y1="105.6" x2="111.9" y2="14.6"/>
<g class="st2">
	<path class="st0" d="M154.8,87.2l-5.1,7c-0.1,0.2-0.3,0.2-0.5,0.2h0c-0.2,0-0.4-0.1-0.5-0.2l-5.1-7v13c0,0.3-0.2,0.5-0.5,0.5
		c-0.3,0-0.6-0.2-0.6-0.5V85.6c0-0.2,0.1-0.3,0.2-0.4c0,0,0,0,0,0c0.2-0.2,0.6-0.1,0.8,0.1l5.6,7.8l5.6-7.8c0.2-0.2,0.5-0.3,0.8-0.1
		c0.1,0.1,0.1,0.1,0.2,0.2c0,0.1,0.1,0.2,0.1,0.3v14.6c0,0.3-0.2,0.5-0.5,0.5c-0.3,0-0.5-0.2-0.5-0.5V87.2z"/>
	<path class="st0" d="M166.1,89.7c2.9,0,5.2,2.5,5.2,5.5c0,3-2.3,5.5-5.2,5.5c-2.9,0-5.2-2.5-5.2-5.5
		C160.9,92.2,163.2,89.7,166.1,89.7z M166.1,99.7c2.3,0,4.2-2,4.2-4.5c0-2.5-1.9-4.5-4.2-4.5c-2.3,0-4.2,2-4.2,4.5
		C162,97.7,163.9,99.7,166.1,99.7z"/>
	<path class="st0" d="M175.5,95.5v-0.2V95v-9.5c0-0.3,0.2-0.5,0.5-0.5c0.3,0,0.6,0.2,0.6,0.5v6.4c1-1.3,2.5-2.2,4.3-2.2
		c3,0,5.4,2.5,5.4,5.6c0,3-2.4,5.5-5.4,5.5c-1.7,0-3.3-0.8-4.3-2.1v1.6c0,0.3-0.2,0.5-0.6,0.5c-0.3,0-0.5-0.2-0.5-0.5V95.5z
		 M176.6,95.2c0,2.4,1.9,4.4,4.3,4.4c2.4,0,4.3-2,4.3-4.4c0-2.5-1.9-4.5-4.3-4.5c-2.3,0-4.2,1.9-4.3,4.3V95.2z"/>
	<path class="st0" d="M190.5,86.6c0-0.3,0.2-0.5,0.5-0.5c0.3,0,0.6,0.2,0.6,0.5v0.5c0,0.3-0.2,0.6-0.6,0.6c-0.3,0-0.5-0.3-0.5-0.6
		V86.6z M190.5,90.2c0-0.3,0.2-0.5,0.5-0.5c0.3,0,0.6,0.2,0.6,0.5v10c0,0.3-0.2,0.5-0.6,0.5c-0.3,0-0.5-0.2-0.5-0.5V90.2z"/>
	<path class="st0" d="M196.5,85.5c0-0.3,0.2-0.5,0.5-0.5c0.3,0,0.6,0.2,0.6,0.5v14.7c0,0.3-0.2,0.5-0.6,0.5c-0.3,0-0.5-0.2-0.5-0.5
		V85.5z"/>
	<path class="st0" d="M202,86.6c0-0.3,0.2-0.5,0.5-0.5c0.3,0,0.6,0.2,0.6,0.5v0.5c0,0.3-0.2,0.6-0.6,0.6c-0.3,0-0.5-0.3-0.5-0.6
		V86.6z M202,90.2c0-0.3,0.2-0.5,0.5-0.5c0.3,0,0.6,0.2,0.6,0.5v10c0,0.3-0.2,0.5-0.6,0.5c-0.3,0-0.5-0.2-0.5-0.5V90.2z"/>
	<path class="st0" d="M207.5,95.2c0-3.1,2.4-5.6,5.4-5.6c2.8,0,5.1,2.3,5.3,5.2v0v0.1c0,0.3-0.2,0.5-0.5,0.5h-9.1
		c0.1,2.4,2,4.3,4.3,4.3c1.5,0,2.8-0.8,3.6-2c0.2-0.3,0.5-0.3,0.7-0.2c0.2,0.2,0.3,0.5,0.2,0.8c-0.9,1.5-2.6,2.5-4.5,2.5
		C209.9,100.8,207.5,98.3,207.5,95.2z M208.7,94.4h8.4c-0.4-2.1-2.1-3.6-4.2-3.6C210.8,90.8,209.1,92.3,208.7,94.4z"/>
	<path class="st0" d="M221.6,90.3c0-0.3,0.2-0.5,0.6-0.5c0.3,0,0.5,0.2,0.5,0.5v2.4c0-0.1,0.1-0.2,0.2-0.3c0.8-1.3,2.3-2.7,4.4-2.7
		c0.3,0,0.5,0.2,0.5,0.5c0,0.3-0.2,0.5-0.5,0.5c-1.4,0-2.4,0.8-3.2,1.8c-0.7,1-1.2,2.1-1.3,2.6c0,0.1,0,0.1,0,0.2v4.9
		c0,0.3-0.2,0.5-0.5,0.5c-0.3,0-0.6-0.2-0.6-0.5V90.3z"/>
	<path class="st0" d="M247.2,98.6c-1,1.3-2.5,2.1-4.3,2.1c-3,0-5.4-2.5-5.4-5.5c0-3.1,2.4-5.6,5.4-5.6c1.7,0,3.3,0.9,4.3,2.2v-6.4
		c0-0.3,0.2-0.5,0.6-0.5c0.3,0,0.5,0.2,0.5,0.5V95v0.2v5c0,0.3-0.2,0.5-0.5,0.5c-0.3,0-0.6-0.2-0.6-0.5V98.6z M247.2,95.4v-0.4
		c-0.1-2.4-2-4.3-4.3-4.3c-2.3,0-4.3,2-4.3,4.5c0,2.4,1.9,4.4,4.3,4.4C245.2,99.7,247.1,97.8,247.2,95.4z"/>
	<path class="st0" d="M252.1,95.2c0-3.1,2.4-5.6,5.4-5.6c2.8,0,5.1,2.3,5.3,5.2v0v0.1c0,0.3-0.2,0.5-0.5,0.5h-9.1
		c0.1,2.4,2,4.3,4.3,4.3c1.5,0,2.8-0.8,3.6-2c0.2-0.3,0.5-0.3,0.7-0.2c0.2,0.2,0.3,0.5,0.2,0.8c-0.9,1.5-2.6,2.5-4.5,2.5
		C254.5,100.8,252.1,98.3,252.1,95.2z M253.3,94.4h8.4c-0.4-2.1-2.1-3.6-4.2-3.6C255.4,90.8,253.7,92.3,253.3,94.4z"/>
	<path class="st0" d="M265.9,98.5c0.2-0.2,0.5-0.3,0.8-0.1c0.8,0.6,2,1.3,3.4,1.3c0.9,0,1.6-0.3,2.1-0.7c0.5-0.4,0.8-0.9,0.8-1.4
		c0-0.5-0.2-0.9-0.8-1.4c-0.5-0.4-1.3-0.6-2.4-0.8l0,0c-1-0.2-1.9-0.4-2.5-0.9c-0.7-0.4-1.2-1.1-1.2-2c0-0.9,0.5-1.6,1.2-2.2
		c0.7-0.5,1.6-0.7,2.7-0.7c1.4,0,2.4,0.7,3.3,1.2c0.2,0.2,0.3,0.5,0.2,0.8c-0.2,0.2-0.5,0.3-0.7,0.2c-0.8-0.5-1.6-1.1-2.7-1.1
		c-0.9,0-1.6,0.2-2.1,0.6c-0.5,0.4-0.7,0.8-0.7,1.3s0.2,0.8,0.6,1.1c0.5,0.3,1.2,0.6,2.3,0.8h0c1.1,0.2,1.9,0.5,2.7,0.9
		c0.7,0.5,1.2,1.3,1.2,2.3c0,0.9-0.5,1.7-1.3,2.2c-0.8,0.6-1.7,0.9-2.8,0.9c-1.8,0-3.2-0.9-4.1-1.6C265.8,99,265.7,98.7,265.9,98.5z
		"/>
	<path class="st0" d="M277.8,86.6c0-0.3,0.2-0.5,0.5-0.5c0.3,0,0.6,0.2,0.6,0.5v0.5c0,0.3-0.2,0.6-0.6,0.6c-0.3,0-0.5-0.3-0.5-0.6
		V86.6z M277.8,90.2c0-0.3,0.2-0.5,0.5-0.5c0.3,0,0.6,0.2,0.6,0.5v10c0,0.3-0.2,0.5-0.6,0.5c-0.3,0-0.5-0.2-0.5-0.5V90.2z"/>
	<path class="st0" d="M293.8,99.9c0,2.9-2.3,5.2-5.2,5.2c-0.8,0-1.6-0.2-2.3-0.5c-0.2-0.2-0.4-0.5-0.2-0.7c0.1-0.3,0.5-0.4,0.7-0.2
		c0.6,0.3,1.1,0.4,1.8,0.4c2.3,0,4.1-1.8,4.1-4.1v-1.4c-0.9,1.3-2.4,2.2-4.1,2.2c-2.9,0-5.2-2.5-5.2-5.5c0-3,2.3-5.5,5.2-5.5
		c1.7,0,3.2,0.9,4.1,2.2v-1.6c0-0.3,0.2-0.5,0.6-0.5c0.3,0,0.5,0.2,0.5,0.5V99.9z M292.8,95.2c0-2.5-1.9-4.4-4.1-4.4
		c-2.3,0-4.1,1.9-4.1,4.4c0,2.5,1.9,4.5,4.1,4.5C290.9,99.6,292.8,97.7,292.8,95.2z"/>
	<path class="st0" d="M307,94.2c0-1.9-1.5-3.4-3.4-3.4c-1.9,0-3.4,1.5-3.4,3.4v6v0.1c0,0.1,0,0.2-0.1,0.2c-0.1,0.1-0.2,0.2-0.4,0.2
		h-0.1c-0.2,0-0.3-0.2-0.4-0.3c0,0,0,0,0-0.1s0,0,0,0v-0.1v-6V94v-3.8c0-0.3,0.2-0.5,0.5-0.5c0.3,0,0.5,0.2,0.5,0.5v1.1
		c0.8-1,2.1-1.6,3.4-1.6c2.5,0,4.5,2,4.5,4.5v6c0,0.3-0.2,0.5-0.5,0.5c-0.3,0-0.5-0.2-0.5-0.5V94.2z"/>
	<path class="st0" d="M318.9,95.2c0-3.1,2.4-5.6,5.4-5.6c2.8,0,5.1,2.3,5.3,5.2v0v0.1c0,0.3-0.2,0.5-0.5,0.5H320
		c0.1,2.4,2,4.3,4.3,4.3c1.5,0,2.8-0.8,3.6-2c0.2-0.3,0.5-0.3,0.7-0.2c0.2,0.2,0.3,0.5,0.2,0.8c-1,1.5-2.6,2.5-4.5,2.5
		C321.3,100.8,318.9,98.3,318.9,95.2z M320.1,94.4h8.4c-0.4-2.1-2.1-3.6-4.2-3.6C322.2,90.8,320.5,92.3,320.1,94.4z"/>
	<path class="st0" d="M336.5,90.2c0,0.3-0.3,0.5-0.5,0.5h-1.4v8.1c0,0.5,0.5,0.8,0.8,0.8c0.3,0,0.6,0.3,0.6,0.6s-0.3,0.5-0.6,0.5
		c-1.1,0-1.9-0.8-1.9-1.9v-8.1H332c-0.5,0-0.5-0.3-0.5-0.5s0-0.5,0.5-0.5h1.4v-4.1c0-0.3,0.3-0.5,0.5-0.5c0.3,0,0.6,0.3,0.6,0.5v4.1
		h1.4C336.2,89.7,336.5,90,336.5,90.2z"/>
	<path class="st0" d="M357.3,98.6c-1,1.3-2.5,2.1-4.3,2.1c-3,0-5.4-2.5-5.4-5.5c0-3.1,2.4-5.6,5.4-5.6c1.7,0,3.3,0.9,4.3,2.2v-6.4
		c0-0.3,0.2-0.5,0.6-0.5c0.3,0,0.5,0.2,0.5,0.5V95v0.2v5c0,0.3-0.2,0.5-0.5,0.5c-0.3,0-0.6-0.2-0.6-0.5V98.6z M357.3,95.4v-0.4
		c-0.1-2.4-2-4.3-4.3-4.3c-2.3,0-4.3,2-4.3,4.5c0,2.4,1.9,4.4,4.3,4.4C355.3,99.7,357.2,97.8,357.3,95.4z"/>
	<path class="st0" d="M367.9,100.8c-3,0-5.4-2.5-5.4-5.5c0-3.1,2.4-5.6,5.4-5.6c2.8,0,5.1,2.3,5.3,5.2v0v0.1c0,0.3-0.2,0.5-0.5,0.5
		h-9.1c0.1,2.4,2,4.3,4.3,4.3c1.5,0,2.8-0.8,3.6-2c0.2-0.3,0.5-0.3,0.7-0.2c0.2,0.2,0.3,0.5,0.2,0.8
		C371.5,99.8,369.8,100.8,367.9,100.8z M367.9,90.8c-2.1,0-3.8,1.5-4.2,3.6h8.4C371.7,92.3,370,90.8,367.9,90.8z M366.7,87.9
		c0.3,0,0.5,0,0.7-0.3l1.8-1.7c0.1-0.1,0.2-0.3,0.2-0.4c0-0.2-0.5-0.5-0.9-0.5c-0.3,0-0.5,0.1-0.6,0.4l-1.4,2.1
		c0,0.1-0.1,0.2-0.1,0.2C366.4,87.8,366.5,87.9,366.7,87.9z"/>
	<path class="st0" d="M376.3,95.2c0-3.1,2.5-5.5,5.7-5.5c1.3,0,2.6,0.5,3.5,1.2c0.2,0.2,0.3,0.5,0.1,0.7c-0.2,0.2-0.5,0.3-0.7,0.1
		c-0.8-0.6-1.8-1-2.8-1c-2.6,0-4.6,2-4.6,4.5c0,2.5,2,4.5,4.6,4.5c1.1,0,2.1-0.4,2.8-1c0.2-0.2,0.6-0.1,0.7,0.1
		c0.2,0.2,0.2,0.6-0.1,0.8c-0.9,0.7-2.2,1.2-3.5,1.2C378.9,100.8,376.3,98.3,376.3,95.2z"/>
	<path class="st0" d="M394.4,89.7c2.9,0,5.2,2.5,5.2,5.5c0,3-2.3,5.5-5.2,5.5c-2.9,0-5.2-2.5-5.2-5.5
		C389.2,92.2,391.5,89.7,394.4,89.7z M394.4,99.7c2.3,0,4.2-2,4.2-4.5c0-2.5-1.9-4.5-4.2-4.5c-2.3,0-4.2,2-4.2,4.5
		C390.3,97.7,392.2,99.7,394.4,99.7z"/>
	<path class="st0" d="M403.4,90.3c0-0.3,0.2-0.5,0.6-0.5c0.3,0,0.5,0.2,0.5,0.5v2.4c0-0.1,0.1-0.2,0.2-0.3c0.8-1.3,2.3-2.7,4.4-2.7
		c0.3,0,0.5,0.2,0.5,0.5c0,0.3-0.2,0.5-0.5,0.5c-1.4,0-2.4,0.8-3.2,1.8c-0.7,1-1.2,2.1-1.3,2.6c0,0.1,0,0.1,0,0.2v4.9
		c0,0.3-0.2,0.5-0.5,0.5c-0.3,0-0.6-0.2-0.6-0.5V90.3z"/>
	<path class="st0" d="M422,90.2v10c0,0.3-0.2,0.5-0.5,0.5c-0.3,0-0.5-0.2-0.5-0.5v-1.6c-0.9,1.3-2.5,2.2-4.2,2.2
		c-2.9,0-5.2-2.5-5.2-5.5c0-3,2.3-5.5,5.2-5.5c1.7,0,3.2,0.9,4.2,2.2v-1.6c0-0.3,0.2-0.5,0.5-0.5C421.8,89.7,422,89.9,422,90.2z
		 M420.9,95.2c0-2.5-1.9-4.5-4.2-4.5c-2.3,0-4.2,2-4.2,4.5c0,2.5,1.9,4.5,4.2,4.5C419.1,99.7,420.9,97.7,420.9,95.2z"/>
	<path class="st0" d="M430.6,90.2c0,0.3-0.3,0.5-0.5,0.5h-1.4v8.1c0,0.5,0.5,0.8,0.8,0.8c0.3,0,0.6,0.3,0.6,0.6s-0.3,0.5-0.6,0.5
		c-1.1,0-1.9-0.8-1.9-1.9v-8.1h-1.4c-0.5,0-0.5-0.3-0.5-0.5s0-0.5,0.5-0.5h1.4v-4.1c0-0.3,0.3-0.5,0.5-0.5c0.3,0,0.6,0.3,0.6,0.5
		v4.1h1.4C430.3,89.7,430.6,90,430.6,90.2z"/>
	<path class="st0" d="M435.8,86.6c0-0.3,0.2-0.5,0.5-0.5c0.3,0,0.6,0.2,0.6,0.5v0.5c0,0.3-0.2,0.6-0.6,0.6c-0.3,0-0.5-0.3-0.5-0.6
		V86.6z M435.8,90.2c0-0.3,0.2-0.5,0.5-0.5c0.3,0,0.6,0.2,0.6,0.5v10c0,0.3-0.2,0.5-0.6,0.5c-0.3,0-0.5-0.2-0.5-0.5V90.2z"/>
	<path class="st0" d="M446.9,89.7c2.9,0,5.2,2.5,5.2,5.5c0,3-2.3,5.5-5.2,5.5c-2.9,0-5.2-2.5-5.2-5.5
		C441.6,92.2,444,89.7,446.9,89.7z M446.9,99.7c2.3,0,4.2-2,4.2-4.5c0-2.5-1.9-4.5-4.2-4.5s-4.2,2-4.2,4.5
		C442.7,97.7,444.6,99.7,446.9,99.7z"/>
	<path class="st0" d="M464.2,94.2c0-1.9-1.5-3.4-3.4-3.4c-1.9,0-3.4,1.5-3.4,3.4v6v0.1c0,0.1,0,0.2-0.1,0.2
		c-0.1,0.1-0.2,0.2-0.4,0.2h-0.1c-0.2,0-0.3-0.2-0.4-0.3c0,0,0,0,0-0.1s0,0,0,0v-0.1v-6V94v-3.8c0-0.3,0.2-0.5,0.5-0.5
		c0.3,0,0.5,0.2,0.5,0.5v1.1c0.8-1,2.1-1.6,3.4-1.6c2.5,0,4.5,2,4.5,4.5v6c0,0.3-0.2,0.5-0.5,0.5c-0.3,0-0.5-0.2-0.5-0.5V94.2z"/>
</g>
<path class="st0" d="M62.6,12.9l-9.9,17.7c0,0-8.2,13.9-9.4,15.5c-1.1,1.6-5.8,9.4-12,9.2c-6.3-0.2-13.2-3.9-14.4-4.5
	c-1.3-0.7-5-2.8-9-4.7s-12.4-2.8-12.4-2.8L-5.4,50c0.8,2,3,5.1,4.9,7.7c1.9,2.6,5.6,5.5,5.6,5.5c4.2,3.4,11.1,5.6,11.1,5.6L51.5,79
	l4.8-0.3c0,0,3.3,0.2,8.4-5.2s6.5-15.5,6.7-16.7c0.2-1.3,2.6-11.4,2.8-12.4c0.2-0.9,3.5-13.9,3.8-14.8c0.2-0.9,4-14.2,4-14.2
	l-1.3-1.3L62.6,12.9z"/>
<polyline class="st0" points="27.4,107.5 36,76 58.4,82.6 61.3,89.5 63.1,90 63.5,88.7 59.2,77.8 56.8,78.6 57.5,80.8 34.7,73.9 
	25.6,107.7 "/>
<path class="st3" d="M23.6,73.8"/>
<path class="st3" d="M25.4,76"/>
<g>
	<path class="st4" d="M32.2,73.3l-8.8-0.5l-2.4-2.7l-5-1.5l3.5,4L16,72.3l-2-0.1l-1.5-0.1l1.9-4.2l-1.3-0.5L2.6,90.3l1.1,0.6
		l7.7-16.5l1.5,0.1l4.5,0.2l4.1,0.2l8.6,10.3l-5.7,21.1l1.4,1.4l9-33.8L32.2,73.3z M25.9,75.2l6.7,0.3L31,81.2L25.9,75.2z"/>
</g>
<path class="st5" d="M27,79.8"/>
<path class="st6" d="M13.9,74.5"/>
<g>
	<polygon class="st7" points="15.7,68.5 14.4,68 12.4,72.2 13.9,72.2 	"/>
	<polygon class="st0" points="3.7,91 5.2,91.1 12.7,74.5 11.4,74.4 	"/>
	<polygon class="st7" points="24.7,75.1 30.6,82.3 31,81.1 25.9,75.2 	"/>
	<polyline class="st7" points="22.6,72.7 19.9,69.6 21.2,70.1 23.5,72.8 22.6,72.7 	"/>
</g>
<g>
	<polygon class="st0" points="12.4,72.2 13.9,72.2 15.7,68.5 14.4,68 	"/>
	<polygon class="st0" points="25.9,75.2 24.7,75.1 30.6,82.3 31,81.1 	"/>
	<polygon class="st0" points="19.9,69.6 22.6,72.7 23.5,72.8 21.2,70.1 	"/>
</g>
<g>
	<path class="st0" d="M12.9,74.5l4.4,0.2L12.9,74.5z"/>
</g>
<path class="st4" d="M80.7,14.2c0,0-3.9,13-4.1,13.9c-0.3,0.9-3.6,14-3.9,14.9c-0.2,0.9-1.5,5.7-1.7,6.9c0,0-1.4,5.7-1.8,7
	c-0.3,1.4-1.9,9.7-6.5,10.5s-7.7-4.7-11.1-5.8c-2.4-0.7-5.9-0.6-7-0.7l-1,4.5h1c2.4,0.2,3.5-0.3,5.8,0.5c2.3,0.7,7.3,5.3,11.7,5.2
	s7-5.7,7.4-6.6c0.3-0.9,1-3.1,1-3.4c0.1-0.3,3.1-13.6,3.4-15.3c0.3-1.6,4.7-18.4,5.1-19.9c0.5-1.5,3-10.6,3-10.6"/>
<path class="st4" d="M44.6,61c0,0-4.5-0.7-8.6,0c-4,0.7-11.9,3.8-17.6,3.4c-5.7-0.3-8.9-2.5-10.6-3.5c-1.7-1-4.5-3.3-6-5
	c-0.7-0.8-3-3.4-3.3-4.1c-0.5-0.7-1.1-1.5-2-3.8s-1-4.8-1-4.8L-5.4,50c0,0,1,1.9,2.2,3.9c1,1.7,2.4,3.5,2.8,4.2
	c0.7,1,2.3,2.7,4.4,4.4c1.6,1.4,3.6,2.4,5.6,3.4c4.5,2.4,8.6,3.3,14.5,2.6c5.9-0.7,7.7-2.2,11-2.6c3.3-0.3,5.9-0.7,8.3-0.3L44.6,61
	C44.2,61,44.6,61,44.6,61z"/>
<line class="st8" x1="43.6" y1="66.5" x2="44.8" y2="60.7"/>
<path class="st0" d="M159.5,29.9c1.4,0.4,2.7,1,3.8,1.9l0.1-8.5h7.4v36.4h-7.4V37.6c-1-0.6-2-1.1-3-1.4"/>
</svg>
