<?xml version="1.0" encoding="utf-8"?>
<!-- Generator: Adobe Illustrator 17.0.0, SVG Export Plug-In . SVG Version: 6.00 Build 0)  -->
<!DOCTYPE svg PUBLIC "-//W3C//DTD SVG 1.1//EN" "http://www.w3.org/Graphics/SVG/1.1/DTD/svg11.dtd">
<svg version="1.1" xmlns="http://www.w3.org/2000/svg" xmlns:xlink="http://www.w3.org/1999/xlink" x="0px" y="0px" width="538.6px"
	 height="119.8px" viewBox="0 0 538.6 119.8" enable-background="new 0 0 538.6 119.8" xml:space="preserve">
<g id="Calque_1" display="none">
	<g display="inline">
		<path fill="#FFFFFF" d="M170.7,59.7h-7.4V42c0-1.1-0.2-2-0.5-2.8s-0.8-1.5-1.3-2s-1.1-0.9-1.9-1.2c-0.7-0.3-1.4-0.4-2.2-0.4
			c-1.1,0-2.2,0.2-3.2,0.5s-2,0.8-3,1.4v12.1H144V17.3h7.4l0.1,14.5c1.1-0.9,2.4-1.5,3.8-1.9c1.4-0.4,2.8-0.6,4.1-0.6
			c1.5,0,3,0.2,4.3,0.7c1.4,0.5,2.6,1.2,3.6,2.3c1.1,1,1.9,2.3,2.5,3.8s0.9,3.3,0.9,5.4L170.7,59.7L170.7,59.7z"/>
		<path fill="#FFFFFF" d="M206.9,44.9c0,2.2-0.4,4.3-1.2,6.2s-1.9,3.5-3.4,4.9c-1.4,1.4-3.1,2.5-5,3.3s-4,1.2-6.2,1.2
			s-4.2-0.4-6.1-1.2s-3.6-1.9-5-3.3c-1.4-1.4-2.6-3-3.4-4.9c-0.8-1.9-1.2-3.9-1.2-6.1c0-2.1,0.4-4.2,1.3-6.1c0.8-1.9,2-3.5,3.4-5
			c1.4-1.4,3.1-2.5,5-3.3s3.9-1.2,6.1-1.2c2.2,0,4.2,0.4,6.2,1.2c1.9,0.8,3.6,1.9,5,3.3c1.4,1.4,2.6,3,3.4,4.9
			C206.5,40.7,206.9,42.7,206.9,44.9z M199.5,44.9c0-1.3-0.2-2.4-0.7-3.5c-0.4-1.1-1-2-1.8-2.9c-0.8-0.8-1.7-1.5-2.7-1.9
			c-1-0.5-2.1-0.7-3.3-0.7s-2.2,0.2-3.3,0.7c-1,0.5-1.9,1.1-2.7,1.9c-0.8,0.8-1.4,1.8-1.8,2.9c-0.4,1.1-0.7,2.3-0.7,3.5
			c0,1.3,0.2,2.4,0.7,3.5c0.4,1.1,1,2,1.8,2.9c0.8,0.8,1.7,1.5,2.7,1.9c1,0.5,2.1,0.7,3.3,0.7s2.2-0.2,3.3-0.7
			c1-0.5,1.9-1.1,2.7-1.9c0.8-0.8,1.4-1.8,1.8-2.9C199.3,47.3,199.5,46.2,199.5,44.9z"/>
		<path fill="#FFFFFF" d="M255.3,59.7h-7.4V42c0-2.1-0.5-3.7-1.5-4.7c-1-1.1-2.2-1.6-3.7-1.6c-1.1,0-2.2,0.2-3.2,0.5
			c-1,0.4-2,0.9-2.9,1.8c0.3,1.2,0.5,2.5,0.5,4v17.6h-7.4V42c0-2.1-0.5-3.7-1.5-4.7c-1-1.1-2.2-1.6-3.7-1.6c-1.1,0-2.1,0.2-3,0.6
			c-0.9,0.4-1.7,1-2.7,1.9v21.5h-7.4V30.1h7.4v2.2c0.9-0.9,2-1.6,3.3-2.1c1.2-0.5,2.5-0.8,3.8-0.8c1.4,0,2.9,0.3,4.3,1
			c1.5,0.6,2.7,1.6,3.8,2.8c1.5-1.4,3.1-2.3,4.7-2.9c1.6-0.6,3.3-0.9,5.2-0.9c1.5,0,3,0.2,4.4,0.7s2.6,1.2,3.6,2.2s1.8,2.3,2.5,3.8
			c0.6,1.6,0.9,3.4,0.9,5.6L255.3,59.7L255.3,59.7z"/>
		<path fill="#FFFFFF" d="M289.6,37.5c0.2,0.4,0.4,0.9,0.6,1.3c0.2,0.5,0.4,1,0.6,1.5l-20.9,11c0.6,0.6,1.4,1.2,2.1,1.6
			c0.8,0.4,1.6,0.8,2.5,0.9c0.9,0.2,1.8,0.2,2.8,0c1-0.1,1.9-0.5,2.9-1c1.2-0.6,2.2-1.4,3.2-2.5c1-1,1.7-2.1,2.1-3.2l6.3,2
			c-1.1,2.3-2.4,4.2-3.8,5.7s-3.1,2.7-5.1,3.7s-4,1.6-6.1,1.8s-4.1,0-6-0.6s-3.7-1.5-5.3-2.8c-1.6-1.3-2.9-2.9-3.9-4.8
			c-1-1.9-1.6-3.9-1.7-5.9c-0.2-2.1,0.1-4,0.7-5.9s1.6-3.7,2.9-5.3s2.9-2.9,4.9-3.9c1.8-1,3.8-1.6,5.8-1.8c2-0.2,4-0.1,6,0.5
			c1.9,0.5,3.7,1.4,5.4,2.7C287.2,33.9,288.5,35.5,289.6,37.5z M281.4,38.6c-1.4-1.4-3-2.2-4.8-2.6c-1.8-0.3-3.6,0-5.3,0.8
			c-1.6,0.9-2.8,2.1-3.6,3.8c-0.8,1.7-1,3.5-0.6,5.4L281.4,38.6z"/>
		<path fill="#FFFFFF" d="M339.6,59.7H332v-1.5c-1,0.8-2,1.4-3.1,1.7c-1.1,0.4-2.3,0.5-3.6,0.5c-2.1,0-4-0.4-5.7-1.3
			c-1.7-0.8-3.2-2-4.5-3.4s-2.2-3.1-2.9-4.9c-0.7-1.9-1-3.9-1-5.9c0-2.2,0.4-4.3,1.2-6.2s1.9-3.5,3.2-4.9c1.3-1.4,2.8-2.5,4.6-3.3
			c1.7-0.8,3.5-1.2,5.3-1.2c1.3,0,2.5,0.2,3.7,0.5s2.2,0.8,3.1,1.4v-14h7.5v42.5C339.8,59.7,339.6,59.7,339.6,59.7z M332.1,51.8
			V37.5c-0.3-0.2-0.7-0.5-1.2-0.7c-0.4-0.2-0.9-0.4-1.4-0.6c-0.5-0.2-1-0.3-1.4-0.4c-0.5-0.1-0.9-0.1-1.3-0.1
			c-1.2,0-2.4,0.2-3.4,0.6c-1,0.4-1.9,1-2.6,1.8c-0.8,0.8-1.3,1.8-1.7,2.9c-0.4,1.1-0.6,2.4-0.6,3.7s0.2,2.5,0.6,3.7
			c0.4,1.1,1,2.1,1.7,2.9c0.7,0.8,1.6,1.4,2.6,1.9c1,0.4,2.1,0.7,3.3,0.7C328.7,54,330.5,53.2,332.1,51.8z"/>
		<path fill="#FFFFFF" d="M374.3,37.4c0.2,0.4,0.4,0.9,0.6,1.3c0.2,0.5,0.4,1,0.6,1.5l-20.8,11.2c0.6,0.6,1.4,1.2,2.2,1.6
			c0.8,0.4,1.6,0.7,2.5,0.9s1.8,0.2,2.8,0c0.9-0.1,1.9-0.5,2.9-1c1.2-0.6,2.2-1.5,3.2-2.5s1.6-2.1,2-3.2l6.3,1.9
			c-1.1,2.3-2.3,4.2-3.8,5.7c-1.4,1.5-3.1,2.7-5,3.8c-2,1-4,1.7-6.1,1.9s-4.1,0-6-0.6s-3.7-1.5-5.3-2.8c-1.6-1.3-2.9-2.9-3.9-4.8
			c-1-1.9-1.6-3.9-1.8-5.9c-0.2-2.1,0-4,0.6-5.9s1.6-3.7,2.8-5.3c1.3-1.6,2.9-3,4.8-4c1.8-1,3.8-1.6,5.8-1.8c2-0.2,4-0.1,6,0.4
			c1.9,0.5,3.7,1.4,5.4,2.7C371.9,33.7,373.3,35.4,374.3,37.4z M366.2,38.5c-1.4-1.4-3-2.2-4.9-2.5c-1.8-0.3-3.6,0-5.3,0.9
			c-1.6,0.9-2.8,2.2-3.6,3.9c-0.8,1.7-0.9,3.5-0.6,5.4L366.2,38.5z"/>
		<path fill="#FFFFFF" d="M424.1,36H421c0.8,1.5,1.2,3.2,1.2,4.9c0,1.3-0.2,2.6-0.7,3.9c-0.5,1.2-1.2,2.4-2.1,3.4s-2,1.9-3.4,2.6
			c-1.3,0.7-2.8,1.2-4.4,1.4c-1.1,0.2-2,0.4-2.5,0.8c-0.6,0.4-0.8,0.7-0.8,1.1c0,0.4,0.3,0.7,0.8,1c0.6,0.3,1.4,0.5,2.5,0.6
			c3.8,0.3,6.8,1.3,8.9,2.9c2.1,1.6,3.1,3.6,3.1,6.2c0,1.3-0.3,2.6-1,3.7c-0.6,1.1-1.6,2.1-2.8,2.9c-1.2,0.8-2.7,1.4-4.4,1.9
			c-1.7,0.4-3.6,0.7-5.7,0.7s-4.1-0.2-5.8-0.7c-1.7-0.4-3.2-1.1-4.4-1.9c-1.2-0.8-2.2-1.8-2.8-2.9c-0.6-1.1-1-2.4-1-3.7
			c0-2,0.6-3.8,1.8-5.1c1.2-1.4,3.1-2.4,5.7-3.1c-0.8-0.3-1.4-0.7-1.8-1.3c-0.4-0.5-0.5-1.1-0.5-1.6s0.3-1.1,0.7-1.6
			c0.4-0.5,1-0.9,1.8-1.2c-0.9-0.4-1.7-0.9-2.6-1.6c-0.8-0.6-1.5-1.4-2.2-2.2c-0.7-0.9-1.2-1.8-1.5-2.9c-0.4-1.1-0.6-2.2-0.6-3.4
			c0-1.6,0.3-3.1,1-4.5s1.6-2.6,2.8-3.7c1.2-1,2.5-1.9,4-2.5s3.2-0.9,4.9-0.9c1.7,0,3.2,0.3,4.7,0.8H424L424.1,36L424.1,36z
			 M416.2,64.7c0-1.2-0.6-2.1-1.8-2.6c-1.2-0.5-2.8-0.8-4.7-0.8c-2,0-3.6,0.3-4.8,0.9c-1.2,0.6-1.8,1.4-1.8,2.6c0,1.2,0.6,2,1.8,2.6
			c1.2,0.6,2.8,0.9,4.7,0.9c2,0,3.5-0.3,4.7-0.8C415.6,66.8,416.2,65.9,416.2,64.7z M414.8,40.9c0-0.7-0.1-1.4-0.4-2.1
			c-0.3-0.6-0.7-1.2-1.2-1.7s-1.1-0.9-1.7-1.2c-0.7-0.3-1.4-0.4-2.1-0.4s-1.4,0.1-2.1,0.4c-0.6,0.3-1.2,0.7-1.7,1.2
			s-0.9,1.1-1.2,1.7c-0.3,0.6-0.4,1.3-0.4,2.1s0.1,1.5,0.4,2.1c0.3,0.7,0.7,1.2,1.2,1.7s1.1,0.9,1.7,1.2s1.3,0.4,2.1,0.4
			c0.7,0,1.4-0.1,2.1-0.4c0.7-0.3,1.2-0.7,1.7-1.2s0.9-1.1,1.2-1.7C414.7,42.3,414.8,41.6,414.8,40.9z"/>
		<path fill="#FFFFFF" d="M458.3,44.9c0,2.2-0.4,4.3-1.2,6.2c-0.8,1.9-1.9,3.5-3.4,4.9c-1.4,1.4-3.1,2.5-5,3.3s-4,1.2-6.2,1.2
			s-4.2-0.4-6.1-1.2s-3.6-1.9-5-3.3c-1.4-1.4-2.6-3-3.4-4.9s-1.2-3.9-1.2-6.1c0-2.1,0.4-4.2,1.3-6.1c0.8-1.9,2-3.5,3.4-5
			c1.4-1.4,3.1-2.5,5-3.3s3.9-1.2,6.1-1.2s4.2,0.4,6.2,1.2c1.9,0.8,3.6,1.9,5,3.3c1.4,1.4,2.6,3,3.4,4.9
			C457.8,40.7,458.3,42.7,458.3,44.9z M450.9,44.9c0-1.3-0.2-2.4-0.7-3.5c-0.4-1.1-1-2-1.8-2.9c-0.8-0.8-1.7-1.5-2.7-1.9
			c-1-0.5-2.1-0.7-3.3-0.7c-1.2,0-2.2,0.2-3.3,0.7c-1,0.5-1.9,1.1-2.7,1.9c-0.8,0.8-1.4,1.8-1.8,2.9c-0.4,1.1-0.7,2.3-0.7,3.5
			c0,1.3,0.2,2.4,0.7,3.5c0.4,1.1,1,2,1.8,2.9c0.8,0.8,1.7,1.5,2.7,1.9c1,0.5,2.1,0.7,3.3,0.7c1.2,0,2.2-0.2,3.3-0.7
			c1-0.5,1.9-1.1,2.7-1.9c0.8-0.8,1.4-1.8,1.8-2.9C450.7,47.3,450.9,46.2,450.9,44.9z"/>
		<path fill="#FFFFFF" d="M489.1,59.7h-7.4v-2.2c-0.5,0.5-1,0.9-1.7,1.3c-0.6,0.4-1.3,0.7-2,0.9c-0.7,0.3-1.4,0.5-2.1,0.6
			s-1.4,0.2-2.1,0.2c-1.5,0-2.9-0.2-4.3-0.7s-2.6-1.2-3.7-2.2s-1.9-2.3-2.5-3.8c-0.6-1.6-0.9-3.4-0.9-5.6V30.1h7.4v17.6
			c0,1.1,0.2,2,0.5,2.8s0.7,1.5,1.3,2c0.5,0.5,1.1,0.9,1.8,1.2c0.7,0.3,1.4,0.4,2.2,0.4c2.4,0,4.5-0.8,6.2-2.5V30.1h7.4L489.1,59.7
			L489.1,59.7z M485.5,26.4H480l-4.3-4.3l-4.4,4.3h-5.5l6.6-9.9h6.6L485.5,26.4z"/>
		<path fill="#FFFFFF" d="M511.7,59c-0.8,0.5-1.6,0.8-2.6,1.1c-1,0.2-2,0.4-3,0.4c-1.7,0-3.2-0.2-4.4-0.6c-1.2-0.4-2.1-1.1-2.9-2
			c-0.7-0.9-1.2-2-1.6-3.4c-0.3-1.4-0.5-3-0.5-4.8v-13h-3.9v-3.3c2.4-1,4.3-2.5,5.8-4.4s2.5-4.5,3-7.6h2.4V30h7.5v6.6H504V50
			c0,0.8,0.1,1.4,0.3,1.8c0.2,0.5,0.4,0.9,0.7,1.1c0.3,0.3,0.7,0.5,1,0.6c0.4,0.1,0.8,0.2,1.3,0.2c0.6,0,1.3-0.1,2.1-0.3
			c0.8-0.2,1.5-0.5,2.1-1V59H511.7z"/>
	</g>
	
		<line display="inline" fill="none" stroke="#FFFFFF" stroke-linecap="round" stroke-linejoin="round" stroke-miterlimit="10" x1="111.9" y1="105.6" x2="111.9" y2="14.6"/>
	<g display="inline" enable-background="new    ">
		<path fill="#FFFFFF" d="M154.8,87.2l-5.1,7c-0.1,0.2-0.3,0.2-0.5,0.2l0,0c-0.2,0-0.4-0.1-0.5-0.2l-5.1-7v13c0,0.3-0.2,0.5-0.5,0.5
			s-0.6-0.2-0.6-0.5V85.6c0-0.2,0.1-0.3,0.2-0.4l0,0c0.2-0.2,0.6-0.1,0.8,0.1l5.6,7.8l5.6-7.8c0.2-0.2,0.5-0.3,0.8-0.1
			c0.1,0.1,0.1,0.1,0.2,0.2c0,0.1,0.1,0.2,0.1,0.3v14.6c0,0.3-0.2,0.5-0.5,0.5s-0.5-0.2-0.5-0.5V87.2z"/>
		<path fill="#FFFFFF" d="M166.1,89.7c2.9,0,5.2,2.5,5.2,5.5s-2.3,5.5-5.2,5.5s-5.2-2.5-5.2-5.5C160.9,92.2,163.2,89.7,166.1,89.7z
			 M166.1,99.7c2.3,0,4.2-2,4.2-4.5s-1.9-4.5-4.2-4.5s-4.2,2-4.2,4.5C162,97.7,163.9,99.7,166.1,99.7z"/>
		<path fill="#FFFFFF" d="M175.5,95.5v-0.2V95v-9.5c0-0.3,0.2-0.5,0.5-0.5s0.6,0.2,0.6,0.5v6.4c1-1.3,2.5-2.2,4.3-2.2
			c3,0,5.4,2.5,5.4,5.6c0,3-2.4,5.5-5.4,5.5c-1.7,0-3.3-0.8-4.3-2.1v1.6c0,0.3-0.2,0.5-0.6,0.5c-0.3,0-0.5-0.2-0.5-0.5V95.5z
			 M176.6,95.2c0,2.4,1.9,4.4,4.3,4.4c2.4,0,4.3-2,4.3-4.4c0-2.5-1.9-4.5-4.3-4.5c-2.3,0-4.2,1.9-4.3,4.3V95.2z"/>
		<path fill="#FFFFFF" d="M190.5,86.6c0-0.3,0.2-0.5,0.5-0.5s0.6,0.2,0.6,0.5v0.5c0,0.3-0.2,0.6-0.6,0.6c-0.3,0-0.5-0.3-0.5-0.6
			V86.6z M190.5,90.2c0-0.3,0.2-0.5,0.5-0.5s0.6,0.2,0.6,0.5v10c0,0.3-0.2,0.5-0.6,0.5c-0.3,0-0.5-0.2-0.5-0.5V90.2z"/>
		<path fill="#FFFFFF" d="M196.5,85.5c0-0.3,0.2-0.5,0.5-0.5s0.6,0.2,0.6,0.5v14.7c0,0.3-0.2,0.5-0.6,0.5c-0.3,0-0.5-0.2-0.5-0.5
			V85.5z"/>
		<path fill="#FFFFFF" d="M202,86.6c0-0.3,0.2-0.5,0.5-0.5s0.6,0.2,0.6,0.5v0.5c0,0.3-0.2,0.6-0.6,0.6c-0.3,0-0.5-0.3-0.5-0.6V86.6z
			 M202,90.2c0-0.3,0.2-0.5,0.5-0.5s0.6,0.2,0.6,0.5v10c0,0.3-0.2,0.5-0.6,0.5c-0.3,0-0.5-0.2-0.5-0.5V90.2z"/>
		<path fill="#FFFFFF" d="M207.5,95.2c0-3.1,2.4-5.6,5.4-5.6c2.8,0,5.1,2.3,5.3,5.2l0,0v0.1c0,0.3-0.2,0.5-0.5,0.5h-9.1
			c0.1,2.4,2,4.3,4.3,4.3c1.5,0,2.8-0.8,3.6-2c0.2-0.3,0.5-0.3,0.7-0.2c0.2,0.2,0.3,0.5,0.2,0.8c-0.9,1.5-2.6,2.5-4.5,2.5
			C209.9,100.8,207.5,98.3,207.5,95.2z M208.7,94.4h8.4c-0.4-2.1-2.1-3.6-4.2-3.6S209.1,92.3,208.7,94.4z"/>
		<path fill="#FFFFFF" d="M221.6,90.3c0-0.3,0.2-0.5,0.6-0.5c0.3,0,0.5,0.2,0.5,0.5v2.4c0-0.1,0.1-0.2,0.2-0.3
			c0.8-1.3,2.3-2.7,4.4-2.7c0.3,0,0.5,0.2,0.5,0.5s-0.2,0.5-0.5,0.5c-1.4,0-2.4,0.8-3.2,1.8c-0.7,1-1.2,2.1-1.3,2.6
			c0,0.1,0,0.1,0,0.2v4.9c0,0.3-0.2,0.5-0.5,0.5s-0.6-0.2-0.6-0.5v-9.9H221.6z"/>
		<path fill="#FFFFFF" d="M247.2,98.6c-1,1.3-2.5,2.1-4.3,2.1c-3,0-5.4-2.5-5.4-5.5c0-3.1,2.4-5.6,5.4-5.6c1.7,0,3.3,0.9,4.3,2.2
			v-6.4c0-0.3,0.2-0.5,0.6-0.5c0.3,0,0.5,0.2,0.5,0.5V95v0.2v5c0,0.3-0.2,0.5-0.5,0.5s-0.6-0.2-0.6-0.5V98.6z M247.2,95.4V95
			c-0.1-2.4-2-4.3-4.3-4.3s-4.3,2-4.3,4.5c0,2.4,1.9,4.4,4.3,4.4C245.2,99.7,247.1,97.8,247.2,95.4z"/>
		<path fill="#FFFFFF" d="M252.1,95.2c0-3.1,2.4-5.6,5.4-5.6c2.8,0,5.1,2.3,5.3,5.2l0,0v0.1c0,0.3-0.2,0.5-0.5,0.5h-9.1
			c0.1,2.4,2,4.3,4.3,4.3c1.5,0,2.8-0.8,3.6-2c0.2-0.3,0.5-0.3,0.7-0.2c0.2,0.2,0.3,0.5,0.2,0.8c-0.9,1.5-2.6,2.5-4.5,2.5
			C254.5,100.8,252.1,98.3,252.1,95.2z M253.3,94.4h8.4c-0.4-2.1-2.1-3.6-4.2-3.6S253.7,92.3,253.3,94.4z"/>
		<path fill="#FFFFFF" d="M265.9,98.5c0.2-0.2,0.5-0.3,0.8-0.1c0.8,0.6,2,1.3,3.4,1.3c0.9,0,1.6-0.3,2.1-0.7
			c0.5-0.4,0.8-0.9,0.8-1.4s-0.2-0.9-0.8-1.4c-0.5-0.4-1.3-0.6-2.4-0.8l0,0c-1-0.2-1.9-0.4-2.5-0.9c-0.7-0.4-1.2-1.1-1.2-2
			s0.5-1.6,1.2-2.2c0.7-0.5,1.6-0.7,2.7-0.7c1.4,0,2.4,0.7,3.3,1.2c0.2,0.2,0.3,0.5,0.2,0.8c-0.2,0.2-0.5,0.3-0.7,0.2
			c-0.8-0.5-1.6-1.1-2.7-1.1c-0.9,0-1.6,0.2-2.1,0.6s-0.7,0.8-0.7,1.3s0.2,0.8,0.6,1.1c0.5,0.3,1.2,0.6,2.3,0.8l0,0
			c1.1,0.2,1.9,0.5,2.7,0.9c0.7,0.5,1.2,1.3,1.2,2.3c0,0.9-0.5,1.7-1.3,2.2c-0.8,0.6-1.7,0.9-2.8,0.9c-1.8,0-3.2-0.9-4.1-1.6
			C265.8,99,265.7,98.7,265.9,98.5z"/>
		<path fill="#FFFFFF" d="M277.8,86.6c0-0.3,0.2-0.5,0.5-0.5s0.6,0.2,0.6,0.5v0.5c0,0.3-0.2,0.6-0.6,0.6c-0.3,0-0.5-0.3-0.5-0.6
			V86.6z M277.8,90.2c0-0.3,0.2-0.5,0.5-0.5s0.6,0.2,0.6,0.5v10c0,0.3-0.2,0.5-0.6,0.5c-0.3,0-0.5-0.2-0.5-0.5V90.2z"/>
		<path fill="#FFFFFF" d="M293.8,99.9c0,2.9-2.3,5.2-5.2,5.2c-0.8,0-1.6-0.2-2.3-0.5c-0.2-0.2-0.4-0.5-0.2-0.7
			c0.1-0.3,0.5-0.4,0.7-0.2c0.6,0.3,1.1,0.4,1.8,0.4c2.3,0,4.1-1.8,4.1-4.1v-1.4c-0.9,1.3-2.4,2.2-4.1,2.2c-2.9,0-5.2-2.5-5.2-5.5
			s2.3-5.5,5.2-5.5c1.7,0,3.2,0.9,4.1,2.2v-1.6c0-0.3,0.2-0.5,0.6-0.5c0.3,0,0.5,0.2,0.5,0.5V99.9z M292.8,95.2
			c0-2.5-1.9-4.4-4.1-4.4c-2.3,0-4.1,1.9-4.1,4.4s1.9,4.5,4.1,4.5C290.9,99.6,292.8,97.7,292.8,95.2z"/>
		<path fill="#FFFFFF" d="M307,94.2c0-1.9-1.5-3.4-3.4-3.4s-3.4,1.5-3.4,3.4v6v0.1c0,0.1,0,0.2-0.1,0.2c-0.1,0.1-0.2,0.2-0.4,0.2
			h-0.1c-0.2,0-0.3-0.2-0.4-0.3c0,0,0,0,0-0.1s0,0,0,0v-0.1v-6V94v-3.8c0-0.3,0.2-0.5,0.5-0.5s0.5,0.2,0.5,0.5v1.1
			c0.8-1,2.1-1.6,3.4-1.6c2.5,0,4.5,2,4.5,4.5v6c0,0.3-0.2,0.5-0.5,0.5s-0.5-0.2-0.5-0.5v-6H307z"/>
		<path fill="#FFFFFF" d="M318.9,95.2c0-3.1,2.4-5.6,5.4-5.6c2.8,0,5.1,2.3,5.3,5.2l0,0v0.1c0,0.3-0.2,0.5-0.5,0.5H320
			c0.1,2.4,2,4.3,4.3,4.3c1.5,0,2.8-0.8,3.6-2c0.2-0.3,0.5-0.3,0.7-0.2c0.2,0.2,0.3,0.5,0.2,0.8c-1,1.5-2.6,2.5-4.5,2.5
			C321.3,100.8,318.9,98.3,318.9,95.2z M320.1,94.4h8.4c-0.4-2.1-2.1-3.6-4.2-3.6C322.2,90.8,320.5,92.3,320.1,94.4z"/>
		<path fill="#FFFFFF" d="M336.5,90.2c0,0.3-0.3,0.5-0.5,0.5h-1.4v8.1c0,0.5,0.5,0.8,0.8,0.8s0.6,0.3,0.6,0.6s-0.3,0.5-0.6,0.5
			c-1.1,0-1.9-0.8-1.9-1.9v-8.1H332c-0.5,0-0.5-0.3-0.5-0.5s0-0.5,0.5-0.5h1.4v-4.1c0-0.3,0.3-0.5,0.5-0.5c0.3,0,0.6,0.3,0.6,0.5
			v4.1h1.4C336.2,89.7,336.5,90,336.5,90.2z"/>
		<path fill="#FFFFFF" d="M357.3,98.6c-1,1.3-2.5,2.1-4.3,2.1c-3,0-5.4-2.5-5.4-5.5c0-3.1,2.4-5.6,5.4-5.6c1.7,0,3.3,0.9,4.3,2.2
			v-6.4c0-0.3,0.2-0.5,0.6-0.5c0.3,0,0.5,0.2,0.5,0.5V95v0.2v5c0,0.3-0.2,0.5-0.5,0.5s-0.6-0.2-0.6-0.5V98.6z M357.3,95.4V95
			c-0.1-2.4-2-4.3-4.3-4.3s-4.3,2-4.3,4.5c0,2.4,1.9,4.4,4.3,4.4C355.3,99.7,357.2,97.8,357.3,95.4z"/>
		<path fill="#FFFFFF" d="M367.9,100.8c-3,0-5.4-2.5-5.4-5.5c0-3.1,2.4-5.6,5.4-5.6c2.8,0,5.1,2.3,5.3,5.2l0,0V95
			c0,0.3-0.2,0.5-0.5,0.5h-9.1c0.1,2.4,2,4.3,4.3,4.3c1.5,0,2.8-0.8,3.6-2c0.2-0.3,0.5-0.3,0.7-0.2c0.2,0.2,0.3,0.5,0.2,0.8
			C371.5,99.8,369.8,100.8,367.9,100.8z M367.9,90.8c-2.1,0-3.8,1.5-4.2,3.6h8.4C371.7,92.3,370,90.8,367.9,90.8z M366.7,87.9
			c0.3,0,0.5,0,0.7-0.3l1.8-1.7c0.1-0.1,0.2-0.3,0.2-0.4c0-0.2-0.5-0.5-0.9-0.5c-0.3,0-0.5,0.1-0.6,0.4l-1.4,2.1
			c0,0.1-0.1,0.2-0.1,0.2C366.4,87.8,366.5,87.9,366.7,87.9z"/>
		<path fill="#FFFFFF" d="M376.3,95.2c0-3.1,2.5-5.5,5.7-5.5c1.3,0,2.6,0.5,3.5,1.2c0.2,0.2,0.3,0.5,0.1,0.7
			c-0.2,0.2-0.5,0.3-0.7,0.1c-0.8-0.6-1.8-1-2.8-1c-2.6,0-4.6,2-4.6,4.5s2,4.5,4.6,4.5c1.1,0,2.1-0.4,2.8-1c0.2-0.2,0.6-0.1,0.7,0.1
			c0.2,0.2,0.2,0.6-0.1,0.8c-0.9,0.7-2.2,1.2-3.5,1.2C378.9,100.8,376.3,98.3,376.3,95.2z"/>
		<path fill="#FFFFFF" d="M394.4,89.7c2.9,0,5.2,2.5,5.2,5.5s-2.3,5.5-5.2,5.5c-2.9,0-5.2-2.5-5.2-5.5
			C389.2,92.2,391.5,89.7,394.4,89.7z M394.4,99.7c2.3,0,4.2-2,4.2-4.5s-1.9-4.5-4.2-4.5c-2.3,0-4.2,2-4.2,4.5
			C390.3,97.7,392.2,99.7,394.4,99.7z"/>
		<path fill="#FFFFFF" d="M403.4,90.3c0-0.3,0.2-0.5,0.6-0.5c0.3,0,0.5,0.2,0.5,0.5v2.4c0-0.1,0.1-0.2,0.2-0.3
			c0.8-1.3,2.3-2.7,4.4-2.7c0.3,0,0.5,0.2,0.5,0.5s-0.2,0.5-0.5,0.5c-1.4,0-2.4,0.8-3.2,1.8c-0.7,1-1.2,2.1-1.3,2.6
			c0,0.1,0,0.1,0,0.2v4.9c0,0.3-0.2,0.5-0.5,0.5s-0.6-0.2-0.6-0.5v-9.9H403.4z"/>
		<path fill="#FFFFFF" d="M422,90.2v10c0,0.3-0.2,0.5-0.5,0.5s-0.5-0.2-0.5-0.5v-1.6c-0.9,1.3-2.5,2.2-4.2,2.2
			c-2.9,0-5.2-2.5-5.2-5.5s2.3-5.5,5.2-5.5c1.7,0,3.2,0.9,4.2,2.2v-1.6c0-0.3,0.2-0.5,0.5-0.5C421.8,89.7,422,89.9,422,90.2z
			 M420.9,95.2c0-2.5-1.9-4.5-4.2-4.5c-2.3,0-4.2,2-4.2,4.5s1.9,4.5,4.2,4.5C419.1,99.7,420.9,97.7,420.9,95.2z"/>
		<path fill="#FFFFFF" d="M430.6,90.2c0,0.3-0.3,0.5-0.5,0.5h-1.4v8.1c0,0.5,0.5,0.8,0.8,0.8s0.6,0.3,0.6,0.6s-0.3,0.5-0.6,0.5
			c-1.1,0-1.9-0.8-1.9-1.9v-8.1h-1.4c-0.5,0-0.5-0.3-0.5-0.5s0-0.5,0.5-0.5h1.4v-4.1c0-0.3,0.3-0.5,0.5-0.5c0.3,0,0.6,0.3,0.6,0.5
			v4.1h1.4C430.3,89.7,430.6,90,430.6,90.2z"/>
		<path fill="#FFFFFF" d="M435.8,86.6c0-0.3,0.2-0.5,0.5-0.5s0.6,0.2,0.6,0.5v0.5c0,0.3-0.2,0.6-0.6,0.6c-0.3,0-0.5-0.3-0.5-0.6
			V86.6z M435.8,90.2c0-0.3,0.2-0.5,0.5-0.5s0.6,0.2,0.6,0.5v10c0,0.3-0.2,0.5-0.6,0.5c-0.3,0-0.5-0.2-0.5-0.5V90.2z"/>
		<path fill="#FFFFFF" d="M446.9,89.7c2.9,0,5.2,2.5,5.2,5.5s-2.3,5.5-5.2,5.5c-2.9,0-5.2-2.5-5.2-5.5
			C441.6,92.2,444,89.7,446.9,89.7z M446.9,99.7c2.3,0,4.2-2,4.2-4.5s-1.9-4.5-4.2-4.5s-4.2,2-4.2,4.5
			C442.7,97.7,444.6,99.7,446.9,99.7z"/>
		<path fill="#FFFFFF" d="M464.2,94.2c0-1.9-1.5-3.4-3.4-3.4s-3.4,1.5-3.4,3.4v6v0.1c0,0.1,0,0.2-0.1,0.2c-0.1,0.1-0.2,0.2-0.4,0.2
			h-0.1c-0.2,0-0.3-0.2-0.4-0.3c0,0,0,0,0-0.1s0,0,0,0v-0.1v-6V94v-3.8c0-0.3,0.2-0.5,0.5-0.5s0.5,0.2,0.5,0.5v1.1
			c0.8-1,2.1-1.6,3.4-1.6c2.5,0,4.5,2,4.5,4.5v6c0,0.3-0.2,0.5-0.5,0.5s-0.5-0.2-0.5-0.5v-6H464.2z"/>
	</g>
	<path display="inline" fill="#FFFFFF" d="M62.6,12.9l-9.9,17.7c0,0-8.2,13.9-9.4,15.5c-1.1,1.6-5.8,9.4-12,9.2
		c-6.3-0.2-13.2-3.9-14.4-4.5c-1.3-0.7-5-2.8-9-4.7s-12.4-2.8-12.4-2.8L-5.4,50c0.8,2,3,5.1,4.9,7.7c1.9,2.6,5.6,5.5,5.6,5.5
		c4.2,3.4,11.1,5.6,11.1,5.6L51.5,79l4.8-0.3c0,0,3.3,0.2,8.4-5.2s6.5-15.5,6.7-16.7c0.2-1.3,2.6-11.4,2.8-12.4
		c0.2-0.9,3.5-13.9,3.8-14.8c0.2-0.9,4-14.2,4-14.2l-1.3-1.3L62.6,12.9z"/>
	<polyline display="inline" fill="#FFFFFF" points="27.4,107.5 36,76 58.4,82.6 61.3,89.5 63.1,90 63.5,88.7 59.2,77.8 56.8,78.6 
		57.5,80.8 34.7,73.9 25.6,107.7 	"/>
	<path display="inline" fill="none" stroke="#000000" stroke-width="6.2853" stroke-miterlimit="10" d="M23.6,73.8"/>
	<path display="inline" fill="none" stroke="#000000" stroke-width="6.2853" stroke-miterlimit="10" d="M25.4,76"/>
	<g display="inline">
		<path fill="#989392" d="M32.2,73.3l-8.8-0.5L21,70.1l-5-1.5l3.5,4L16,72.3l-2-0.1l-1.5-0.1l1.9-4.2l-1.3-0.5L2.6,90.3l1.1,0.6
			l7.7-16.5l1.5,0.1l4.5,0.2l4.1,0.2l8.6,10.3l-5.7,21.1l1.4,1.4l9-33.8L32.2,73.3z M25.9,75.2l6.7,0.3L31,81.2L25.9,75.2z"/>
	</g>
	<path display="inline" stroke="#000000" stroke-width="6.2853" stroke-miterlimit="10" d="M27,79.8"/>
	<path display="inline" fill="none" d="M13.9,74.5"/>
	<g display="inline">
		<polygon fill="#0D0C0D" points="15.7,68.5 14.4,68 12.4,72.2 13.9,72.2 		"/>
		<polygon fill="#FFFFFF" points="3.7,91 5.2,91.1 12.7,74.5 11.4,74.4 		"/>
		<polygon fill="#0D0C0D" points="24.7,75.1 30.6,82.3 31,81.1 25.9,75.2 		"/>
		<polyline fill="#0D0C0D" points="22.6,72.7 19.9,69.6 21.2,70.1 23.5,72.8 22.6,72.7 		"/>
	</g>
	<g display="inline">
		<polygon fill="#FFFFFF" points="12.4,72.2 13.9,72.2 15.7,68.5 14.4,68 		"/>
		<polygon fill="#FFFFFF" points="25.9,75.2 24.7,75.1 30.6,82.3 31,81.1 		"/>
		<polygon fill="#FFFFFF" points="19.9,69.6 22.6,72.7 23.5,72.8 21.2,70.1 		"/>
	</g>
	<g display="inline">
		<path fill="#FFFFFF" d="M12.9,74.5l4.4,0.2L12.9,74.5z"/>
	</g>
	<path display="inline" fill="#989392" d="M80.7,14.2c0,0-3.9,13-4.1,13.9C76.3,29,73,42.1,72.7,43c-0.2,0.9-1.5,5.7-1.7,6.9
		c0,0-1.4,5.7-1.8,7c-0.3,1.4-1.9,9.7-6.5,10.5s-7.7-4.7-11.1-5.8c-2.4-0.7-5.9-0.6-7-0.7l-1,4.5h1c2.4,0.2,3.5-0.3,5.8,0.5
		c2.3,0.7,7.3,5.3,11.7,5.2s7-5.7,7.4-6.6c0.3-0.9,1-3.1,1-3.4c0.1-0.3,3.1-13.6,3.4-15.3c0.3-1.6,4.7-18.4,5.1-19.9
		c0.5-1.5,3-10.6,3-10.6"/>
	<path display="inline" fill="#989392" d="M44.6,61c0,0-4.5-0.7-8.6,0c-4,0.7-11.9,3.8-17.6,3.4c-5.7-0.3-8.9-2.5-10.6-3.5
		s-4.5-3.3-6-5c-0.7-0.8-3-3.4-3.3-4.1c-0.5-0.7-1.1-1.5-2-3.8s-1-4.8-1-4.8L-5.4,50c0,0,1,1.9,2.2,3.9c1,1.7,2.4,3.5,2.8,4.2
		c0.7,1,2.3,2.7,4.4,4.4c1.6,1.4,3.6,2.4,5.6,3.4c4.5,2.4,8.6,3.3,14.5,2.6c5.9-0.7,7.7-2.2,11-2.6c3.3-0.3,5.9-0.7,8.3-0.3L44.6,61
		C44.2,61,44.6,61,44.6,61z"/>
	
		<line display="inline" fill="none" stroke="#FFFFFF" stroke-width="1.257" stroke-miterlimit="10" x1="43.6" y1="66.5" x2="44.8" y2="60.7"/>
	<path display="inline" fill="#FFFFFF" d="M159.5,29.9c1.4,0.4,2.7,1,3.8,1.9l0.1-8.5h7.4v36.4h-7.4V37.6c-1-0.6-2-1.1-3-1.4"/>
</g>
<g id="Calque_2" display="none">
	
		<line display="inline" fill="none" stroke="#000000" stroke-linecap="round" stroke-linejoin="round" stroke-miterlimit="10" x1="110.098" y1="107.637" x2="110.098" y2="16.637"/>
	<g display="inline" enable-background="new    ">
		<path fill="#231F20" d="M153.246,89.08l-5.203,7.141c-0.102,0.204-0.306,0.204-0.51,0.204l0,0c-0.204,0-0.408-0.102-0.51-0.204
			l-5.203-7.141v13.262c0,0.306-0.204,0.51-0.51,0.51c-0.306,0-0.612-0.204-0.612-0.51V87.448c0-0.204,0.102-0.306,0.204-0.408l0,0
			c0.204-0.204,0.612-0.102,0.816,0.102l5.713,7.957l5.713-7.957c0.204-0.204,0.51-0.306,0.816-0.102
			c0.102,0.102,0.102,0.102,0.204,0.204c0,0.102,0.102,0.204,0.102,0.306v14.894c0,0.306-0.204,0.51-0.51,0.51
			s-0.51-0.204-0.51-0.51V89.08z"/>
		<path fill="#231F20" d="M164.773,91.63c2.958,0,5.305,2.55,5.305,5.611s-2.346,5.611-5.305,5.611s-5.305-2.55-5.305-5.611
			C159.469,94.181,161.815,91.63,164.773,91.63z M164.773,101.832c2.346,0,4.285-2.04,4.285-4.591s-1.938-4.591-4.285-4.591
			c-2.346,0-4.285,2.04-4.285,4.591C160.591,99.791,162.529,101.832,164.773,101.832z"/>
		<path fill="#231F20" d="M174.363,97.547v-0.204v-0.306v-9.691c0-0.306,0.204-0.51,0.51-0.51s0.612,0.204,0.612,0.51v6.529
			c1.02-1.326,2.55-2.244,4.387-2.244c3.06,0,5.509,2.55,5.509,5.713c0,3.06-2.448,5.611-5.509,5.611
			c-1.734,0-3.366-0.816-4.387-2.142v1.632c0,0.306-0.204,0.51-0.612,0.51c-0.306,0-0.51-0.204-0.51-0.51V97.547z M175.485,97.241
			c0,2.448,1.938,4.489,4.387,4.489c2.448,0,4.387-2.04,4.387-4.489c0-2.55-1.938-4.591-4.387-4.591
			c-2.346,0-4.285,1.938-4.387,4.387V97.241z"/>
		<path fill="#231F20" d="M189.665,88.468c0-0.306,0.204-0.51,0.51-0.51c0.306,0,0.612,0.204,0.612,0.51v0.51
			c0,0.306-0.204,0.612-0.612,0.612c-0.306,0-0.51-0.306-0.51-0.612V88.468z M189.665,92.14c0-0.306,0.204-0.51,0.51-0.51
			c0.306,0,0.612,0.204,0.612,0.51v10.201c0,0.306-0.204,0.51-0.612,0.51c-0.306,0-0.51-0.204-0.51-0.51V92.14z"/>
		<path fill="#231F20" d="M195.785,87.346c0-0.306,0.204-0.51,0.51-0.51c0.306,0,0.612,0.204,0.612,0.51v14.996
			c0,0.306-0.204,0.51-0.612,0.51c-0.306,0-0.51-0.204-0.51-0.51V87.346z"/>
		<path fill="#231F20" d="M201.396,88.468c0-0.306,0.204-0.51,0.51-0.51c0.306,0,0.612,0.204,0.612,0.51v0.51
			c0,0.306-0.204,0.612-0.612,0.612c-0.306,0-0.51-0.306-0.51-0.612V88.468z M201.396,92.14c0-0.306,0.204-0.51,0.51-0.51
			c0.306,0,0.612,0.204,0.612,0.51v10.201c0,0.306-0.204,0.51-0.612,0.51c-0.306,0-0.51-0.204-0.51-0.51V92.14z"/>
		<path fill="#231F20" d="M207.007,97.241c0-3.162,2.448-5.713,5.509-5.713c2.856,0,5.203,2.346,5.407,5.305l0,0v0.102
			c0,0.306-0.204,0.51-0.51,0.51h-9.283c0.102,2.448,2.04,4.387,4.387,4.387c1.53,0,2.856-0.816,3.673-2.04
			c0.204-0.306,0.51-0.306,0.714-0.204c0.204,0.204,0.306,0.51,0.204,0.816c-0.918,1.53-2.652,2.55-4.591,2.55
			C209.455,102.954,207.007,100.403,207.007,97.241z M208.231,96.425h8.569c-0.408-2.142-2.142-3.672-4.285-3.672
			S208.639,94.283,208.231,96.425z"/>
		<path fill="#231F20" d="M221.391,92.242c0-0.306,0.204-0.51,0.612-0.51c0.306,0,0.51,0.204,0.51,0.51v2.448
			c0-0.102,0.102-0.204,0.204-0.306c0.816-1.326,2.346-2.754,4.489-2.754c0.306,0,0.51,0.204,0.51,0.51
			c0,0.306-0.204,0.51-0.51,0.51c-1.428,0-2.448,0.816-3.264,1.836c-0.714,1.02-1.224,2.142-1.326,2.652c0,0.102,0,0.102,0,0.204
			v4.999c0,0.306-0.204,0.51-0.51,0.51c-0.306,0-0.612-0.204-0.612-0.51V92.242H221.391z"/>
		<path fill="#231F20" d="M247.506,100.709c-1.02,1.326-2.55,2.142-4.387,2.142c-3.06,0-5.509-2.55-5.509-5.611
			c0-3.162,2.448-5.713,5.509-5.713c1.734,0,3.366,0.918,4.387,2.244v-6.529c0-0.306,0.204-0.51,0.612-0.51
			c0.306,0,0.51,0.204,0.51,0.51v9.793v0.204v5.101c0,0.306-0.204,0.51-0.51,0.51c-0.306,0-0.612-0.204-0.612-0.51V100.709z
			 M247.506,97.445v-0.408c-0.102-2.448-2.04-4.387-4.387-4.387s-4.387,2.04-4.387,4.591c0,2.448,1.938,4.489,4.387,4.489
			C245.466,101.832,247.404,99.893,247.506,97.445z"/>
		<path fill="#231F20" d="M252.505,97.241c0-3.162,2.448-5.713,5.509-5.713c2.856,0,5.203,2.346,5.407,5.305l0,0v0.102
			c0,0.306-0.204,0.51-0.51,0.51h-9.283c0.102,2.448,2.04,4.387,4.387,4.387c1.53,0,2.856-0.816,3.672-2.04
			c0.204-0.306,0.51-0.306,0.714-0.204c0.204,0.204,0.306,0.51,0.204,0.816c-0.918,1.53-2.652,2.55-4.591,2.55
			C254.953,102.954,252.505,100.403,252.505,97.241z M253.729,96.425h8.569c-0.408-2.142-2.142-3.672-4.285-3.672
			C255.871,92.752,254.137,94.283,253.729,96.425z"/>
		<path fill="#231F20" d="M266.583,100.607c0.204-0.204,0.51-0.306,0.816-0.102c0.816,0.612,2.04,1.326,3.468,1.326
			c0.918,0,1.632-0.306,2.142-0.714s0.816-0.918,0.816-1.428c0-0.51-0.204-0.918-0.816-1.428c-0.51-0.408-1.326-0.612-2.448-0.816
			l0,0c-1.02-0.204-1.938-0.408-2.55-0.918c-0.714-0.408-1.224-1.122-1.224-2.04s0.51-1.632,1.224-2.244
			c0.714-0.51,1.632-0.714,2.754-0.714c1.428,0,2.448,0.714,3.366,1.224c0.204,0.204,0.306,0.51,0.204,0.816
			c-0.204,0.204-0.51,0.306-0.714,0.204c-0.816-0.51-1.632-1.122-2.754-1.122c-0.918,0-1.632,0.204-2.142,0.612
			s-0.714,0.816-0.714,1.326s0.204,0.816,0.612,1.122c0.51,0.306,1.224,0.612,2.346,0.816l0,0c1.122,0.204,1.938,0.51,2.754,0.918
			c0.714,0.51,1.224,1.326,1.224,2.346c0,0.918-0.51,1.734-1.326,2.244c-0.816,0.612-1.734,0.918-2.856,0.918
			c-1.836,0-3.264-0.918-4.183-1.632C266.481,101.118,266.379,100.811,266.583,100.607z"/>
		<path fill="#231F20" d="M278.723,88.468c0-0.306,0.204-0.51,0.51-0.51s0.612,0.204,0.612,0.51v0.51
			c0,0.306-0.204,0.612-0.612,0.612c-0.306,0-0.51-0.306-0.51-0.612V88.468z M278.723,92.14c0-0.306,0.204-0.51,0.51-0.51
			s0.612,0.204,0.612,0.51v10.201c0,0.306-0.204,0.51-0.612,0.51c-0.306,0-0.51-0.204-0.51-0.51V92.14z"/>
		<path fill="#231F20" d="M295.045,102.036c0,2.958-2.346,5.305-5.305,5.305c-0.816,0-1.632-0.204-2.346-0.51
			c-0.204-0.204-0.408-0.51-0.204-0.714c0.102-0.306,0.51-0.408,0.714-0.204c0.612,0.306,1.122,0.408,1.836,0.408
			c2.346,0,4.183-1.836,4.183-4.183v-1.428c-0.918,1.326-2.448,2.244-4.183,2.244c-2.958,0-5.305-2.55-5.305-5.611
			s2.346-5.611,5.305-5.611c1.734,0,3.264,0.918,4.183,2.244v-1.632c0-0.306,0.204-0.51,0.612-0.51c0.306,0,0.51,0.204,0.51,0.51
			V102.036z M294.025,97.241c0-2.55-1.938-4.489-4.183-4.489c-2.346,0-4.183,1.938-4.183,4.489s1.938,4.591,4.183,4.591
			C292.086,101.73,294.025,99.791,294.025,97.241z"/>
		<path fill="#231F20" d="M308.511,96.221c0-1.938-1.53-3.468-3.468-3.468c-1.938,0-3.468,1.53-3.468,3.468v6.121v0.102
			c0,0.102,0,0.204-0.102,0.204c-0.102,0.102-0.204,0.204-0.408,0.204h-0.102c-0.204,0-0.306-0.204-0.408-0.306c0,0,0,0,0-0.102
			c0-0.102,0,0,0,0v-0.102v-6.121v-0.204V92.14c0-0.306,0.204-0.51,0.51-0.51s0.51,0.204,0.51,0.51v1.122
			c0.816-1.02,2.142-1.632,3.468-1.632c2.55,0,4.591,2.04,4.591,4.591v6.121c0,0.306-0.204,0.51-0.51,0.51s-0.51-0.204-0.51-0.51
			v-6.121H308.511z"/>
		<path fill="#231F20" d="M320.65,97.241c0-3.162,2.448-5.713,5.509-5.713c2.856,0,5.203,2.346,5.407,5.305l0,0v0.102
			c0,0.306-0.204,0.51-0.51,0.51h-9.283c0.102,2.448,2.04,4.387,4.387,4.387c1.53,0,2.856-0.816,3.672-2.04
			c0.204-0.306,0.51-0.306,0.714-0.204c0.204,0.204,0.306,0.51,0.204,0.816c-1.02,1.53-2.652,2.55-4.591,2.55
			C323.098,102.954,320.65,100.403,320.65,97.241z M321.874,96.425h8.569c-0.408-2.142-2.142-3.672-4.285-3.672
			S322.282,94.283,321.874,96.425z"/>
		<path fill="#231F20" d="M338.605,92.14c0,0.306-0.306,0.51-0.51,0.51h-1.428v8.263c0,0.51,0.51,0.816,0.816,0.816
			s0.612,0.306,0.612,0.612c0,0.306-0.306,0.51-0.612,0.51c-1.122,0-1.938-0.816-1.938-1.938V92.65h-1.53
			c-0.51,0-0.51-0.306-0.51-0.51s0-0.51,0.51-0.51h1.428v-4.183c0-0.306,0.306-0.51,0.51-0.51c0.306,0,0.612,0.306,0.612,0.51v4.183
			h1.428C338.299,91.63,338.605,91.936,338.605,92.14z"/>
		<path fill="#231F20" d="M359.823,100.709c-1.02,1.326-2.55,2.142-4.387,2.142c-3.06,0-5.509-2.55-5.509-5.611
			c0-3.162,2.448-5.713,5.509-5.713c1.734,0,3.366,0.918,4.387,2.244v-6.529c0-0.306,0.204-0.51,0.612-0.51
			c0.306,0,0.51,0.204,0.51,0.51v9.793v0.204v5.101c0,0.306-0.204,0.51-0.51,0.51s-0.612-0.204-0.612-0.51V100.709z M359.823,97.445
			v-0.408c-0.102-2.448-2.04-4.387-4.387-4.387c-2.346,0-4.387,2.04-4.387,4.591c0,2.448,1.938,4.489,4.387,4.489
			C357.783,101.832,359.721,99.893,359.823,97.445z"/>
		<path fill="#231F20" d="M370.637,102.954c-3.06,0-5.509-2.55-5.509-5.611c0-3.162,2.448-5.713,5.509-5.713
			c2.856,0,5.203,2.346,5.407,5.305l0,0v0.102c0,0.306-0.204,0.51-0.51,0.51h-9.283c0.102,2.448,2.04,4.387,4.387,4.387
			c1.53,0,2.856-0.816,3.673-2.04c0.204-0.306,0.51-0.306,0.714-0.204c0.204,0.204,0.306,0.51,0.204,0.816
			C374.309,101.934,372.575,102.954,370.637,102.954z M370.637,92.752c-2.142,0-3.876,1.53-4.285,3.672h8.569
			C374.513,94.283,372.779,92.752,370.637,92.752z M369.413,89.794c0.306,0,0.51,0,0.714-0.306l1.836-1.734
			c0.102-0.102,0.204-0.306,0.204-0.408c0-0.204-0.51-0.51-0.918-0.51c-0.306,0-0.51,0.102-0.612,0.408l-1.428,2.142
			c0,0.102-0.102,0.204-0.102,0.204C369.107,89.692,369.209,89.794,369.413,89.794z"/>
		<path fill="#231F20" d="M379.206,97.241c0-3.162,2.55-5.611,5.815-5.611c1.326,0,2.652,0.51,3.57,1.224
			c0.204,0.204,0.306,0.51,0.102,0.714c-0.204,0.204-0.51,0.306-0.714,0.102c-0.816-0.612-1.836-1.02-2.856-1.02
			c-2.652,0-4.693,2.04-4.693,4.591s2.04,4.591,4.693,4.591c1.122,0,2.142-0.408,2.856-1.02c0.204-0.204,0.612-0.102,0.714,0.102
			c0.204,0.204,0.204,0.612-0.102,0.816c-0.918,0.714-2.244,1.224-3.57,1.224C381.858,102.954,379.206,100.403,379.206,97.241z"/>
		<path fill="#231F20" d="M397.67,91.63c2.958,0,5.305,2.55,5.305,5.611s-2.346,5.611-5.305,5.611c-2.958,0-5.305-2.55-5.305-5.611
			C392.366,94.181,394.712,91.63,397.67,91.63z M397.67,101.832c2.346,0,4.285-2.04,4.285-4.591s-1.938-4.591-4.285-4.591
			c-2.346,0-4.285,2.04-4.285,4.591C393.488,99.791,395.426,101.832,397.67,101.832z"/>
		<path fill="#231F20" d="M406.852,92.242c0-0.306,0.204-0.51,0.612-0.51c0.306,0,0.51,0.204,0.51,0.51v2.448
			c0-0.102,0.102-0.204,0.204-0.306c0.816-1.326,2.346-2.754,4.489-2.754c0.306,0,0.51,0.204,0.51,0.51
			c0,0.306-0.204,0.51-0.51,0.51c-1.428,0-2.448,0.816-3.264,1.836c-0.714,1.02-1.224,2.142-1.326,2.652c0,0.102,0,0.102,0,0.204
			v4.999c0,0.306-0.204,0.51-0.51,0.51s-0.612-0.204-0.612-0.51V92.242H406.852z"/>
		<path fill="#231F20" d="M425.826,92.14v10.201c0,0.306-0.204,0.51-0.51,0.51s-0.51-0.204-0.51-0.51v-1.632
			c-0.918,1.326-2.55,2.244-4.285,2.244c-2.958,0-5.305-2.55-5.305-5.611s2.346-5.611,5.305-5.611c1.734,0,3.264,0.918,4.285,2.244
			v-1.632c0-0.306,0.204-0.51,0.51-0.51C425.622,91.63,425.826,91.834,425.826,92.14z M424.704,97.241
			c0-2.55-1.938-4.591-4.285-4.591s-4.285,2.04-4.285,4.591s1.938,4.591,4.285,4.591C422.868,101.832,424.704,99.791,424.704,97.241
			z"/>
		<path fill="#231F20" d="M434.599,92.14c0,0.306-0.306,0.51-0.51,0.51h-1.428v8.263c0,0.51,0.51,0.816,0.816,0.816
			s0.612,0.306,0.612,0.612c0,0.306-0.306,0.51-0.612,0.51c-1.122,0-1.938-0.816-1.938-1.938V92.65h-1.428
			c-0.51,0-0.51-0.306-0.51-0.51s0-0.51,0.51-0.51h1.428v-4.183c0-0.306,0.306-0.51,0.51-0.51c0.306,0,0.612,0.306,0.612,0.51v4.183
			h1.428C434.293,91.63,434.599,91.936,434.599,92.14z"/>
		<path fill="#231F20" d="M439.904,88.468c0-0.306,0.204-0.51,0.51-0.51s0.612,0.204,0.612,0.51v0.51
			c0,0.306-0.204,0.612-0.612,0.612c-0.306,0-0.51-0.306-0.51-0.612V88.468z M439.904,92.14c0-0.306,0.204-0.51,0.51-0.51
			s0.612,0.204,0.612,0.51v10.201c0,0.306-0.204,0.51-0.612,0.51c-0.306,0-0.51-0.204-0.51-0.51V92.14z"/>
		<path fill="#231F20" d="M451.228,91.63c2.958,0,5.305,2.55,5.305,5.611s-2.346,5.611-5.305,5.611c-2.958,0-5.305-2.55-5.305-5.611
			C445.821,94.181,448.269,91.63,451.228,91.63z M451.228,101.832c2.346,0,4.285-2.04,4.285-4.591s-1.938-4.591-4.285-4.591
			c-2.346,0-4.285,2.04-4.285,4.591C446.943,99.791,448.881,101.832,451.228,101.832z"/>
		<path fill="#231F20" d="M468.876,96.221c0-1.938-1.53-3.468-3.468-3.468c-1.938,0-3.468,1.53-3.468,3.468v6.121v0.102
			c0,0.102,0,0.204-0.102,0.204c-0.102,0.102-0.204,0.204-0.408,0.204h-0.102c-0.204,0-0.306-0.204-0.408-0.306c0,0,0,0,0-0.102
			c0-0.102,0,0,0,0v-0.102v-6.121v-0.204V92.14c0-0.306,0.204-0.51,0.51-0.51c0.306,0,0.51,0.204,0.51,0.51v1.122
			c0.816-1.02,2.142-1.632,3.468-1.632c2.55,0,4.591,2.04,4.591,4.591v6.121c0,0.306-0.204,0.51-0.51,0.51s-0.51-0.204-0.51-0.51
			v-6.121H468.876z"/>
	</g>
	<path display="inline" fill="#989392" d="M30.398,75.337l-8.8-0.5l-2.4-2.7l-5-1.5l3.5,4l-3.5-0.3l-2-0.1l0,0l-1.5-0.1l1.9-4.2
		l-1.3-0.5l-10.5,22.9l1.1,0.6l0,0l7.7-16.5l1.5,0.1l0,0l4.5,0.2l4.1,0.2l8.6,10.3l-5.7,21.1l1.4,1.4l9-33.8L30.398,75.337z"/>
	<path display="inline" fill="#0D0C0D" d="M60.798,14.937l-9.9,17.7c0,0-8.2,13.9-9.4,15.5c-1.1,1.6-5.8,9.4-12,9.2
		c-6.3-0.2-13.2-3.9-14.4-4.5c-1.3-0.7-5-2.8-9-4.7s-12.4-2.8-12.4-2.8l-0.9,6.7c0.8,2,3,5.1,4.9,7.7c1.9,2.6,5.6,5.5,5.6,5.5
		c4.2,3.4,11.1,5.6,11.1,5.6l35.3,10.2l4.8-0.3c0,0,3.3,0.2,8.4-5.2s6.5-15.5,6.7-16.7c0.2-1.3,2.6-11.4,2.8-12.4
		c0.2-0.9,3.5-13.9,3.8-14.8c0.2-0.9,4-14.2,4-14.2l-1.3-1.3L60.798,14.937z"/>
	<polyline display="inline" fill="#0D0C0D" points="25.598,109.537 34.198,78.037 56.598,84.637 59.498,91.537 61.298,92.037 
		61.698,90.737 57.398,79.837 54.998,80.637 55.698,82.837 32.898,75.937 23.798,109.737 	"/>
	<path display="inline" fill="none" stroke="#000000" stroke-width="6.2853" stroke-miterlimit="10" d="M21.798,75.837"/>
	<path display="inline" fill="none" stroke="#000000" stroke-width="6.2853" stroke-miterlimit="10" d="M23.598,78.037"/>
	<polygon display="inline" fill="#FFFFFF" points="24.098,77.237 29.198,83.237 30.798,77.537 	"/>
	<path display="inline" stroke="#000000" stroke-width="6.2853" stroke-miterlimit="10" d="M25.198,81.837"/>
	<path display="inline" fill="none" d="M12.098,76.537"/>
	<g display="inline">
		<polygon fill="#0D0C0D" points="13.898,70.537 12.598,70.037 10.598,74.237 12.098,74.237 		"/>
		<polygon fill="#0D0C0D" points="1.898,93.037 3.398,93.137 10.898,76.537 9.598,76.437 		"/>
		<polygon fill="#0D0C0D" points="22.898,77.137 28.798,84.337 29.198,83.137 24.098,77.237 		"/>
		<polyline fill="#0D0C0D" points="20.798,74.737 18.098,71.637 19.398,72.137 21.698,74.837 20.798,74.737 		"/>
	</g>
	<g display="inline">
		<polygon fill="#0D0C0D" points="10.598,74.237 12.098,74.237 13.898,70.537 12.598,70.037 		"/>
		<polygon fill="#0D0C0D" points="24.098,77.237 22.898,77.137 28.798,84.337 29.198,83.137 		"/>
		<polygon fill="#0D0C0D" points="18.098,71.637 20.798,74.737 21.698,74.837 19.398,72.137 		"/>
	</g>
	<g display="inline">
		<polygon fill="none" points="29.198,83.237 30.798,77.537 24.098,77.237 		"/>
		<polygon fill="none" points="29.198,83.237 30.798,77.537 24.098,77.237 		"/>
		<path fill="none" d="M11.098,76.537l4.4,0.2L11.098,76.537z"/>
	</g>
	<path display="inline" fill="#989392" d="M78.898,16.237c0,0-3.9,13-4.1,13.9c-0.3,0.9-3.6,14-3.9,14.9c-0.2,0.9-1.5,5.7-1.7,6.9
		c0,0-1.4,5.7-1.8,7c-0.3,1.4-1.9,9.7-6.5,10.5s-7.7-4.7-11.1-5.8c-2.4-0.7-5.9-0.6-7-0.7l-1,4.5h1c2.4,0.2,3.5-0.3,5.8,0.5
		c2.3,0.7,7.3,5.3,11.7,5.2s7-5.7,7.4-6.6c0.3-0.9,1-3.1,1-3.4c0.1-0.3,3.1-13.6,3.4-15.3c0.3-1.6,4.7-18.4,5.1-19.9
		c0.5-1.5,3-10.6,3-10.6"/>
	<path display="inline" fill="#989392" d="M42.798,63.037c0,0-4.5-0.7-8.6,0c-4,0.7-11.9,3.8-17.6,3.4c-5.7-0.3-8.9-2.5-10.6-3.5
		s-4.5-3.3-6-5c-0.7-0.8-3-3.4-3.3-4.1c-0.5-0.7-1.1-1.5-2-3.8c-0.9-2.3-1-4.8-1-4.8l-0.9,6.8c0,0,1,1.9,2.2,3.9
		c1,1.7,2.4,3.5,2.8,4.2c0.7,1,2.3,2.7,4.4,4.4c1.6,1.4,3.6,2.4,5.6,3.4c4.5,2.4,8.6,3.3,14.5,2.6c5.9-0.7,7.7-2.2,11-2.6
		c3.3-0.3,5.9-0.7,8.3-0.3L42.798,63.037C42.398,63.037,42.798,63.037,42.798,63.037z"/>
	
		<line display="inline" fill="none" stroke="#231F20" stroke-width="1.257" stroke-miterlimit="10" x1="41.798" y1="68.537" x2="42.998" y2="62.737"/>
	<g display="inline">
		<path d="M169.98,61.89h-7.691V44.324h-15.631V61.89h-7.691V22.242h7.691v15.73h15.631v-15.73h7.691V61.89z"/>
		<path d="M206.627,47.549c0,2.15-0.397,4.144-1.191,5.979s-1.886,3.424-3.275,4.764c-1.39,1.34-3.02,2.399-4.888,3.176
			c-1.869,0.777-3.863,1.166-5.979,1.166c-2.117,0-4.102-0.389-5.955-1.166c-1.853-0.776-3.474-1.844-4.863-3.2
			c-1.39-1.356-2.481-2.953-3.275-4.789s-1.191-3.812-1.191-5.93c0-2.084,0.405-4.044,1.216-5.881c0.81-1.836,1.911-3.439,3.3-4.813
			c1.39-1.372,3.01-2.447,4.863-3.225c1.852-0.777,3.821-1.167,5.905-1.167c2.117,0,4.11,0.39,5.979,1.167
			c1.869,0.777,3.499,1.836,4.888,3.176c1.389,1.34,2.481,2.936,3.275,4.788C206.23,43.448,206.627,45.432,206.627,47.549z
			 M199.482,47.549c0-1.224-0.215-2.365-0.644-3.424s-1.014-1.985-1.756-2.779c-0.742-0.794-1.608-1.414-2.597-1.86
			c-0.989-0.447-2.045-0.67-3.166-0.67s-2.177,0.223-3.167,0.67c-0.989,0.446-1.855,1.066-2.597,1.86
			c-0.742,0.794-1.328,1.721-1.756,2.779s-0.643,2.2-0.643,3.424s0.214,2.365,0.643,3.424c0.429,1.06,1.014,1.985,1.756,2.779
			c0.742,0.794,1.608,1.414,2.597,1.86s2.045,0.67,3.167,0.67s2.177-0.224,3.166-0.67s1.855-1.066,2.597-1.86
			c0.742-0.794,1.328-1.72,1.756-2.779C199.267,49.914,199.482,48.773,199.482,47.549z"/>
		<path d="M252.999,61.89h-7.146V44.77c0-2.018-0.488-3.548-1.464-4.59c-0.976-1.042-2.175-1.563-3.598-1.563
			c-1.091,0-2.126,0.174-3.101,0.521c-0.976,0.348-1.928,0.918-2.854,1.712c0.298,1.158,0.447,2.465,0.447,3.92v17.12h-7.146V44.77
			c0-2.018-0.488-3.548-1.464-4.59c-0.976-1.042-2.158-1.563-3.548-1.563c-1.092,0-2.052,0.191-2.878,0.571
			c-0.828,0.381-1.688,0.984-2.581,1.811V61.89h-7.146V33.208h7.146l0.008,2.134c0.894-0.86,1.946-1.555,3.154-2.085
			c1.209-0.528,2.442-0.794,3.702-0.794c1.391,0,2.79,0.315,4.198,0.943c1.408,0.629,2.642,1.538,3.702,2.729
			c1.49-1.323,2.997-2.266,4.52-2.829c1.524-0.562,3.196-0.844,5.018-0.844c1.49,0,2.907,0.224,4.249,0.67
			c1.341,0.447,2.508,1.159,3.502,2.134c0.994,0.977,1.788,2.217,2.384,3.722c0.596,1.506,0.895,3.317,0.895,5.435V61.89z"/>
		<path d="M300.636,61.89h-7.295v-1.488c-0.926,0.761-1.935,1.314-3.026,1.662s-2.25,0.521-3.474,0.521
			c-2.019,0-3.871-0.405-5.558-1.216c-1.688-0.81-3.144-1.901-4.367-3.274c-1.225-1.373-2.176-2.969-2.854-4.789
			c-0.678-1.818-1.017-3.737-1.017-5.756c0-2.15,0.388-4.144,1.166-5.979c0.776-1.836,1.811-3.432,3.102-4.789
			c1.29-1.355,2.762-2.423,4.416-3.2c1.653-0.777,3.357-1.166,5.111-1.166c1.224,0,2.414,0.166,3.572,0.496
			c1.158,0.331,2.15,0.794,2.978,1.39V20.704h7.245V61.89z M293.44,54.199V40.404c-0.332-0.231-0.714-0.455-1.146-0.67
			c-0.433-0.215-0.881-0.397-1.345-0.546c-0.466-0.149-0.93-0.265-1.396-0.348c-0.465-0.082-0.88-0.124-1.245-0.124
			c-1.195,0-2.282,0.207-3.263,0.62c-0.979,0.414-1.834,1.01-2.564,1.786c-0.73,0.778-1.295,1.713-1.693,2.804
			c-0.398,1.092-0.598,2.3-0.598,3.623c0,1.29,0.199,2.474,0.598,3.548c0.398,1.075,0.946,2.002,1.644,2.779
			s1.535,1.381,2.516,1.811c0.979,0.431,2.05,0.646,3.212,0.646C290.053,56.332,291.813,55.621,293.44,54.199z"/>
		<path d="M335.592,43.227c0.13,0.445,0.239,0.912,0.33,1.403c0.092,0.49,0.178,0.999,0.263,1.525l-22.014,6.401
			c0.484,0.721,1.061,1.371,1.73,1.951c0.668,0.582,1.412,1.037,2.232,1.367c0.819,0.33,1.693,0.525,2.623,0.581
			c0.93,0.058,1.903-0.062,2.92-0.358c1.239-0.36,2.415-0.935,3.53-1.724c1.114-0.789,1.977-1.668,2.591-2.64l5.597,3.075
			c-1.49,1.984-3.063,3.536-4.718,4.654c-1.657,1.119-3.5,1.974-5.533,2.565c-2.065,0.6-4.105,0.781-6.122,0.54
			s-3.873-0.82-5.57-1.739s-3.183-2.15-4.458-3.691c-1.275-1.541-2.203-3.313-2.785-5.314c-0.582-2.001-0.748-3.994-0.499-5.979
			c0.25-1.985,0.853-3.822,1.808-5.512s2.211-3.175,3.769-4.455c1.556-1.279,3.352-2.215,5.385-2.806
			c1.937-0.563,3.9-0.746,5.887-0.548c1.987,0.197,3.848,0.733,5.584,1.606c1.735,0.874,3.256,2.076,4.563,3.608
			S334.974,41.099,335.592,43.227z M327.621,42.65c-1.049-1.589-2.418-2.715-4.109-3.379c-1.691-0.661-3.411-0.739-5.158-0.231
			c-1.715,0.499-3.101,1.479-4.158,2.94c-1.056,1.462-1.601,3.145-1.632,5.048L327.621,42.65z"/>
		<path d="M382.661,38.865h-3.027c0.761,1.489,1.142,3.077,1.142,4.765c0,1.29-0.24,2.539-0.72,3.746
			c-0.479,1.208-1.166,2.308-2.06,3.3c-0.893,0.992-1.977,1.836-3.25,2.531c-1.273,0.694-2.704,1.158-4.292,1.389
			c-1.092,0.166-1.911,0.422-2.457,0.77c-0.545,0.348-0.818,0.694-0.818,1.042s0.273,0.67,0.818,0.968
			c0.546,0.298,1.365,0.496,2.457,0.596c3.704,0.331,6.575,1.258,8.609,2.778c2.034,1.521,3.052,3.54,3.052,6.055
			c0,1.29-0.313,2.48-0.939,3.572c-0.627,1.092-1.524,2.035-2.694,2.829s-2.579,1.405-4.228,1.836
			c-1.648,0.43-3.494,0.645-5.537,0.645c-2.077,0-3.948-0.215-5.611-0.645c-1.665-0.431-3.091-1.035-4.277-1.812
			c-1.187-0.777-2.093-1.712-2.719-2.804c-0.627-1.092-0.939-2.3-0.939-3.622c0-1.985,0.566-3.647,1.699-4.987
			s2.979-2.34,5.54-3.002c-0.794-0.298-1.364-0.703-1.712-1.216c-0.347-0.513-0.505-1.034-0.471-1.563
			c0.032-0.529,0.256-1.033,0.67-1.514c0.413-0.479,1.001-0.852,1.764-1.116c-0.867-0.397-1.691-0.909-2.475-1.538
			c-0.783-0.628-1.491-1.356-2.123-2.184c-0.633-0.827-1.133-1.753-1.499-2.779c-0.367-1.024-0.55-2.116-0.55-3.274
			c0-1.555,0.33-3.011,0.992-4.367c0.661-1.356,1.555-2.539,2.68-3.548c1.124-1.009,2.432-1.803,3.92-2.382
			c1.489-0.579,3.06-0.869,4.715-0.869c1.62,0,3.126,0.249,4.516,0.745h9.825V38.865z M374.97,66.803
			c0-1.159-0.586-2.002-1.755-2.531c-1.17-0.529-2.678-0.794-4.522-0.794c-1.978,0-3.535,0.28-4.672,0.844
			c-1.137,0.562-1.705,1.39-1.705,2.481c0,1.124,0.594,1.968,1.779,2.53c1.187,0.562,2.719,0.844,4.598,0.844
			c1.91,0,3.435-0.273,4.571-0.819C374.4,68.813,374.97,67.96,374.97,66.803z M373.63,43.629c0-0.728-0.14-1.406-0.418-2.035
			c-0.279-0.628-0.656-1.183-1.131-1.662s-1.032-0.86-1.672-1.142c-0.639-0.28-1.318-0.422-2.039-0.422
			c-0.722,0-1.393,0.142-2.016,0.422c-0.623,0.281-1.172,0.662-1.646,1.142c-0.476,0.479-0.853,1.034-1.131,1.662
			c-0.279,0.629-0.418,1.308-0.418,2.035s0.139,1.414,0.418,2.059c0.278,0.646,0.655,1.208,1.131,1.688
			c0.475,0.479,1.023,0.86,1.646,1.142s1.294,0.422,2.016,0.422c0.721,0,1.4-0.141,2.039-0.422c0.64-0.281,1.197-0.662,1.672-1.142
			s0.852-1.042,1.131-1.688C373.49,45.043,373.63,44.357,373.63,43.629z"/>
		<path d="M415.76,47.549c0,2.15-0.397,4.144-1.191,5.979s-1.886,3.424-3.275,4.764c-1.389,1.34-3.019,2.399-4.888,3.176
			c-1.869,0.777-3.862,1.166-5.979,1.166s-4.103-0.389-5.954-1.166c-1.854-0.776-3.474-1.844-4.863-3.2s-2.481-2.953-3.275-4.789
			s-1.19-3.812-1.19-5.93c0-2.084,0.404-4.044,1.215-5.881c0.811-1.836,1.911-3.439,3.301-4.813c1.389-1.372,3.01-2.447,4.862-3.225
			s3.821-1.167,5.905-1.167c2.117,0,4.11,0.39,5.979,1.167s3.499,1.836,4.888,3.176c1.39,1.34,2.481,2.936,3.275,4.788
			C415.362,43.448,415.76,45.432,415.76,47.549z M408.613,47.549c0-1.224-0.214-2.365-0.644-3.424
			c-0.429-1.059-1.014-1.985-1.756-2.779s-1.608-1.414-2.598-1.86c-0.989-0.447-2.044-0.67-3.165-0.67s-2.178,0.223-3.167,0.67
			c-0.989,0.446-1.855,1.066-2.598,1.86s-1.327,1.721-1.756,2.779s-0.643,2.2-0.643,3.424s0.214,2.365,0.643,3.424
			c0.429,1.06,1.014,1.985,1.756,2.779s1.608,1.414,2.598,1.86s2.046,0.67,3.167,0.67s2.176-0.224,3.165-0.67
			s1.855-1.066,2.598-1.86s1.327-1.72,1.756-2.779C408.399,49.914,408.613,48.773,408.613,47.549z"/>
		<path d="M445.531,61.89h-7.146v-2.184c-0.464,0.464-1.001,0.868-1.612,1.216c-0.612,0.348-1.258,0.646-1.936,0.894
			c-0.679,0.248-1.373,0.438-2.084,0.57c-0.712,0.132-1.382,0.198-2.01,0.198c-1.456,0-2.854-0.231-4.193-0.694
			s-2.522-1.174-3.548-2.134c-1.025-0.959-1.845-2.199-2.456-3.722c-0.612-1.521-0.918-3.325-0.918-5.409V33.208h7.146v17.07
			c0,1.025,0.156,1.927,0.472,2.704c0.313,0.777,0.727,1.423,1.24,1.936c0.513,0.513,1.108,0.893,1.786,1.141
			s1.381,0.372,2.109,0.372c2.315,0,4.317-0.794,6.004-2.382V33.208h7.146V61.89z M442.058,29.635h-5.359l-4.219-4.218l-4.268,4.218
			h-5.358l6.401-9.577h6.401L442.058,29.635z"/>
		<path d="M467.565,61.245c-0.729,0.464-1.572,0.811-2.531,1.043c-0.96,0.23-1.919,0.347-2.878,0.347
			c-1.688,0-3.109-0.207-4.268-0.62s-2.084-1.05-2.778-1.91c-0.695-0.86-1.2-1.952-1.514-3.275
			c-0.315-1.323-0.472-2.878-0.472-4.664V39.61h-3.771v-3.226c2.315-0.959,4.193-2.382,5.633-4.268
			c1.438-1.886,2.423-4.334,2.952-7.345h2.332v8.387h7.245v6.451h-7.245v13.051c0,0.728,0.091,1.323,0.273,1.786
			c0.181,0.464,0.422,0.827,0.72,1.092c0.297,0.265,0.636,0.446,1.017,0.546c0.38,0.099,0.785,0.148,1.216,0.148
			c0.562,0,1.24-0.099,2.034-0.298c0.795-0.198,1.472-0.528,2.035-0.992V61.245z"/>
	</g>
	<rect x="182.293" y="24.63" display="inline" width="18.371" height="5.289"/>
	<rect x="423.394" y="24.63" display="inline" width="18.371" height="5.289"/>
</g>
<g id="Calque_3">
	
		<line fill="none" stroke="#FFFFFF" stroke-linecap="round" stroke-linejoin="round" stroke-miterlimit="10" x1="129.103" y1="107.699" x2="129.103" y2="16.699"/>
	<g>
		<path fill="#FFFFFF" d="M171.994,88.206l-5.815,7.981c-0.114,0.228-0.342,0.228-0.57,0.228l0,0c-0.228,0-0.456-0.114-0.57-0.228
			l-5.815-7.981v14.822c0,0.342-0.228,0.57-0.57,0.57s-0.684-0.228-0.684-0.57V86.382c0-0.228,0.114-0.342,0.228-0.456l0,0
			c0.228-0.228,0.684-0.114,0.912,0.114l6.385,8.893l6.385-8.893c0.228-0.228,0.57-0.342,0.912-0.114
			c0.114,0.114,0.114,0.114,0.228,0.228c0,0.114,0.114,0.228,0.114,0.342v16.646c0,0.342-0.228,0.57-0.57,0.57
			s-0.57-0.228-0.57-0.57V88.206z"/>
		<path fill="#FFFFFF" d="M184.877,91.057c3.306,0,5.929,2.85,5.929,6.271s-2.622,6.271-5.929,6.271s-5.929-2.85-5.929-6.271
			C178.949,93.907,181.571,91.057,184.877,91.057z M184.877,102.458c2.622,0,4.789-2.28,4.789-5.131s-2.166-5.131-4.789-5.131
			s-4.789,2.28-4.789,5.131C180.203,100.178,182.369,102.458,184.877,102.458z"/>
		<path fill="#FFFFFF" d="M195.594,97.669v-0.228v-0.342V86.268c0-0.342,0.228-0.57,0.57-0.57c0.342,0,0.684,0.228,0.684,0.57v7.297
			c1.14-1.482,2.85-2.508,4.903-2.508c3.42,0,6.157,2.85,6.157,6.385c0,3.42-2.736,6.271-6.157,6.271
			c-1.938,0-3.762-0.912-4.903-2.394v1.824c0,0.342-0.228,0.57-0.684,0.57c-0.342,0-0.57-0.228-0.57-0.57V97.669z M196.849,97.327
			c0,2.736,2.166,5.017,4.903,5.017s4.903-2.28,4.903-5.017c0-2.85-2.166-5.131-4.903-5.131c-2.622,0-4.789,2.166-4.903,4.903
			V97.327z"/>
		<path fill="#FFFFFF" d="M212.696,87.522c0-0.342,0.228-0.57,0.57-0.57c0.342,0,0.684,0.228,0.684,0.57v0.57
			c0,0.342-0.228,0.684-0.684,0.684c-0.342,0-0.57-0.342-0.57-0.684V87.522z M212.696,91.627c0-0.342,0.228-0.57,0.57-0.57
			c0.342,0,0.684,0.228,0.684,0.57v11.401c0,0.342-0.228,0.57-0.684,0.57c-0.342,0-0.57-0.228-0.57-0.57V91.627z"/>
		<path fill="#FFFFFF" d="M219.537,86.268c0-0.342,0.228-0.57,0.57-0.57s0.684,0.228,0.684,0.57v16.76
			c0,0.342-0.228,0.57-0.684,0.57c-0.342,0-0.57-0.228-0.57-0.57V86.268z"/>
		<path fill="#FFFFFF" d="M225.808,87.522c0-0.342,0.228-0.57,0.57-0.57s0.684,0.228,0.684,0.57v0.57
			c0,0.342-0.228,0.684-0.684,0.684c-0.342,0-0.57-0.342-0.57-0.684V87.522z M225.808,91.627c0-0.342,0.228-0.57,0.57-0.57
			s0.684,0.228,0.684,0.57v11.401c0,0.342-0.228,0.57-0.684,0.57c-0.342,0-0.57-0.228-0.57-0.57V91.627z"/>
		<path fill="#FFFFFF" d="M232.078,97.327c0-3.534,2.736-6.385,6.157-6.385c3.192,0,5.815,2.622,6.043,5.929l0,0v0.114
			c0,0.342-0.228,0.57-0.57,0.57h-10.375c0.114,2.736,2.28,4.903,4.903,4.903c1.71,0,3.192-0.912,4.104-2.28
			c0.228-0.342,0.57-0.342,0.798-0.228c0.228,0.228,0.342,0.57,0.228,0.912c-1.026,1.71-2.964,2.85-5.131,2.85
			C234.815,103.712,232.078,100.862,232.078,97.327z M233.447,96.415h9.577c-0.456-2.394-2.394-4.104-4.789-4.104
			C235.841,92.311,233.903,94.021,233.447,96.415z"/>
		<path fill="#FFFFFF" d="M248.154,91.741c0-0.342,0.228-0.57,0.684-0.57c0.342,0,0.57,0.228,0.57,0.57v2.736
			c0-0.114,0.114-0.228,0.228-0.342c0.912-1.482,2.622-3.078,5.017-3.078c0.342,0,0.57,0.228,0.57,0.57s-0.228,0.57-0.57,0.57
			c-1.596,0-2.736,0.912-3.648,2.052c-0.798,1.14-1.368,2.394-1.482,2.964c0,0.114,0,0.114,0,0.228v5.587
			c0,0.342-0.228,0.57-0.57,0.57s-0.684-0.228-0.684-0.57V91.741H248.154z"/>
		<path fill="#FFFFFF" d="M277.341,101.204c-1.14,1.482-2.85,2.394-4.903,2.394c-3.42,0-6.157-2.85-6.157-6.271
			c0-3.534,2.736-6.385,6.157-6.385c1.938,0,3.762,1.026,4.903,2.508v-7.297c0-0.342,0.228-0.57,0.684-0.57
			c0.342,0,0.57,0.228,0.57,0.57v10.945v0.228v5.701c0,0.342-0.228,0.57-0.57,0.57s-0.684-0.228-0.684-0.57V101.204z
			 M277.341,97.555v-0.456c-0.114-2.736-2.28-4.903-4.903-4.903s-4.903,2.28-4.903,5.131c0,2.736,2.166,5.017,4.903,5.017
			C275.061,102.458,277.227,100.292,277.341,97.555z"/>
		<path fill="#FFFFFF" d="M282.928,97.327c0-3.534,2.736-6.385,6.157-6.385c3.192,0,5.815,2.622,6.043,5.929l0,0v0.114
			c0,0.342-0.228,0.57-0.57,0.57h-10.375c0.114,2.736,2.28,4.903,4.903,4.903c1.71,0,3.192-0.912,4.104-2.28
			c0.228-0.342,0.57-0.342,0.798-0.228c0.228,0.228,0.342,0.57,0.228,0.912c-1.026,1.71-2.964,2.85-5.131,2.85
			C285.664,103.712,282.928,100.862,282.928,97.327z M284.296,96.415h9.577c-0.456-2.394-2.394-4.104-4.789-4.104
			C286.69,92.311,284.752,94.021,284.296,96.415z"/>
		<path fill="#FFFFFF" d="M298.662,101.09c0.228-0.228,0.57-0.342,0.912-0.114c0.912,0.684,2.28,1.482,3.876,1.482
			c1.026,0,1.824-0.342,2.394-0.798c0.57-0.456,0.912-1.026,0.912-1.596c0-0.57-0.228-1.026-0.912-1.596
			c-0.57-0.456-1.482-0.684-2.736-0.912l0,0c-1.14-0.228-2.166-0.456-2.85-1.026c-0.798-0.456-1.368-1.254-1.368-2.28
			c0-1.026,0.57-1.824,1.368-2.508c0.798-0.57,1.824-0.798,3.078-0.798c1.596,0,2.736,0.798,3.762,1.368
			c0.228,0.228,0.342,0.57,0.228,0.912c-0.228,0.228-0.57,0.342-0.798,0.228c-0.912-0.57-1.824-1.254-3.078-1.254
			c-1.026,0-1.824,0.228-2.394,0.684s-0.798,0.912-0.798,1.482c0,0.57,0.228,0.912,0.684,1.254c0.57,0.342,1.368,0.684,2.622,0.912
			l0,0c1.254,0.228,2.166,0.57,3.078,1.026c0.798,0.57,1.368,1.482,1.368,2.622c0,1.026-0.57,1.938-1.482,2.508
			c-0.912,0.684-1.938,1.026-3.192,1.026c-2.052,0-3.648-1.026-4.674-1.824C298.548,101.66,298.434,101.318,298.662,101.09z"/>
		<path fill="#FFFFFF" d="M312.229,87.522c0-0.342,0.228-0.57,0.57-0.57c0.342,0,0.684,0.228,0.684,0.57v0.57
			c0,0.342-0.228,0.684-0.684,0.684c-0.342,0-0.57-0.342-0.57-0.684V87.522z M312.229,91.627c0-0.342,0.228-0.57,0.57-0.57
			c0.342,0,0.684,0.228,0.684,0.57v11.401c0,0.342-0.228,0.57-0.684,0.57c-0.342,0-0.57-0.228-0.57-0.57V91.627z"/>
		<path fill="#FFFFFF" d="M330.471,102.686c0,3.306-2.622,5.929-5.929,5.929c-0.912,0-1.824-0.228-2.622-0.57
			c-0.228-0.228-0.456-0.57-0.228-0.798c0.114-0.342,0.57-0.456,0.798-0.228c0.684,0.342,1.254,0.456,2.052,0.456
			c2.622,0,4.674-2.052,4.674-4.675v-1.596c-1.026,1.482-2.736,2.508-4.674,2.508c-3.306,0-5.929-2.85-5.929-6.271
			c0-3.42,2.622-6.271,5.929-6.271c1.938,0,3.648,1.026,4.674,2.508v-1.824c0-0.342,0.228-0.57,0.684-0.57
			c0.342,0,0.57,0.228,0.57,0.57V102.686z M329.331,97.327c0-2.85-2.166-5.017-4.675-5.017c-2.622,0-4.675,2.166-4.675,5.017
			s2.166,5.131,4.675,5.131C327.165,102.344,329.331,100.178,329.331,97.327z"/>
		<path fill="#FFFFFF" d="M345.521,96.187c0-2.166-1.71-3.876-3.876-3.876s-3.876,1.71-3.876,3.876v6.841v0.114
			c0,0.114,0,0.228-0.114,0.228c-0.114,0.114-0.228,0.228-0.456,0.228h-0.114c-0.228,0-0.342-0.228-0.456-0.342c0,0,0,0,0-0.114
			c0-0.114,0,0,0,0v-0.114v-6.841v-0.228v-4.332c0-0.342,0.228-0.57,0.57-0.57c0.342,0,0.57,0.228,0.57,0.57v1.254
			c0.912-1.14,2.394-1.824,3.876-1.824c2.85,0,5.131,2.28,5.131,5.131v6.841c0,0.342-0.228,0.57-0.57,0.57
			c-0.342,0-0.57-0.228-0.57-0.57v-6.841H345.521z"/>
		<path fill="#FFFFFF" d="M359.088,97.327c0-3.534,2.736-6.385,6.157-6.385c3.192,0,5.815,2.622,6.043,5.929l0,0v0.114
			c0,0.342-0.228,0.57-0.57,0.57h-10.375c0.114,2.736,2.28,4.903,4.903,4.903c1.71,0,3.192-0.912,4.104-2.28
			c0.228-0.342,0.57-0.342,0.798-0.228c0.228,0.228,0.342,0.57,0.228,0.912c-1.14,1.71-2.964,2.85-5.131,2.85
			C361.825,103.712,359.088,100.862,359.088,97.327z M360.456,96.415h9.577c-0.456-2.394-2.394-4.104-4.789-4.104
			C362.851,92.311,360.912,94.021,360.456,96.415z"/>
		<path fill="#FFFFFF" d="M379.154,91.627c0,0.342-0.342,0.57-0.57,0.57h-1.596v9.235c0,0.57,0.57,0.912,0.912,0.912
			c0.342,0,0.684,0.342,0.684,0.684s-0.342,0.57-0.684,0.57c-1.254,0-2.166-0.912-2.166-2.166v-9.235h-1.71
			c-0.57,0-0.57-0.342-0.57-0.57s0-0.57,0.57-0.57h1.596v-4.675c0-0.342,0.342-0.57,0.57-0.57c0.342,0,0.684,0.342,0.684,0.57v4.675
			h1.596C378.812,91.057,379.154,91.399,379.154,91.627z"/>
		<path fill="#FFFFFF" d="M402.869,101.204c-1.14,1.482-2.85,2.394-4.903,2.394c-3.42,0-6.157-2.85-6.157-6.271
			c0-3.534,2.736-6.385,6.157-6.385c1.938,0,3.762,1.026,4.903,2.508v-7.297c0-0.342,0.228-0.57,0.684-0.57
			c0.342,0,0.57,0.228,0.57,0.57v10.945v0.228v5.701c0,0.342-0.228,0.57-0.57,0.57c-0.342,0-0.684-0.228-0.684-0.57V101.204z
			 M402.869,97.555v-0.456c-0.114-2.736-2.28-4.903-4.903-4.903c-2.622,0-4.903,2.28-4.903,5.131c0,2.736,2.166,5.017,4.903,5.017
			C400.589,102.458,402.755,100.292,402.869,97.555z"/>
		<path fill="#FFFFFF" d="M414.954,103.712c-3.42,0-6.157-2.85-6.157-6.271c0-3.534,2.736-6.385,6.157-6.385
			c3.192,0,5.815,2.622,6.043,5.929l0,0v0.114c0,0.342-0.228,0.57-0.57,0.57h-10.375c0.114,2.736,2.28,4.903,4.903,4.903
			c1.71,0,3.192-0.912,4.104-2.28c0.228-0.342,0.57-0.342,0.798-0.228c0.228,0.228,0.342,0.57,0.228,0.912
			C419.059,102.572,417.121,103.712,414.954,103.712z M414.954,92.311c-2.394,0-4.332,1.71-4.789,4.104h9.577
			C419.287,94.021,417.349,92.311,414.954,92.311z M413.586,89.004c0.342,0,0.57,0,0.798-0.342l2.052-1.938
			c0.114-0.114,0.228-0.342,0.228-0.456c0-0.228-0.57-0.57-1.026-0.57c-0.342,0-0.57,0.114-0.684,0.456l-1.596,2.394
			c0,0.114-0.114,0.228-0.114,0.228C413.244,88.89,413.358,89.004,413.586,89.004z"/>
		<path fill="#FFFFFF" d="M424.531,97.327c0-3.534,2.85-6.271,6.499-6.271c1.482,0,2.964,0.57,3.99,1.368
			c0.228,0.228,0.342,0.57,0.114,0.798c-0.228,0.228-0.57,0.342-0.798,0.114c-0.912-0.684-2.052-1.14-3.192-1.14
			c-2.964,0-5.245,2.28-5.245,5.131s2.28,5.131,5.245,5.131c1.254,0,2.394-0.456,3.192-1.14c0.228-0.228,0.684-0.114,0.798,0.114
			c0.228,0.228,0.228,0.684-0.114,0.912c-1.026,0.798-2.508,1.368-3.99,1.368C427.496,103.712,424.531,100.862,424.531,97.327z"/>
		<path fill="#FFFFFF" d="M445.168,91.057c3.306,0,5.929,2.85,5.929,6.271s-2.622,6.271-5.929,6.271
			c-3.306,0-5.929-2.85-5.929-6.271C439.239,93.907,441.861,91.057,445.168,91.057z M445.168,102.458
			c2.622,0,4.789-2.28,4.789-5.131s-2.166-5.131-4.789-5.131c-2.622,0-4.789,2.28-4.789,5.131
			C440.493,100.178,442.659,102.458,445.168,102.458z"/>
		<path fill="#FFFFFF" d="M455.429,91.741c0-0.342,0.228-0.57,0.684-0.57c0.342,0,0.57,0.228,0.57,0.57v2.736
			c0-0.114,0.114-0.228,0.228-0.342c0.912-1.482,2.622-3.078,5.017-3.078c0.342,0,0.57,0.228,0.57,0.57s-0.228,0.57-0.57,0.57
			c-1.596,0-2.736,0.912-3.648,2.052c-0.798,1.14-1.368,2.394-1.482,2.964c0,0.114,0,0.114,0,0.228v5.587
			c0,0.342-0.228,0.57-0.57,0.57c-0.342,0-0.684-0.228-0.684-0.57V91.741H455.429z"/>
		<path fill="#FFFFFF" d="M476.635,91.627v11.401c0,0.342-0.228,0.57-0.57,0.57c-0.342,0-0.57-0.228-0.57-0.57v-1.824
			c-1.026,1.482-2.85,2.508-4.789,2.508c-3.306,0-5.929-2.85-5.929-6.271c0-3.42,2.622-6.271,5.929-6.271
			c1.938,0,3.648,1.026,4.789,2.508v-1.824c0-0.342,0.228-0.57,0.57-0.57C476.407,91.057,476.635,91.285,476.635,91.627z
			 M475.381,97.327c0-2.85-2.166-5.131-4.789-5.131s-4.789,2.28-4.789,5.131s2.166,5.131,4.789,5.131
			C473.329,102.458,475.381,100.178,475.381,97.327z"/>
		<path fill="#FFFFFF" d="M486.44,91.627c0,0.342-0.342,0.57-0.57,0.57h-1.596v9.235c0,0.57,0.57,0.912,0.912,0.912
			c0.342,0,0.684,0.342,0.684,0.684s-0.342,0.57-0.684,0.57c-1.254,0-2.166-0.912-2.166-2.166v-9.235h-1.596
			c-0.57,0-0.57-0.342-0.57-0.57s0-0.57,0.57-0.57h1.596v-4.675c0-0.342,0.342-0.57,0.57-0.57c0.342,0,0.684,0.342,0.684,0.57v4.675
			h1.596C486.098,91.057,486.44,91.399,486.44,91.627z"/>
		<path fill="#FFFFFF" d="M492.369,87.522c0-0.342,0.228-0.57,0.57-0.57s0.684,0.228,0.684,0.57v0.57
			c0,0.342-0.228,0.684-0.684,0.684c-0.342,0-0.57-0.342-0.57-0.684V87.522z M492.369,91.627c0-0.342,0.228-0.57,0.57-0.57
			s0.684,0.228,0.684,0.57v11.401c0,0.342-0.228,0.57-0.684,0.57c-0.342,0-0.57-0.228-0.57-0.57V91.627z"/>
		<path fill="#FFFFFF" d="M505.024,91.057c3.306,0,5.929,2.85,5.929,6.271s-2.622,6.271-5.929,6.271
			c-3.306,0-5.929-2.85-5.929-6.271C498.982,93.907,501.718,91.057,505.024,91.057z M505.024,102.458
			c2.622,0,4.789-2.28,4.789-5.131s-2.166-5.131-4.789-5.131s-4.789,2.28-4.789,5.131
			C500.236,100.178,502.402,102.458,505.024,102.458z"/>
		<path fill="#FFFFFF" d="M524.748,96.187c0-2.166-1.71-3.876-3.876-3.876c-2.166,0-3.876,1.71-3.876,3.876v6.841v0.114
			c0,0.114,0,0.228-0.114,0.228c-0.114,0.114-0.228,0.228-0.456,0.228h-0.114c-0.228,0-0.342-0.228-0.456-0.342c0,0,0,0,0-0.114
			c0-0.114,0,0,0,0v-0.114v-6.841v-0.228v-4.332c0-0.342,0.228-0.57,0.57-0.57s0.57,0.228,0.57,0.57v1.254
			c0.912-1.14,2.394-1.824,3.876-1.824c2.85,0,5.131,2.28,5.131,5.131v6.841c0,0.342-0.228,0.57-0.57,0.57
			c-0.342,0-0.57-0.228-0.57-0.57v-6.841H524.748z"/>
	</g>
	<path fill="#FFFFFF" d="M79.803,14.999l-9.9,17.7c0,0-8.2,13.9-9.4,15.5c-1.1,1.6-5.8,9.4-12,9.2c-6.3-0.2-13.2-3.9-14.4-4.5
		c-1.3-0.7-5-2.8-9-4.7s-12.4-2.8-12.4-2.8l-0.9,6.7c0.8,2,3,5.1,4.9,7.7c1.9,2.6,5.6,5.5,5.6,5.5c4.2,3.4,11.1,5.6,11.1,5.6
		l35.3,10.2l4.8-0.3c0,0,3.3,0.2,8.4-5.2c5.1-5.4,6.5-15.5,6.7-16.7c0.2-1.3,2.6-11.4,2.8-12.4c0.2-0.9,3.5-13.9,3.8-14.8
		c0.2-0.9,4-14.2,4-14.2l-1.3-1.3L79.803,14.999z"/>
	<path fill="#989392" d="M49.403,75.399l-8.8-0.5l-2.4-2.7l-5-1.5l3.5,4l-3.5-0.3l-2-0.1l-1.5-0.1l1.9-4.2l-1.3-0.5l-10.5,22.9
		l1.1,0.6l7.7-16.5l1.5,0.1l4.5,0.2l4.1,0.2l8.6,10.3l-5.7,21.1l1.4,1.4l9-33.8L49.403,75.399z M43.102,77.299l6.7,0.3l-1.6,5.7
		L43.102,77.299z"/>
	<path stroke="#000000" stroke-width="6.2853" stroke-miterlimit="10" d="M44.203,81.899"/>
	<path fill="none" d="M31.103,76.599"/>
	<g>
		<polyline fill="#FFFFFF" points="44.603,109.599 53.203,78.099 75.603,84.699 78.503,91.599 80.303,92.099 80.703,90.799 
			76.403,79.899 74.003,80.699 74.703,82.899 51.903,75.999 42.803,109.799 		"/>
		<polygon fill="#FFFFFF" points="32.903,70.599 31.603,70.099 29.603,74.299 31.103,74.299 		"/>
		<polygon fill="#FFFFFF" points="20.903,93.099 22.403,93.199 29.903,76.599 28.603,76.499 		"/>
		<polygon fill="#FFFFFF" points="41.903,77.199 47.803,84.399 48.203,83.199 43.103,77.299 		"/>
		<polyline fill="#FFFFFF" points="39.803,74.799 37.103,71.699 38.403,72.199 40.703,74.899 39.803,74.799 		"/>
		<polygon fill="#FFFFFF" points="29.603,74.299 31.103,74.299 32.903,70.599 31.603,70.099 		"/>
		<polygon fill="#FFFFFF" points="43.103,77.299 41.903,77.199 47.803,84.399 48.203,83.199 		"/>
		<polygon fill="#FFFFFF" points="37.103,71.699 39.803,74.799 40.703,74.899 38.403,72.199 		"/>
	</g>
	<g>
		<polygon fill="none" points="48.203,83.299 49.803,77.599 43.103,77.299 		"/>
		<polygon fill="none" points="48.203,83.299 49.803,77.599 43.103,77.299 		"/>
		<path fill="none" d="M30.103,76.599l4.4,0.2L30.103,76.599z"/>
	</g>
	<path fill="#989392" d="M97.903,16.299c0,0-3.9,13-4.1,13.9c-0.3,0.9-3.6,14-3.9,14.9c-0.2,0.9-1.5,5.7-1.7,6.9c0,0-1.4,5.7-1.8,7
		c-0.3,1.4-1.9,9.7-6.5,10.5c-4.6,0.8-7.7-4.7-11.1-5.8c-2.4-0.7-5.9-0.6-7-0.7l-1,4.5h1c2.4,0.2,3.5-0.3,5.8,0.5
		c2.3,0.7,7.3,5.3,11.7,5.2c4.4-0.1,7-5.7,7.4-6.6c0.3-0.9,1-3.1,1-3.4c0.1-0.3,3.1-13.6,3.4-15.3c0.3-1.6,4.7-18.4,5.1-19.9
		c0.5-1.5,3-10.6,3-10.6"/>
	<path fill="#989392" d="M61.803,63.099c0,0-4.5-0.7-8.6,0c-4,0.7-11.9,3.8-17.6,3.4c-5.7-0.3-8.9-2.5-10.6-3.5s-4.5-3.3-6-5
		c-0.7-0.8-3-3.4-3.3-4.1c-0.5-0.7-1.1-1.5-2-3.8c-0.9-2.3-1-4.8-1-4.8l-0.9,6.8c0,0,1,1.9,2.2,3.9c1,1.7,2.4,3.5,2.8,4.2
		c0.7,1,2.3,2.7,4.4,4.4c1.6,1.4,3.6,2.4,5.6,3.4c4.5,2.4,8.6,3.3,14.5,2.6s7.7-2.2,11-2.6c3.3-0.3,5.9-0.7,8.3-0.3L61.803,63.099
		C61.403,63.099,61.803,63.099,61.803,63.099z"/>
	<line fill="#FFFFFF" stroke="#FFFFFF" stroke-miterlimit="10" x1="60.803" y1="68.599" x2="62.003" y2="62.799"/>
	<g>
		<path fill="#FFFFFF" d="M188.984,61.952h-7.691V44.386h-15.631v17.566h-7.691V22.304h7.691v15.73h15.631v-15.73h7.691V61.952z"/>
		<path fill="#FFFFFF" d="M225.632,47.612c0,2.15-0.397,4.144-1.191,5.979s-1.886,3.424-3.275,4.764
			c-1.39,1.34-3.02,2.399-4.888,3.176c-1.869,0.777-3.863,1.166-5.979,1.166c-2.117,0-4.102-0.389-5.955-1.166
			c-1.853-0.776-3.474-1.844-4.863-3.2c-1.39-1.356-2.481-2.953-3.275-4.789s-1.191-3.812-1.191-5.93
			c0-2.084,0.405-4.044,1.216-5.881c0.81-1.836,1.911-3.439,3.3-4.813c1.39-1.372,3.01-2.447,4.863-3.225
			c1.852-0.777,3.821-1.167,5.905-1.167c2.117,0,4.11,0.39,5.979,1.167c1.869,0.777,3.499,1.836,4.888,3.176
			c1.389,1.34,2.481,2.936,3.275,4.788C225.235,43.51,225.632,45.494,225.632,47.612z M218.486,47.612
			c0-1.224-0.215-2.365-0.644-3.424s-1.014-1.985-1.756-2.779c-0.742-0.794-1.608-1.414-2.597-1.86
			c-0.989-0.447-2.045-0.67-3.166-0.67s-2.177,0.223-3.167,0.67c-0.989,0.446-1.855,1.066-2.597,1.86
			c-0.742,0.794-1.328,1.721-1.756,2.779s-0.643,2.2-0.643,3.424s0.214,2.365,0.643,3.424c0.429,1.06,1.014,1.985,1.756,2.779
			c0.742,0.794,1.608,1.414,2.597,1.86s2.045,0.67,3.167,0.67s2.177-0.224,3.166-0.67s1.855-1.066,2.597-1.86
			c0.742-0.794,1.328-1.72,1.756-2.779C218.271,49.977,218.486,48.835,218.486,47.612z"/>
		<rect x="201.298" y="24.692" fill="#FFFFFF" width="18.371" height="5.289"/>
		<path fill="#FFFFFF" d="M272.003,61.952h-7.146v-17.12c0-2.018-0.488-3.548-1.464-4.59c-0.976-1.042-2.175-1.563-3.598-1.563
			c-1.091,0-2.126,0.174-3.101,0.521c-0.976,0.348-1.928,0.918-2.854,1.712c0.298,1.158,0.447,2.465,0.447,3.92v17.12h-7.146v-17.12
			c0-2.018-0.488-3.548-1.464-4.59c-0.976-1.042-2.158-1.563-3.548-1.563c-1.092,0-2.052,0.191-2.878,0.571
			c-0.828,0.381-1.688,0.984-2.581,1.811v20.892h-7.146V33.271h7.146l0.008,2.134c0.894-0.86,1.946-1.555,3.154-2.085
			c1.209-0.528,2.442-0.794,3.702-0.794c1.391,0,2.79,0.315,4.198,0.943c1.408,0.629,2.642,1.538,3.702,2.729
			c1.49-1.323,2.997-2.266,4.52-2.829c1.524-0.562,3.196-0.844,5.018-0.844c1.49,0,2.907,0.224,4.249,0.67
			c1.341,0.447,2.508,1.159,3.502,2.134c0.994,0.977,1.788,2.217,2.384,3.722c0.596,1.506,0.895,3.317,0.895,5.435V61.952z"/>
		<path fill="#FFFFFF" d="M319.64,61.952h-7.295v-1.488c-0.926,0.761-1.935,1.314-3.026,1.662s-2.25,0.521-3.474,0.521
			c-2.019,0-3.871-0.405-5.558-1.216c-1.688-0.81-3.144-1.901-4.367-3.274c-1.225-1.373-2.176-2.969-2.854-4.789
			c-0.678-1.818-1.017-3.737-1.017-5.756c0-2.15,0.388-4.144,1.166-5.979c0.776-1.836,1.811-3.432,3.102-4.789
			c1.29-1.355,2.762-2.423,4.416-3.2c1.653-0.777,3.357-1.166,5.111-1.166c1.224,0,2.414,0.166,3.572,0.496
			c1.158,0.331,2.15,0.794,2.978,1.39V20.766h7.245V61.952z M312.445,54.261V40.466c-0.332-0.231-0.714-0.455-1.146-0.67
			c-0.433-0.215-0.881-0.397-1.345-0.546c-0.466-0.149-0.93-0.265-1.396-0.348c-0.465-0.082-0.88-0.124-1.245-0.124
			c-1.195,0-2.282,0.207-3.263,0.62c-0.979,0.414-1.834,1.01-2.564,1.786c-0.73,0.778-1.295,1.713-1.693,2.804
			c-0.398,1.092-0.598,2.3-0.598,3.623c0,1.29,0.199,2.474,0.598,3.548c0.398,1.075,0.946,2.002,1.644,2.779
			s1.535,1.381,2.516,1.811c0.979,0.431,2.05,0.646,3.212,0.646C309.057,56.395,310.817,55.684,312.445,54.261z"/>
		<path fill="#FFFFFF" d="M354.597,43.289c0.13,0.445,0.239,0.912,0.33,1.403c0.092,0.49,0.179,0.999,0.263,1.525l-22.014,6.401
			c0.484,0.721,1.061,1.371,1.73,1.951c0.668,0.582,1.412,1.037,2.232,1.367c0.819,0.33,1.693,0.525,2.623,0.581
			c0.93,0.058,1.903-0.062,2.92-0.358c1.239-0.36,2.415-0.935,3.53-1.724c1.114-0.789,1.977-1.668,2.591-2.64l5.597,3.075
			c-1.49,1.984-3.063,3.536-4.718,4.654c-1.657,1.119-3.5,1.974-5.533,2.565c-2.065,0.6-4.105,0.781-6.122,0.54
			c-2.016-0.24-3.873-0.82-5.57-1.739c-1.697-0.919-3.183-2.15-4.458-3.691c-1.275-1.541-2.203-3.313-2.785-5.314
			c-0.582-2.001-0.748-3.994-0.499-5.979c0.25-1.985,0.853-3.822,1.808-5.512c0.956-1.691,2.211-3.175,3.769-4.455
			c1.556-1.279,3.352-2.215,5.385-2.806c1.937-0.563,3.9-0.746,5.887-0.548s3.848,0.733,5.584,1.606
			c1.735,0.874,3.256,2.076,4.563,3.608C353.014,39.331,353.978,41.162,354.597,43.289z M346.626,42.713
			c-1.049-1.589-2.418-2.715-4.109-3.379c-1.691-0.661-3.411-0.739-5.158-0.231c-1.715,0.499-3.101,1.479-4.158,2.94
			c-1.056,1.462-1.601,3.145-1.632,5.048L346.626,42.713z"/>
		<path fill="#FFFFFF" d="M401.666,38.927h-3.027c0.761,1.489,1.142,3.077,1.142,4.765c0,1.29-0.24,2.539-0.72,3.746
			c-0.479,1.208-1.166,2.308-2.06,3.3c-0.893,0.992-1.977,1.836-3.25,2.531c-1.273,0.694-2.704,1.158-4.292,1.389
			c-1.092,0.166-1.911,0.422-2.457,0.77c-0.545,0.348-0.818,0.694-0.818,1.042s0.273,0.67,0.818,0.968
			c0.546,0.298,1.365,0.496,2.457,0.596c3.704,0.331,6.575,1.258,8.609,2.778c2.034,1.521,3.052,3.54,3.052,6.055
			c0,1.29-0.313,2.48-0.939,3.572c-0.627,1.092-1.524,2.035-2.694,2.829s-2.579,1.405-4.228,1.836
			c-1.648,0.43-3.494,0.645-5.537,0.645c-2.077,0-3.948-0.215-5.611-0.645c-1.665-0.431-3.091-1.035-4.277-1.812
			c-1.187-0.777-2.093-1.712-2.719-2.804c-0.627-1.092-0.939-2.3-0.939-3.622c0-1.985,0.566-3.647,1.699-4.987
			s2.979-2.34,5.54-3.002c-0.794-0.298-1.364-0.703-1.712-1.216c-0.347-0.513-0.505-1.034-0.471-1.563
			c0.032-0.529,0.256-1.033,0.67-1.514c0.413-0.479,1.001-0.852,1.764-1.116c-0.867-0.397-1.691-0.909-2.475-1.538
			c-0.783-0.628-1.491-1.356-2.123-2.184c-0.633-0.827-1.133-1.753-1.499-2.779c-0.367-1.024-0.55-2.116-0.55-3.274
			c0-1.555,0.33-3.011,0.992-4.367c0.661-1.356,1.555-2.539,2.68-3.548c1.124-1.009,2.432-1.803,3.92-2.382
			c1.489-0.579,3.06-0.869,4.715-0.869c1.62,0,3.126,0.249,4.516,0.745h9.825V38.927z M393.974,66.865
			c0-1.159-0.586-2.002-1.755-2.531c-1.17-0.529-2.678-0.794-4.522-0.794c-1.978,0-3.535,0.28-4.672,0.844
			c-1.137,0.562-1.705,1.39-1.705,2.481c0,1.124,0.594,1.968,1.779,2.53c1.187,0.562,2.719,0.844,4.598,0.844
			c1.91,0,3.435-0.273,4.571-0.819C393.405,68.875,393.974,68.023,393.974,66.865z M392.634,43.692c0-0.728-0.14-1.406-0.418-2.035
			c-0.279-0.628-0.656-1.183-1.131-1.662s-1.032-0.86-1.672-1.142c-0.639-0.28-1.318-0.422-2.039-0.422
			c-0.722,0-1.393,0.142-2.016,0.422c-0.623,0.281-1.172,0.662-1.646,1.142c-0.476,0.479-0.853,1.034-1.131,1.662
			c-0.279,0.629-0.418,1.308-0.418,2.035s0.139,1.414,0.418,2.059c0.278,0.646,0.655,1.208,1.131,1.688
			c0.475,0.479,1.023,0.86,1.646,1.142s1.294,0.422,2.016,0.422c0.721,0,1.4-0.141,2.039-0.422c0.64-0.281,1.197-0.662,1.672-1.142
			s0.852-1.042,1.131-1.688C392.495,45.106,392.634,44.419,392.634,43.692z"/>
		<path fill="#FFFFFF" d="M434.764,47.612c0,2.15-0.397,4.144-1.191,5.979s-1.886,3.424-3.275,4.764
			c-1.389,1.34-3.019,2.399-4.888,3.176c-1.869,0.777-3.862,1.166-5.979,1.166s-4.103-0.389-5.954-1.166
			c-1.854-0.776-3.474-1.844-4.863-3.2s-2.481-2.953-3.275-4.789s-1.19-3.812-1.19-5.93c0-2.084,0.404-4.044,1.215-5.881
			c0.811-1.836,1.911-3.439,3.301-4.813c1.389-1.372,3.01-2.447,4.862-3.225s3.821-1.167,5.905-1.167c2.117,0,4.11,0.39,5.979,1.167
			s3.499,1.836,4.888,3.176c1.39,1.34,2.481,2.936,3.275,4.788C434.367,43.51,434.764,45.494,434.764,47.612z M427.618,47.612
			c0-1.224-0.214-2.365-0.644-3.424c-0.429-1.059-1.014-1.985-1.756-2.779s-1.608-1.414-2.598-1.86
			c-0.989-0.447-2.044-0.67-3.165-0.67s-2.178,0.223-3.167,0.67c-0.989,0.446-1.855,1.066-2.598,1.86s-1.327,1.721-1.756,2.779
			s-0.643,2.2-0.643,3.424s0.214,2.365,0.643,3.424c0.429,1.06,1.014,1.985,1.756,2.779s1.608,1.414,2.598,1.86
			s2.046,0.67,3.167,0.67s2.176-0.224,3.165-0.67s1.855-1.066,2.598-1.86s1.327-1.72,1.756-2.779
			C427.404,49.977,427.618,48.835,427.618,47.612z"/>
		<path fill="#FFFFFF" d="M464.535,61.952h-7.146v-2.184c-0.464,0.464-1.001,0.868-1.612,1.216
			c-0.612,0.348-1.258,0.646-1.936,0.894c-0.679,0.248-1.373,0.438-2.084,0.57c-0.712,0.132-1.382,0.198-2.01,0.198
			c-1.456,0-2.854-0.231-4.193-0.694s-2.522-1.174-3.548-2.134c-1.025-0.959-1.845-2.199-2.456-3.722
			c-0.612-1.521-0.918-3.325-0.918-5.409V33.271h7.146v17.07c0,1.025,0.156,1.927,0.472,2.704c0.313,0.777,0.727,1.423,1.24,1.936
			c0.513,0.513,1.108,0.893,1.786,1.141s1.381,0.372,2.109,0.372c2.315,0,4.317-0.794,6.004-2.382V33.271h7.146V61.952z"/>
		<rect x="442.399" y="24.692" fill="#FFFFFF" width="18.371" height="5.289"/>
		<path fill="#FFFFFF" d="M486.569,61.307c-0.729,0.464-1.572,0.811-2.531,1.043c-0.96,0.23-1.919,0.347-2.878,0.347
			c-1.688,0-3.109-0.207-4.268-0.62s-2.084-1.05-2.778-1.91c-0.695-0.86-1.2-1.952-1.514-3.275
			c-0.315-1.323-0.472-2.878-0.472-4.664V39.672h-3.771v-3.226c2.315-0.959,4.193-2.382,5.633-4.268
			c1.438-1.886,2.423-4.334,2.952-7.345h2.332v8.387h7.245v6.451h-7.245v13.051c0,0.728,0.091,1.323,0.273,1.786
			c0.181,0.464,0.422,0.827,0.72,1.092c0.297,0.265,0.636,0.446,1.017,0.546c0.38,0.099,0.785,0.148,1.216,0.148
			c0.562,0,1.24-0.099,2.034-0.298c0.795-0.198,1.472-0.528,2.035-0.992V61.307z"/>
	</g>
</g>
</svg>
